<svg width="204" height="100" viewBox="0 0 204 100" fill="none" xmlns="http://www.w3.org/2000/svg">
<g id="brazilian-portuguese">
<rect id="rightZKey" x="186.5" y="38.5" width="17" height="23" rx="3.5" fill="#E9D9F2" stroke="#7109AA"/>
<rect id="rightDKey" x="186.5" y="10.5" width="17" height="23" rx="3.5" fill="#E9D9F2" stroke="#7109AA"/>
<rect id="rightSKey" x="166.5" y="38.5" width="17" height="23" rx="3.5" fill="#E9D9F2" stroke="#7109AA"/>
<rect id="rightTKey" x="166.5" y="10.5" width="17" height="23" rx="3.5" fill="#E9D9F2" stroke="#7109AA"/>
<rect id="rightHKey" x="146.5" y="38.5" width="17" height="23" rx="3.5" fill="#E9D9F2" stroke="#7109AA"/>
<rect id="rightGKey" x="146.5" y="10.5" width="17" height="23" rx="3.5" fill="#E9D9F2" stroke="#7109AA"/>
<rect id="rightPKey" x="126.5" y="38.5" width="17" height="23" rx="3.5" fill="#E9D9F2" stroke="#7109AA"/>
<rect id="rightBKey" x="126.5" y="10.5" width="17" height="23" rx="3.5" fill="#E9D9F2" stroke="#7109AA"/>
<rect id="rightWKey" x="106.5" y="38.5" width="17" height="23" rx="3.5" fill="#E9D9F2" stroke="#7109AA"/>
<rect id="rightRKey" x="106.5" y="10.5" width="17" height="23" rx="3.5" fill="#E9D9F2" stroke="#7109AA"/>
<rect id="rightUKey" x="120.5" y="66.5" width="17" height="23" rx="3.5" fill="#E9D9F2" stroke="#7109AA"/>
<rect id="rightEKey" x="100.5" y="66.5" width="17" height="23" rx="3.5" fill="#E9D9F2" stroke="#7109AA"/>
<rect id="starKey" x="82.5" y="10.5" width="19" height="51" rx="3.5" fill="#E9D9F2" stroke="#7109AA"/>
<rect id="leftOKey" x="66.5" y="66.5" width="17" height="23" rx="3.5" fill="#E9D9F2" stroke="#7109AA"/>
<rect id="leftAKey" x="46.5" y="66.5" width="17" height="23" rx="3.5" fill="#E9D9F2" stroke="#7109AA"/>
<rect id="leftRKey" x="60.5" y="38.5" width="17" height="23" rx="3.5" fill="#E9D9F2" stroke="#7109AA"/>
<rect id="leftLKey" x="60.5" y="10.5" width="17" height="23" rx="3.5" fill="#E9D9F2" stroke="#7109AA"/>
<rect id="leftPKey" x="40.5" y="38.5" width="17" height="23" rx="3.5" fill="#E9D9F2" stroke="#7109AA"/>
<rect id="leftFKey" x="40.5" y="10.5" width="17" height="23" rx="3.5" fill="#E9D9F2" stroke="#7109AA"/>
<rect id="leftTKey" x="20.5" y="38.5" width="17" height="23" rx="3.5" fill="#E9D9F2" stroke="#7109AA"/>
<rect id="leftKKey" x="20.5" y="10.5" width="17" height="23" rx="3.5" fill="#E9D9F2" stroke="#7109AA"/>
<rect id="leftSKey" x="0.5" y="10.5" width="17" height="51" rx="3.5" fill="#E9D9F2" stroke="#7109AA"/>
<path id="rightZ" d="M198.64 43.8V45.032L193.344 53.448H198.608V55H191.232V53.784L196.496 45.352H191.6V43.8H198.64Z" fill="white"/>
<path id="rightD" d="M191.376 27V15.8H194.096C194.789 15.8 195.413 15.9067 195.968 16.12C196.523 16.3333 196.981 16.616 197.344 16.968C197.717 17.32 198.027 17.7413 198.272 18.232C198.517 18.712 198.693 19.2187 198.8 19.752C198.907 20.2747 198.96 20.824 198.96 21.4C198.96 21.944 198.912 22.4667 198.816 22.968C198.72 23.4693 198.549 23.9707 198.304 24.472C198.069 24.9733 197.771 25.4053 197.408 25.768C197.045 26.1307 196.571 26.4293 195.984 26.664C195.408 26.888 194.757 27 194.032 27H191.376ZM193.008 25.464H194.16C194.725 25.464 195.216 25.3467 195.632 25.112C196.048 24.8667 196.368 24.5413 196.592 24.136C196.827 23.7307 196.997 23.304 197.104 22.856C197.211 22.3973 197.264 21.912 197.264 21.4C197.264 20.2693 197.019 19.3093 196.528 18.52C196.037 17.72 195.307 17.32 194.336 17.32H193.008V25.464Z" fill="white"/>
<path id="rightS" d="M175.04 55.192C174.155 55.192 173.371 54.9467 172.688 54.456C172.005 53.9547 171.525 53.3093 171.248 52.52L172.768 51.96C172.992 52.472 173.312 52.8827 173.728 53.192C174.155 53.5013 174.629 53.656 175.152 53.656C175.696 53.656 176.123 53.512 176.432 53.224C176.752 52.936 176.912 52.52 176.912 51.976C176.912 51.496 176.709 51.0853 176.304 50.744C175.899 50.392 175.344 50.0613 174.64 49.752C174.192 49.56 173.829 49.384 173.552 49.224C173.275 49.064 172.965 48.8507 172.624 48.584C172.283 48.3173 172.027 48.008 171.856 47.656C171.696 47.304 171.616 46.904 171.616 46.456C171.616 45.656 171.915 44.984 172.512 44.44C173.12 43.8853 173.92 43.608 174.912 43.608C175.701 43.608 176.379 43.8107 176.944 44.216C177.52 44.6213 177.899 45.144 178.08 45.784L176.592 46.28C176.443 45.9493 176.213 45.6773 175.904 45.464C175.605 45.24 175.248 45.128 174.832 45.128C174.373 45.128 174 45.2507 173.712 45.496C173.424 45.7307 173.28 46.0507 173.28 46.456C173.28 46.6693 173.328 46.8613 173.424 47.032C173.531 47.2027 173.696 47.368 173.92 47.528C174.144 47.6773 174.347 47.8 174.528 47.896C174.709 47.9813 174.976 48.104 175.328 48.264C175.349 48.2747 175.365 48.2853 175.376 48.296C175.387 48.296 175.403 48.3013 175.424 48.312C175.445 48.312 175.461 48.3173 175.472 48.328C175.899 48.5307 176.261 48.7227 176.56 48.904C176.859 49.0747 177.179 49.304 177.52 49.592C177.861 49.88 178.123 50.2213 178.304 50.616C178.485 51.0107 178.576 51.448 178.576 51.928C178.576 52.9307 178.24 53.7253 177.568 54.312C176.896 54.8987 176.053 55.192 175.04 55.192Z" fill="white"/>
<path id="rightT" d="M174.112 27V17.368H170.864V15.8H178.992V17.368H175.744V27H174.112Z" fill="white"/>
<path id="rightH" d="M151.376 55V43.8H153.024V48.424H156.848V43.8H158.48V55H156.848V49.976H153.024V55H151.376Z" fill="white"/>
<path id="rightG" d="M155.152 27.192C154.213 27.192 153.413 26.9093 152.752 26.344C152.101 25.768 151.632 25.0587 151.344 24.216C151.067 23.3627 150.928 22.424 150.928 21.4C150.928 20.3973 151.072 19.4693 151.36 18.616C151.659 17.752 152.139 17.0373 152.8 16.472C153.461 15.896 154.245 15.608 155.152 15.608C155.984 15.608 156.651 15.7947 157.152 16.168C157.653 16.5413 158.08 17.0533 158.432 17.704L156.976 18.536C156.475 17.608 155.867 17.144 155.152 17.144C154.565 17.144 154.075 17.3733 153.68 17.832C153.285 18.28 153.008 18.8133 152.848 19.432C152.699 20.04 152.624 20.696 152.624 21.4C152.624 22.584 152.837 23.5867 153.264 24.408C153.701 25.2293 154.331 25.64 155.152 25.64C155.76 25.64 156.229 25.432 156.56 25.016C156.891 24.5893 157.056 24.0293 157.056 23.336V22.952H155.072V21.432H158.752V22.872C158.752 24.2267 158.416 25.288 157.744 26.056C157.072 26.8133 156.208 27.192 155.152 27.192Z" fill="white"/>
<path id="rightP" d="M131.376 55V43.8H135.088C136.357 43.8 137.285 44.1307 137.872 44.792C138.469 45.4427 138.768 46.248 138.768 47.208C138.768 48.104 138.459 48.8987 137.84 49.592C137.232 50.2747 136.315 50.616 135.088 50.616H133.024V55H131.376ZM133.024 49.096H135.184C135.835 49.096 136.315 48.9093 136.624 48.536C136.944 48.1627 137.104 47.72 137.104 47.208C137.104 46.7173 136.955 46.28 136.656 45.896C136.357 45.512 135.867 45.32 135.184 45.32H133.024V49.096Z" fill="white"/>
<path id="rightB" d="M131.376 27V15.8H134.88C136.117 15.8 137.013 16.0827 137.568 16.648C138.123 17.2133 138.4 17.9173 138.4 18.76C138.4 19.8693 137.883 20.648 136.848 21.096C137.456 21.288 137.931 21.624 138.272 22.104C138.624 22.5733 138.8 23.128 138.8 23.768C138.8 24.664 138.501 25.4267 137.904 26.056C137.317 26.6853 136.389 27 135.12 27H131.376ZM133.024 20.44H134.608C135.323 20.44 135.861 20.3013 136.224 20.024C136.597 19.736 136.784 19.3413 136.784 18.84C136.784 17.816 136.171 17.304 134.944 17.304H133.024V20.44ZM133.024 25.48H135.264C135.957 25.48 136.448 25.32 136.736 25C137.035 24.68 137.184 24.2853 137.184 23.816C137.184 22.568 136.384 21.944 134.784 21.944H133.024V25.48Z" fill="white"/>
<path id="rightW" d="M112.128 55L110.416 43.8H111.92L112.896 50.824L112.992 51.576C113.024 51.32 113.072 51.0693 113.136 50.824L114.432 43.8H115.44L116.752 50.776C116.816 51.0427 116.864 51.2773 116.896 51.48C116.907 51.384 116.923 51.2613 116.944 51.112C116.965 50.952 116.976 50.8453 116.976 50.792L117.872 43.8H119.44L117.728 55H116.416L115.056 47.896C115.024 47.7467 114.981 47.4907 114.928 47.128C114.907 47.288 114.864 47.5387 114.8 47.88L113.44 55H112.128Z" fill="white"/>
<path id="rightR" d="M118.624 19.08C118.624 19.8053 118.427 20.4613 118.032 21.048C117.637 21.624 117.051 22.024 116.272 22.248L118.592 27H116.768L114.528 22.408H113.024V27H111.376V15.8H115.024C116.293 15.8 117.211 16.1093 117.776 16.728C118.341 17.3467 118.624 18.1307 118.624 19.08ZM113.024 17.32V20.872H115.056C115.728 20.872 116.213 20.7067 116.512 20.376C116.821 20.0347 116.976 19.6133 116.976 19.112C116.976 18.632 116.827 18.216 116.528 17.864C116.24 17.5013 115.749 17.32 115.056 17.32H113.024Z" fill="white"/>
<path id="rightU" d="M128.928 83.192C127.808 83.192 126.912 82.84 126.24 82.136C125.568 81.4213 125.232 80.2907 125.232 78.744V71.8H126.88V78.744C126.88 80.6747 127.563 81.64 128.928 81.64C130.304 81.64 130.992 80.6747 130.992 78.744V71.8H132.624V78.744C132.624 80.28 132.288 81.4053 131.616 82.12C130.955 82.8347 130.059 83.192 128.928 83.192Z" fill="white"/>
<path id="rightE" d="M105.376 83V71.8H112.24V73.352H107.024V76.44H110.496V77.992H107.024V81.432H112.592V83H105.376Z" fill="white"/>
<path id="star" d="M90.5201 38.16L89.2721 37.328L90.2641 35.808L91.1281 35.008L89.9601 35.28H88.2161V33.76H89.9601L91.1281 34.016L90.2801 33.232L89.2881 31.712L90.5361 30.88L91.6401 32.544L91.9281 33.616L92.2321 32.544L93.3361 30.88L94.5841 31.712L93.5921 33.232L92.7281 34.016L93.8961 33.76H95.6401V35.28H93.8961L92.7281 35.008L93.5921 35.808L94.5841 37.328L93.3361 38.16L92.2321 36.496L91.9281 35.408L91.6241 36.496L90.5201 38.16Z" fill="white"/>
<path id="leftO" d="M74.928 83.192C74.2347 83.192 73.6213 83.032 73.088 82.712C72.5547 82.3813 72.1333 81.9387 71.824 81.384C71.5147 80.8293 71.28 80.216 71.12 79.544C70.9707 78.872 70.896 78.1573 70.896 77.4C70.896 76.6427 70.9707 75.928 71.12 75.256C71.28 74.584 71.5147 73.9707 71.824 73.416C72.1333 72.8613 72.5547 72.424 73.088 72.104C73.6213 71.7733 74.2347 71.608 74.928 71.608C75.632 71.608 76.2507 71.7733 76.784 72.104C77.3173 72.424 77.7387 72.8613 78.048 73.416C78.3573 73.9707 78.5867 74.584 78.736 75.256C78.8853 75.928 78.96 76.6427 78.96 77.4C78.96 78.1573 78.8853 78.872 78.736 79.544C78.5867 80.216 78.3573 80.8293 78.048 81.384C77.7387 81.9387 77.3173 82.3813 76.784 82.712C76.2507 83.032 75.632 83.192 74.928 83.192ZM74.928 81.64C75.4507 81.64 75.8933 81.4267 76.256 81C76.6293 80.5733 76.8907 80.0507 77.04 79.432C77.1893 78.8133 77.264 78.136 77.264 77.4C77.264 76.1733 77.072 75.16 76.688 74.36C76.304 73.5493 75.7173 73.144 74.928 73.144C74.4053 73.144 73.9627 73.3627 73.6 73.8C73.2373 74.2267 72.9813 74.7493 72.832 75.368C72.6827 75.9867 72.608 76.664 72.608 77.4C72.608 78.616 72.8 79.6293 73.184 80.44C73.568 81.24 74.1493 81.64 74.928 81.64Z" fill="white"/>
<path id="leftA" d="M57.616 83L56.816 80.392H53.056L52.272 83H50.512L54.176 71.8H55.664L59.36 83H57.616ZM53.52 78.904H56.352L55.216 75.192C55.0986 74.808 55.0026 74.4187 54.928 74.024C54.8533 74.4187 54.7573 74.808 54.64 75.192L53.52 78.904Z" fill="white"/>
<path id="leftR" d="M72.624 47.08C72.624 47.8053 72.4266 48.4613 72.032 49.048C71.6373 49.624 71.0506 50.024 70.272 50.248L72.592 55H70.768L68.528 50.408H67.024V55H65.376V43.8H69.024C70.2933 43.8 71.2106 44.1093 71.776 44.728C72.3413 45.3467 72.624 46.1307 72.624 47.08ZM67.024 45.32V48.872H69.056C69.728 48.872 70.2133 48.7067 70.512 48.376C70.8213 48.0347 70.976 47.6133 70.976 47.112C70.976 46.632 70.8266 46.216 70.528 45.864C70.24 45.5013 69.7493 45.32 69.056 45.32H67.024Z" fill="white"/>
<path id="leftL" d="M65.376 27V15.8H67.024V25.416H72.272V27H65.376Z" fill="white"/>
<path id="leftP" d="M45.376 55V43.8H49.088C50.3573 43.8 51.2853 44.1307 51.872 44.792C52.4693 45.4427 52.768 46.248 52.768 47.208C52.768 48.104 52.4586 48.8987 51.84 49.592C51.232 50.2747 50.3146 50.616 49.088 50.616H47.024V55H45.376ZM47.024 49.096H49.184C49.8346 49.096 50.3146 48.9093 50.624 48.536C50.944 48.1627 51.104 47.72 51.104 47.208C51.104 46.7173 50.9546 46.28 50.656 45.896C50.3573 45.512 49.8666 45.32 49.184 45.32H47.024V49.096Z" fill="white"/>
<path id="leftF" d="M45.376 27V15.8H52.672V17.352H47.024V20.44H51.056V21.992H47.024V27H45.376Z" fill="white"/>
<path id="leftT" d="M28.112 55V45.368H24.864V43.8H32.992V45.368H29.744V55H28.112Z" fill="white"/>
<path id="leftK" d="M31.296 27L28.192 21.144L27.024 22.6V27H25.376V15.8H27.024V20.312L30.56 15.8H32.464L29.296 19.752L33.184 27H31.296Z" fill="white"/>
<path id="leftS" d="M9.04005 40.192C8.15471 40.192 7.37071 39.9467 6.68805 39.456C6.00538 38.9547 5.52538 38.3093 5.24805 37.52L6.76805 36.96C6.99205 37.472 7.31205 37.8827 7.72805 38.192C8.15471 38.5013 8.62938 38.656 9.15205 38.656C9.69605 38.656 10.1227 38.512 10.432 38.224C10.752 37.936 10.912 37.52 10.912 36.976C10.912 36.496 10.7094 36.0853 10.304 35.744C9.89871 35.392 9.34405 35.0613 8.64005 34.752C8.19205 34.56 7.82938 34.384 7.55205 34.224C7.27471 34.064 6.96538 33.8507 6.62405 33.584C6.28271 33.3173 6.02671 33.008 5.85605 32.656C5.69605 32.304 5.61605 31.904 5.61605 31.456C5.61605 30.656 5.91471 29.984 6.51205 29.44C7.12005 28.8853 7.92005 28.608 8.91205 28.608C9.70138 28.608 10.3787 28.8107 10.944 29.216C11.52 29.6213 11.8987 30.144 12.08 30.784L10.592 31.28C10.4427 30.9493 10.2134 30.6773 9.90405 30.464C9.60538 30.24 9.24805 30.128 8.83205 30.128C8.37338 30.128 8.00005 30.2507 7.71205 30.496C7.42405 30.7307 7.28005 31.0507 7.28005 31.456C7.28005 31.6693 7.32805 31.8613 7.42405 32.032C7.53071 32.2027 7.69605 32.368 7.92005 32.528C8.14405 32.6773 8.34671 32.8 8.52805 32.896C8.70938 32.9813 8.97605 33.104 9.32805 33.264C9.34938 33.2747 9.36538 33.2853 9.37605 33.296C9.38671 33.296 9.40271 33.3013 9.42405 33.312C9.44538 33.312 9.46138 33.3173 9.47205 33.328C9.89871 33.5307 10.2614 33.7227 10.56 33.904C10.8587 34.0747 11.1787 34.304 11.52 34.592C11.8614 34.88 12.1227 35.2213 12.304 35.616C12.4854 36.0107 12.576 36.448 12.576 36.928C12.576 37.9307 12.24 38.7253 11.568 39.312C10.896 39.8987 10.0534 40.192 9.04005 40.192Z" fill="white"/>
</g>
</svg>
