<?xml version="1.0" encoding="UTF-8"?>
<svg width="202px" height="108px" viewBox="0 0 202 108" version="1.1" xmlns="http://www.w3.org/2000/svg" xmlns:xlink="http://www.w3.org/1999/xlink">
    <!-- Generator: Sketch 53.1 (72631) - https://sketchapp.com -->
    <title>japanese</title>
    <desc>Created with Sketch.</desc>
    <g id="japanese" stroke="none" stroke-width="1" fill="none" fill-rule="evenodd">
        <g transform="translate(1.000000, 2.000000)" fill-rule="nonzero">
            <rect id="theカ" stroke="#7109AA" fill="#E9D9F2" x="126" y="81" width="20" height="24" rx="4"></rect>
            <path d="M133.76,86.2 L135.84,86.2 C135.84,87.0533376 135.824,87.8533296 135.792,88.6 L141.872,88.6 L141.872,90.248 C141.872,91.8906749 141.84,93.2506613 141.776,94.328 C141.712,95.4053387 141.618667,96.2906632 141.496,96.984 C141.373333,97.6773368 141.189335,98.1973316 140.944,98.544 C140.698665,98.8906684 140.429335,99.1253327 140.136,99.248 C139.842665,99.3706673 139.461336,99.432 138.992,99.432 C138.287996,99.432 137.189341,99.3573341 135.696,99.208 L135.872,97.272 C136.970672,97.3786672 137.797331,97.432 138.352,97.432 C138.693335,97.432 138.946666,97.3066679 139.112,97.056 C139.277334,96.8053321 139.405333,96.2400044 139.496,95.36 C139.586667,94.4799956 139.632,93.1226758 139.632,91.288 L139.632,90.52 L135.664,90.52 C135.450666,92.8026781 134.98667,94.6293265 134.272,96 C133.55733,97.3706735 132.474674,98.6159944 131.024,99.736 L129.68,98.264 C130.896006,97.3359954 131.799997,96.3120056 132.392,95.192 C132.984003,94.0719944 133.381332,92.5146766 133.584,90.52 L129.808,90.52 L129.808,88.6 L133.712,88.6 C133.744,87.8639963 133.76,87.0640043 133.76,86.2 Z" id="カ" fill="#FFFFFF"></path>
            <rect id="theRightKagikakko" stroke="#7109AA" fill="#E9D9F2" x="104" y="81" width="20" height="24" rx="4"></rect>
            <polygon id="」" fill="#FFFFFF" points="114.648 87.488 116.68 87.488 116.68 99.712 110.008 99.712 110.008 98 114.648 98"></polygon>
            <rect id="theRightっ" stroke="#7109AA" fill="#E9D9F2" x="180" y="51" width="20" height="24" rx="4"></rect>
            <path d="M184.592,62.048 C187.184013,61.4293302 189.14666,61.12 190.48,61.12 C193.76535,61.12 195.408,62.490653 195.408,65.232 C195.408,68.6880173 192.602695,70.416 186.992,70.416 L186.848,68.592 C189.152012,68.592 190.810662,68.325336 191.824,67.792 C192.837338,67.258664 193.344,66.4533387 193.344,65.376 C193.344,64.5546626 193.101336,63.9520019 192.616,63.568 C192.130664,63.1839981 191.354672,62.992 190.288,62.992 C189.263995,62.992 187.493346,63.2853304 184.976,63.872 L184.592,62.048 Z" id="っ" fill="#FFFFFF"></path>
            <rect id="theRightお" stroke="#7109AA" fill="#E9D9F2" x="180" y="22" width="20" height="26" rx="4"></rect>
            <path d="M183.872,30.072 L187.6,30.072 L187.6,28.088 L189.632,28.088 L189.632,30.072 L193.152,30.072 L193.152,31.768 L189.632,31.768 L189.632,33.784 C190.037335,33.7626666 190.357332,33.752 190.592,33.752 C192.170675,33.752 193.445328,34.1199963 194.416,34.856 C195.386672,35.5920037 195.872,36.4826614 195.872,37.528 C195.872,38.786673 195.485337,39.778663 194.712,40.504 C193.938663,41.229337 192.794674,41.6773325 191.28,41.848 L190.848,40.04 C191.872005,39.9119994 192.618664,39.6533353 193.088,39.264 C193.557336,38.8746647 193.792,38.3333368 193.792,37.64 C193.792,37.106664 193.501336,36.6453353 192.92,36.256 C192.338664,35.8666647 191.562672,35.672 190.592,35.672 C190.357332,35.672 190.037335,35.6826666 189.632,35.704 L189.632,39.032 C189.632,40.0133382 189.440002,40.6933314 189.056,41.072 C188.671998,41.4506686 187.989338,41.64 187.008,41.64 C185.941328,41.64 185.03467,41.3120033 184.288,40.656 C183.54133,39.9999967 183.168,39.1920048 183.168,38.232 C183.168,37.2933286 183.554663,36.4480038 184.328,35.696 C185.101337,34.9439962 186.191993,34.4026683 187.6,34.072 L187.6,31.768 L183.872,31.768 L183.872,30.072 Z M193.664,30.44 L195.088,29.432 C196.037338,30.690673 196.863996,31.9066608 197.568,33.08 L196.064,33.976 C195.31733,32.7386605 194.517338,31.5600056 193.664,30.44 Z M187.6,36.024 C186.810663,36.2480011 186.213335,36.5546647 185.808,36.944 C185.402665,37.3333353 185.2,37.7626643 185.2,38.232 C185.2,38.6480021 185.367998,39.018665 185.704,39.344 C186.040002,39.669335 186.405331,39.832 186.8,39.832 C187.109335,39.832 187.319999,39.7680006 187.432,39.64 C187.544001,39.5119994 187.6,39.2720018 187.6,38.92 L187.6,36.024 Z" id="お" fill="#FFFFFF"></path>
            <rect id="theRight1" stroke="#7109AA" fill="#E9D9F2" x="180" y="0" width="20" height="19" rx="4"></rect>
            <polygon id="1" fill="#FFFFFF" points="189.672 15 189.672 5.928 189.656 5.928 186.856 8.488 186.104 6.632 189.672 3.32 191.976 3.32 191.976 15"></polygon>
            <rect id="theRightう" stroke="#7109AA" fill="#E9D9F2" x="158" y="51" width="20" height="24" rx="4"></rect>
            <path d="M161.856,62.64 C163.104006,62.3199984 164.40266,62.0613343 165.752,61.864 C167.10134,61.6666657 168.239995,61.568 169.168,61.568 C170.832008,61.568 172.066663,61.8853302 172.872,62.52 C173.677337,63.1546698 174.08,63.9946614 174.08,65.04 C174.08,66.6506747 173.322674,67.9573283 171.808,68.96 C170.293326,69.9626717 168.064015,70.5759989 165.12,70.8 L164.72,68.912 C167.184012,68.6666654 169.005327,68.2133366 170.184,67.552 C171.362673,66.8906634 171.952,66.0906714 171.952,65.152 C171.952,64.0426611 170.99201,63.488 169.072,63.488 C167.525326,63.488 165.269348,63.8293299 162.304,64.512 L161.856,62.64 Z M164.096,59.392 L164.336,57.52 C166.885346,57.8720018 169.370655,58.048 171.792,58.048 L171.792,59.968 C169.445322,59.968 166.880014,59.7760019 164.096,59.392 Z" id="う" fill="#FFFFFF"></path>
            <rect id="theRightい" stroke="#7109AA" fill="#E9D9F2" x="158" y="22" width="20" height="26" rx="4"></rect>
            <path d="M170.56,30.248 L172.528,29.672 C173.989341,32.6160147 174.72,36.0719802 174.72,40.04 L172.592,40.04 C172.592,38.3226581 172.413335,36.6106752 172.056,34.904 C171.698665,33.1973248 171.200003,31.6453403 170.56,30.248 Z M164.528,30.024 C164.037331,31.7093418 163.792,33.5013238 163.792,35.4 C163.792,36.5840059 163.981331,37.5813293 164.36,38.392 C164.738669,39.2026707 165.114665,39.608 165.488,39.608 C165.754668,39.608 166.111998,39.304003 166.56,38.696 C167.008002,38.087997 167.450664,37.2186723 167.888,36.088 L169.76,36.808 C169.226664,38.3546744 168.544004,39.565329 167.712,40.44 C166.879996,41.314671 166.085337,41.752 165.328,41.752 C164.421329,41.752 163.581337,41.1333395 162.808,39.896 C162.034663,38.6586605 161.648,37.1600088 161.648,35.4 C161.648,33.3946566 161.914664,31.5226754 162.448,29.784 L164.528,30.024 Z" id="い" fill="#FFFFFF"></path>
            <rect id="theRight2" stroke="#7109AA" fill="#E9D9F2" x="158" y="0" width="20" height="19" rx="4"></rect>
            <path d="M164.296,13.192 C165.757341,12.050661 166.879996,11.0933372 167.664,10.32 C168.448004,9.5466628 168.973332,8.90400256 169.24,8.392 C169.506668,7.87999744 169.64,7.34666944 169.64,6.792 C169.64,5.60799408 169.00534,5.016 167.736,5.016 C166.839996,5.016 165.821339,5.38399632 164.68,6.12 L164.088,4.328 C164.621336,3.96533152 165.242663,3.68000104 165.952,3.472 C166.661337,3.26399896 167.362663,3.16 168.056,3.16 C169.304006,3.16 170.266663,3.46133032 170.944,4.064 C171.621337,4.66666968 171.96,5.501328 171.96,6.568 C171.96,7.57067168 171.64267,8.53599536 171.008,9.464 C170.37333,10.3920046 169.133343,11.6239923 167.288,13.16 L167.288,13.192 L171.976,13.192 L171.976,15 L164.296,15 L164.296,13.192 Z" id="2" fill="#FFFFFF"></path>
            <rect id="theRightさ" stroke="#7109AA" fill="#E9D9F2" x="136" y="51" width="20" height="24" rx="4"></rect>
            <path d="M147.744,63.6 L147.76,63.584 C147.386665,62.8266629 147.088001,61.9626715 146.864,60.992 C144.399988,61.0560003 141.962679,61.088 139.552,61.088 L139.552,59.28 C141.866678,59.28 144.197322,59.2480003 146.544,59.184 C146.458666,58.5333301 146.4,57.8933365 146.368,57.264 L148.4,57.136 C148.432,57.9040038 148.485333,58.5653306 148.56,59.12 C150.266675,59.0559997 151.562662,59.0026669 152.448,58.96 L152.512,60.768 C151.711996,60.8106669 150.501341,60.8639997 148.88,60.928 C149.210668,62.26134 149.829329,63.6373262 150.736,65.056 L148.8,66.032 C147.647994,65.2639962 146.410673,64.88 145.088,64.88 C144.277329,64.88 143.648002,65.042665 143.2,65.368 C142.751998,65.693335 142.528,66.1333306 142.528,66.688 C142.528,67.4240037 142.858663,67.991998 143.52,68.392 C144.181337,68.792002 145.167993,68.992 146.48,68.992 C147.653339,68.992 148.949326,68.8480014 150.368,68.56 L150.704,70.368 C149.349327,70.6560014 147.941341,70.8 146.48,70.8 C144.43199,70.8 142.906672,70.4160038 141.904,69.648 C140.901328,68.8799962 140.4,67.8613397 140.4,66.592 C140.4,65.525328 140.805329,64.6720032 141.616,64.032 C142.426671,63.3919968 143.551993,63.072 144.992,63.072 C145.930671,63.072 146.847996,63.2479982 147.744,63.6 Z" id="さ" fill="#FFFFFF"></path>
            <rect id="theRightか" stroke="#7109AA" fill="#E9D9F2" x="136" y="22" width="20" height="26" rx="4"></rect>
            <path d="M142.672,41 L143.232,39.16 C144.362672,39.5653354 145.162664,39.768 145.632,39.768 C145.813334,39.768 145.978666,39.634668 146.128,39.368 C146.277334,39.101332 146.407999,38.6293367 146.52,37.952 C146.632001,37.2746633 146.688,36.440005 146.688,35.448 C146.688,34.1679936 146.632001,33.4213344 146.52,33.208 C146.407999,32.9946656 146.005337,32.888 145.312,32.888 L143.648,32.888 C142.943996,35.896015 141.984006,38.8933184 140.768,41.88 L138.96,41.24 C140.026672,38.5413198 140.911996,35.7573477 141.616,32.888 L139.168,32.888 L139.168,31.08 L142.032,31.08 C142.277335,29.9173275 142.479999,28.8453382 142.64,27.864 L144.56,28.04 C144.421333,29.0426717 144.245334,30.0559949 144.032,31.08 L146.312,31.08 C146.584001,31.08 146.885332,31.1119997 147.216,31.176 C147.546668,31.2400003 147.773333,31.2933331 147.896,31.336 C148.018667,31.3786669 148.162666,31.5013323 148.328,31.704 C148.493334,31.9066677 148.592,32.0879992 148.624,32.248 C148.656,32.4080008 148.698666,32.6933313 148.752,33.104 C148.805334,33.5146687 148.832,33.890665 148.832,34.232 L148.832,35.768 C148.832,37.8160102 148.581336,39.3253285 148.08,40.296 C147.578664,41.2666715 146.901338,41.752 146.048,41.752 C145.631998,41.752 145.09867,41.6800007 144.448,41.536 C143.79733,41.3919993 143.205336,41.2133344 142.672,41 Z M149.072,30.456 L151.008,29.88 C152.074672,32.5573467 152.94933,35.2453198 153.632,37.944 L151.664,38.424 C150.959996,35.6613195 150.096005,33.0053461 149.072,30.456 Z" id="か" fill="#FFFFFF"></path>
            <rect id="theRight3" stroke="#7109AA" fill="#E9D9F2" x="136" y="0" width="20" height="19" rx="4"></rect>
            <path d="M142.264,3.32 L149.752,3.32 L149.752,5.128 L146.472,8.104 L146.472,8.136 L146.744,8.136 C147.725338,8.136 148.498664,8.4159972 149.064,8.976 C149.629336,9.5360028 149.912,10.3173283 149.912,11.32 C149.912,12.5466728 149.53867,13.49333 148.792,14.16 C148.04533,14.82667 146.978674,15.16 145.592,15.16 C144.343994,15.16 143.208005,14.8773362 142.184,14.312 L142.76,12.552 C143.752005,13.085336 144.663996,13.352 145.496,13.352 C146.200004,13.352 146.743998,13.181335 147.128,12.84 C147.512002,12.498665 147.704,12.0026699 147.704,11.352 C147.704,10.7546637 147.488002,10.3253346 147.056,10.064 C146.623998,9.80266536 145.864005,9.672 144.776,9.672 L143.816,9.672 L143.816,8.072 L147.016,5.16 L147.016,5.128 L142.264,5.128 L142.264,3.32 Z" id="3" fill="#FFFFFF"></path>
            <rect id="theRightな" stroke="#7109AA" fill="#E9D9F2" x="114" y="51" width="20" height="24" rx="4"></rect>
            <path d="M130.88,61.312 C129.994662,61.1626659 129.077338,61.0720002 128.128,61.04 L128.128,66.176 C129.056005,66.7520029 130.079994,67.5519949 131.2,68.576 L129.936,69.984 C129.295997,69.4293306 128.661336,68.9013358 128.032,68.4 C127.871999,69.2640043 127.493336,69.8986646 126.896,70.304 C126.298664,70.7093354 125.461339,70.912 124.384,70.912 C123.199994,70.912 122.27467,70.6400027 121.608,70.096 C120.94133,69.5519973 120.608,68.8106714 120.608,67.872 C120.608,66.9546621 120.935997,66.2266694 121.592,65.688 C122.248003,65.1493306 123.178661,64.88 124.384,64.88 C124.928003,64.88 125.498664,64.9813323 126.096,65.184 L126.096,59.168 C127.984009,59.168 129.658659,59.2746656 131.12,59.488 L130.88,61.312 Z M117.072,60.992 L117.072,59.168 L119.808,59.168 C120.042668,58.2613288 120.229333,57.5093363 120.368,56.912 L122.288,57.168 C122.159999,57.7866698 122.000001,58.4533298 121.808,59.168 L124.48,59.168 L124.48,60.992 L121.328,60.992 C120.527996,63.8080141 119.605339,66.4799874 118.56,69.008 L116.704,68.384 C117.685338,65.9626546 118.54933,63.4986792 119.296,60.992 L117.072,60.992 Z M126.096,67.088 C125.466664,66.7679984 124.896003,66.608 124.384,66.608 C123.79733,66.608 123.357335,66.7199989 123.064,66.944 C122.770665,67.1680011 122.624,67.4773314 122.624,67.872 C122.624,68.2880021 122.778665,68.6133322 123.088,68.848 C123.397335,69.0826678 123.829331,69.2 124.384,69.2 C125.03467,69.2 125.482665,69.066668 125.728,68.8 C125.973335,68.533332 126.096,68.0266704 126.096,67.28 L126.096,67.088 Z" id="な" fill="#FFFFFF"></path>
            <rect id="theRightた" stroke="#7109AA" fill="#E9D9F2" x="114" y="22" width="20" height="26" rx="4"></rect>
            <path d="M130.208,34.792 C127.935989,34.792 125.781344,34.9146654 123.744,35.16 L123.616,33.368 C125.706677,33.1226654 127.903988,33 130.208,33 L130.208,34.792 Z M130.336,39.512 L130.576,41.32 C129.434661,41.5333344 128.309339,41.64 127.2,41.64 C125.727993,41.64 124.552004,41.3706694 123.672,40.832 C122.791996,40.2933306 122.352,39.6026709 122.352,38.76 C122.352,37.9386626 122.885328,37.1120042 123.952,36.28 L125.408,37.208 C124.991998,37.5600018 124.714667,37.8293324 124.576,38.016 C124.437333,38.2026676 124.368,38.3813325 124.368,38.552 C124.368,38.9253352 124.621331,39.2319988 125.128,39.472 C125.634669,39.7120012 126.325329,39.832 127.2,39.832 C128.149338,39.832 129.194661,39.7253344 130.336,39.512 Z M117.6,31.72 L117.6,29.912 L120.144,29.912 C120.293334,29.0586624 120.405333,28.4133355 120.48,27.976 L122.512,28.152 C122.383999,28.9413373 122.282667,29.5279981 122.208,29.912 L127.792,29.912 L127.792,31.72 L121.856,31.72 C121.14133,35.2826845 120.234672,38.6853171 119.136,41.928 L117.12,41.464 C118.208005,38.2746507 119.09333,35.0266832 119.776,31.72 L117.6,31.72 Z" id="た" fill="#FFFFFF"></path>
            <rect id="theRight4" stroke="#7109AA" fill="#E9D9F2" x="114" y="0" width="20" height="19" rx="4"></rect>
            <path d="M124.488,10.84 L124.488,6.248 L124.456,6.248 L121.288,10.808 L121.288,10.84 L124.488,10.84 Z M126.648,10.84 L128.44,10.84 L128.44,12.6 L126.648,12.6 L126.648,15 L124.488,15 L124.488,12.6 L119.208,12.6 L119.208,10.84 L124.488,3.32 L126.648,3.32 L126.648,10.84 Z" id="4" fill="#FFFFFF"></path>
            <rect id="theStar" stroke="#7109AA" fill="#E9D9F2" x="90" y="0" width="20" height="75" rx="4"></rect>
            <polygon id="*" fill="#FFFFFF" points="103.872 34.232 101.584 34.904 103.04 36.808 101.632 37.816 100.288 35.848 98.944 37.816 97.536 36.808 99.008 34.904 96.704 34.232 97.232 32.584 99.488 33.4 99.424 31 101.152 31 101.088 33.4 103.344 32.584"></polygon>
            <rect id="theLeftっ" stroke="#7109AA" fill="#E9D9F2" x="0" y="51" width="20" height="24" rx="4"></rect>
            <path d="M4.592,62.048 C7.18401296,61.4293302 9.14666,61.12 10.48,61.12 C13.7653498,61.12 15.408,62.490653 15.408,65.232 C15.408,68.6880173 12.6026947,70.416 6.992,70.416 L6.848,68.592 C9.15201152,68.592 10.8106616,68.325336 11.824,67.792 C12.8373384,67.258664 13.344,66.4533387 13.344,65.376 C13.344,64.5546626 13.1013358,63.9520019 12.616,63.568 C12.1306642,63.1839981 11.354672,62.992 10.288,62.992 C9.26399488,62.992 7.49334592,63.2853304 4.976,63.872 L4.592,62.048 Z" id="っ" fill="#FFFFFF"></path>
            <rect id="theLeftお" stroke="#7109AA" fill="#E9D9F2" x="0" y="22" width="20" height="26" rx="4"></rect>
            <path d="M3.872,30.072 L7.6,30.072 L7.6,28.088 L9.632,28.088 L9.632,30.072 L13.152,30.072 L13.152,31.768 L9.632,31.768 L9.632,33.784 C10.0373354,33.7626666 10.3573322,33.752 10.592,33.752 C12.1706746,33.752 13.4453285,34.1199963 14.416,34.856 C15.3866715,35.5920037 15.872,36.4826614 15.872,37.528 C15.872,38.786673 15.4853372,39.778663 14.712,40.504 C13.9386628,41.229337 12.7946742,41.6773325 11.28,41.848 L10.848,40.04 C11.8720051,39.9119994 12.6186643,39.6533353 13.088,39.264 C13.5573357,38.8746647 13.792,38.3333368 13.792,37.64 C13.792,37.106664 13.5013362,36.6453353 12.92,36.256 C12.3386638,35.8666647 11.5626715,35.672 10.592,35.672 C10.3573322,35.672 10.0373354,35.6826666 9.632,35.704 L9.632,39.032 C9.632,40.0133382 9.44000192,40.6933314 9.056,41.072 C8.67199808,41.4506686 7.98933824,41.64 7.008,41.64 C5.941328,41.64 5.0346704,41.3120033 4.288,40.656 C3.5413296,39.9999967 3.168,39.1920048 3.168,38.232 C3.168,37.2933286 3.5546628,36.4480038 4.328,35.696 C5.1013372,34.9439962 6.19199296,34.4026683 7.6,34.072 L7.6,31.768 L3.872,31.768 L3.872,30.072 Z M13.664,30.44 L15.088,29.432 C16.0373381,30.690673 16.8639965,31.9066608 17.568,33.08 L16.064,33.976 C15.3173296,32.7386605 14.5173376,31.5600056 13.664,30.44 Z M7.6,36.024 C6.81066272,36.2480011 6.21333536,36.5546647 5.808,36.944 C5.40266464,37.3333353 5.2,37.7626643 5.2,38.232 C5.2,38.6480021 5.36799832,39.018665 5.704,39.344 C6.04000168,39.669335 6.40533136,39.832 6.8,39.832 C7.10933488,39.832 7.31999944,39.7680006 7.432,39.64 C7.54400056,39.5119994 7.6,39.2720018 7.6,38.92 L7.6,36.024 Z" id="お" fill="#FFFFFF"></path>
            <rect id="theLeft1" stroke="#7109AA" fill="#E9D9F2" x="0" y="0" width="20" height="19" rx="4"></rect>
            <polygon id="1" fill="#FFFFFF" points="9.672 15 9.672 5.928 9.656 5.928 6.856 8.488 6.104 6.632 9.672 3.32 11.976 3.32 11.976 15"></polygon>
            <rect id="theLeftう" stroke="#7109AA" fill="#E9D9F2" x="22" y="51" width="20" height="24" rx="4"></rect>
            <path d="M25.856,62.64 C27.1040062,62.3199984 28.4026599,62.0613343 29.752,61.864 C31.1013401,61.6666657 32.2399954,61.568 33.168,61.568 C34.8320083,61.568 36.0666626,61.8853302 36.872,62.52 C37.6773374,63.1546698 38.08,63.9946614 38.08,65.04 C38.08,66.6506747 37.3226742,67.9573283 35.808,68.96 C34.2933258,69.9626717 32.0640147,70.5759989 29.12,70.8 L28.72,68.912 C31.1840123,68.6666654 33.0053274,68.2133366 34.184,67.552 C35.3626726,66.8906634 35.952,66.0906714 35.952,65.152 C35.952,64.0426611 34.9920096,63.488 33.072,63.488 C31.5253256,63.488 29.2693482,63.8293299 26.304,64.512 L25.856,62.64 Z M28.096,59.392 L28.336,57.52 C30.8853461,57.8720018 33.3706546,58.048 35.792,58.048 L35.792,59.968 C33.4453216,59.968 30.8800139,59.7760019 28.096,59.392 Z" id="う" fill="#FFFFFF"></path>
            <rect id="theLeftい" stroke="#7109AA" fill="#E9D9F2" x="22" y="22" width="20" height="26" rx="4"></rect>
            <path d="M34.56,30.248 L36.528,29.672 C37.9893406,32.6160147 38.72,36.0719802 38.72,40.04 L36.592,40.04 C36.592,38.3226581 36.4133351,36.6106752 36.056,34.904 C35.6986649,33.1973248 35.2000032,31.6453403 34.56,30.248 Z M28.528,30.024 C28.0373309,31.7093418 27.792,33.5013238 27.792,35.4 C27.792,36.5840059 27.9813314,37.5813293 28.36,38.392 C28.7386686,39.2026707 29.1146648,39.608 29.488,39.608 C29.754668,39.608 30.1119978,39.304003 30.56,38.696 C31.0080022,38.087997 31.4506645,37.2186723 31.888,36.088 L33.76,36.808 C33.226664,38.3546744 32.5440042,39.565329 31.712,40.44 C30.8799958,41.314671 30.0853371,41.752 29.328,41.752 C28.4213288,41.752 27.5813372,41.1333395 26.808,39.896 C26.0346628,38.6586605 25.648,37.1600088 25.648,35.4 C25.648,33.3946566 25.914664,31.5226754 26.448,29.784 L28.528,30.024 Z" id="い" fill="#FFFFFF"></path>
            <rect id="theLeft2" stroke="#7109AA" fill="#E9D9F2" x="22" y="0" width="20" height="19" rx="4"></rect>
            <path d="M28.296,13.192 C29.7573406,12.050661 30.8799961,11.0933372 31.664,10.32 C32.4480039,9.5466628 32.973332,8.90400256 33.24,8.392 C33.506668,7.87999744 33.64,7.34666944 33.64,6.792 C33.64,5.60799408 33.0053397,5.016 31.736,5.016 C30.8399955,5.016 29.821339,5.38399632 28.68,6.12 L28.088,4.328 C28.621336,3.96533152 29.2426631,3.68000104 29.952,3.472 C30.6613369,3.26399896 31.3626632,3.16 32.056,3.16 C33.3040062,3.16 34.2666633,3.46133032 34.944,4.064 C35.6213367,4.66666968 35.96,5.501328 35.96,6.568 C35.96,7.57067168 35.6426698,8.53599536 35.008,9.464 C34.3733302,10.3920046 33.1333426,11.6239923 31.288,13.16 L31.288,13.192 L35.976,13.192 L35.976,15 L28.296,15 L28.296,13.192 Z" id="2" fill="#FFFFFF"></path>
            <rect id="theLeftさ" stroke="#7109AA" fill="#E9D9F2" x="44" y="51" width="20" height="24" rx="4"></rect>
            <path d="M55.744,63.6 L55.76,63.584 C55.3866648,62.8266629 55.0880011,61.9626715 54.864,60.992 C52.3999877,61.0560003 49.9626787,61.088 47.552,61.088 L47.552,59.28 C49.8666782,59.28 52.1973216,59.2480003 54.544,59.184 C54.4586662,58.5333301 54.4000002,57.8933365 54.368,57.264 L56.4,57.136 C56.4320002,57.9040038 56.485333,58.5653306 56.56,59.12 C58.2666752,59.0559997 59.5626622,59.0026669 60.448,58.96 L60.512,60.768 C59.711996,60.8106669 58.5013414,60.8639997 56.88,60.928 C57.2106683,62.26134 57.8293288,63.6373262 58.736,65.056 L56.8,66.032 C55.6479942,65.2639962 54.4106733,64.88 53.088,64.88 C52.2773293,64.88 51.6480022,65.042665 51.2,65.368 C50.7519978,65.693335 50.528,66.1333306 50.528,66.688 C50.528,67.4240037 50.8586634,67.991998 51.52,68.392 C52.1813366,68.792002 53.1679934,68.992 54.48,68.992 C55.6533392,68.992 56.9493262,68.8480014 58.368,68.56 L58.704,70.368 C57.3493266,70.6560014 55.9413406,70.8 54.48,70.8 C52.4319898,70.8 50.9066717,70.4160038 49.904,69.648 C48.9013283,68.8799962 48.4,67.8613397 48.4,66.592 C48.4,65.525328 48.8053293,64.6720032 49.616,64.032 C50.4266707,63.3919968 51.5519928,63.072 52.992,63.072 C53.9306714,63.072 54.8479955,63.2479982 55.744,63.6 Z" id="さ" fill="#FFFFFF"></path>
            <rect id="theLeftか" stroke="#7109AA" fill="#E9D9F2" x="44" y="22" width="20" height="26" rx="4"></rect>
            <path d="M50.672,41 L51.232,39.16 C52.3626723,39.5653354 53.1626643,39.768 53.632,39.768 C53.8133342,39.768 53.9786659,39.634668 54.128,39.368 C54.2773341,39.101332 54.4079994,38.6293367 54.52,37.952 C54.6320006,37.2746633 54.688,36.440005 54.688,35.448 C54.688,34.1679936 54.6320006,33.4213344 54.52,33.208 C54.4079994,32.9946656 54.0053368,32.888 53.312,32.888 L51.648,32.888 C50.9439965,35.896015 49.9840061,38.8933184 48.768,41.88 L46.96,41.24 C48.026672,38.5413198 48.9119965,35.7573477 49.616,32.888 L47.168,32.888 L47.168,31.08 L50.032,31.08 C50.2773346,29.9173275 50.4799992,28.8453382 50.64,27.864 L52.56,28.04 C52.4213326,29.0426717 52.2453344,30.0559949 52.032,31.08 L54.312,31.08 C54.5840014,31.08 54.8853317,31.1119997 55.216,31.176 C55.5466683,31.2400003 55.7733327,31.2933331 55.896,31.336 C56.0186673,31.3786669 56.1626658,31.5013323 56.328,31.704 C56.4933342,31.9066677 56.5919998,32.0879992 56.624,32.248 C56.6560002,32.4080008 56.6986664,32.6933313 56.752,33.104 C56.8053336,33.5146687 56.832,33.890665 56.832,34.232 L56.832,35.768 C56.832,37.8160102 56.5813358,39.3253285 56.08,40.296 C55.5786642,41.2666715 54.9013376,41.752 54.048,41.752 C53.6319979,41.752 53.0986699,41.6800007 52.448,41.536 C51.7973301,41.3919993 51.205336,41.2133344 50.672,41 Z M57.072,30.456 L59.008,29.88 C60.074672,32.5573467 60.9493299,35.2453198 61.632,37.944 L59.664,38.424 C58.9599965,35.6613195 58.0960051,33.0053461 57.072,30.456 Z" id="か" fill="#FFFFFF"></path>
            <rect id="theLeft3" stroke="#7109AA" fill="#E9D9F2" x="44" y="0" width="20" height="19" rx="4"></rect>
            <path d="M50.264,3.32 L57.752,3.32 L57.752,5.128 L54.472,8.104 L54.472,8.136 L54.744,8.136 C55.7253382,8.136 56.4986638,8.4159972 57.064,8.976 C57.6293362,9.5360028 57.912,10.3173283 57.912,11.32 C57.912,12.5466728 57.5386704,13.49333 56.792,14.16 C56.0453296,14.82667 54.9786736,15.16 53.592,15.16 C52.3439938,15.16 51.2080051,14.8773362 50.184,14.312 L50.76,12.552 C51.752005,13.085336 52.6639958,13.352 53.496,13.352 C54.2000035,13.352 54.7439981,13.181335 55.128,12.84 C55.5120019,12.498665 55.704,12.0026699 55.704,11.352 C55.704,10.7546637 55.4880022,10.3253346 55.056,10.064 C54.6239978,9.80266536 53.8640054,9.672 52.776,9.672 L51.816,9.672 L51.816,8.072 L55.016,5.16 L55.016,5.128 L50.264,5.128 L50.264,3.32 Z" id="3" fill="#FFFFFF"></path>
            <rect id="theLeftな" stroke="#7109AA" fill="#E9D9F2" x="66" y="51" width="20" height="24" rx="4"></rect>
            <path d="M82.88,61.312 C81.9946622,61.1626659 81.0773381,61.0720002 80.128,61.04 L80.128,66.176 C81.0560046,66.7520029 82.0799944,67.5519949 83.2,68.576 L81.936,69.984 C81.2959968,69.4293306 80.6613365,68.9013358 80.032,68.4 C79.8719992,69.2640043 79.4933363,69.8986646 78.896,70.304 C78.2986637,70.7093354 77.4613387,70.912 76.384,70.912 C75.1999941,70.912 74.27467,70.6400027 73.608,70.096 C72.94133,69.5519973 72.608,68.8106714 72.608,67.872 C72.608,66.9546621 72.9359967,66.2266694 73.592,65.688 C74.2480033,65.1493306 75.1786606,64.88 76.384,64.88 C76.9280027,64.88 77.4986637,64.9813323 78.096,65.184 L78.096,59.168 C79.9840094,59.168 81.6586594,59.2746656 83.12,59.488 L82.88,61.312 Z M69.072,60.992 L69.072,59.168 L71.808,59.168 C72.0426678,58.2613288 72.2293326,57.5093363 72.368,56.912 L74.288,57.168 C74.1599994,57.7866698 74.000001,58.4533298 73.808,59.168 L76.48,59.168 L76.48,60.992 L73.328,60.992 C72.527996,63.8080141 71.6053386,66.4799874 70.56,69.008 L68.704,68.384 C69.6853382,65.9626546 70.5493296,63.4986792 71.296,60.992 L69.072,60.992 Z M78.096,67.088 C77.4666635,66.7679984 76.8960026,66.608 76.384,66.608 C75.7973304,66.608 75.3573348,66.7199989 75.064,66.944 C74.7706652,67.1680011 74.624,67.4773314 74.624,67.872 C74.624,68.2880021 74.7786651,68.6133322 75.088,68.848 C75.3973349,69.0826678 75.8293306,69.2 76.384,69.2 C77.0346699,69.2 77.4826654,69.066668 77.728,68.8 C77.9733346,68.533332 78.096,68.0266704 78.096,67.28 L78.096,67.088 Z" id="な" fill="#FFFFFF"></path>
            <rect id="theLeftた" stroke="#7109AA" fill="#E9D9F2" x="66" y="22" width="20" height="26" rx="4"></rect>
            <path d="M82.208,34.792 C79.9359886,34.792 77.7813435,34.9146654 75.744,35.16 L75.616,33.368 C77.7066771,33.1226654 79.9039885,33 82.208,33 L82.208,34.792 Z M82.336,39.512 L82.576,41.32 C81.434661,41.5333344 80.3093389,41.64 79.2,41.64 C77.7279926,41.64 76.5520044,41.3706694 75.672,40.832 C74.7919956,40.2933306 74.352,39.6026709 74.352,38.76 C74.352,37.9386626 74.885328,37.1120042 75.952,36.28 L77.408,37.208 C76.9919979,37.5600018 76.7146674,37.8293324 76.576,38.016 C76.4373326,38.2026676 76.368,38.3813325 76.368,38.552 C76.368,38.9253352 76.6213308,39.2319988 77.128,39.472 C77.6346692,39.7120012 78.325329,39.832 79.2,39.832 C80.1493381,39.832 81.194661,39.7253344 82.336,39.512 Z M69.6,31.72 L69.6,29.912 L72.144,29.912 C72.2933341,29.0586624 72.405333,28.4133355 72.48,27.976 L74.512,28.152 C74.3839994,28.9413373 74.282667,29.5279981 74.208,29.912 L79.792,29.912 L79.792,31.72 L73.856,31.72 C73.1413298,35.2826845 72.2346722,38.6853171 71.136,41.928 L69.12,41.464 C70.2080054,38.2746507 71.0933299,35.0266832 71.776,31.72 L69.6,31.72 Z" id="た" fill="#FFFFFF"></path>
            <rect id="theLeft4" stroke="#7109AA" fill="#E9D9F2" x="66" y="0" width="20" height="19" rx="4"></rect>
            <path d="M76.488,10.84 L76.488,6.248 L76.456,6.248 L73.288,10.808 L73.288,10.84 L76.488,10.84 Z M78.648,10.84 L80.44,10.84 L80.44,12.6 L78.648,12.6 L78.648,15 L76.488,15 L76.488,12.6 L71.208,12.6 L71.208,10.84 L76.488,3.32 L78.648,3.32 L78.648,10.84 Z" id="4" fill="#FFFFFF"></path>
            <rect id="theLeftKagikakko" stroke="#7109AA" fill="#E9D9F2" x="76" y="81" width="20" height="24" rx="4"></rect>
            <polygon id="「" fill="#FFFFFF" points="85.352 98.992 83.32 98.992 83.32 86.768 89.992 86.768 89.992 88.48 85.352 88.48"></polygon>
            <rect id="the漢" stroke="#7109AA" fill="#E9D9F2" x="54" y="81" width="20" height="24" rx="4"></rect>
            <path d="M64.8,89.096 L67.312,89.096 L67.312,88.472 L64.8,88.472 L64.8,89.096 Z M64.928,95.016 L60.624,95.016 C60.5386662,95.3146682 60.4693336,95.5386659 60.416,95.688 L64.864,95.688 C64.9066669,95.4533322 64.928,95.2666674 64.928,95.128 L64.928,95.016 Z M64.96,90.392 L63.12,90.392 L63.12,91.608 L64.96,91.608 L64.96,90.392 Z M67.04,90.392 L67.04,91.608 L68.864,91.608 L68.864,90.392 L67.04,90.392 Z M59.2,93.464 C58.2826621,92.6106624 57.2960053,91.7946706 56.24,91.016 L57.424,89.592 C58.3413379,90.2426699 59.3279947,91.0479952 60.384,92.008 L59.2,93.464 Z M71.152,86.84 L71.152,88.472 L69.232,88.472 L69.232,89.096 L70.848,89.096 L70.848,92.888 L67.056,92.888 L67.056,93.448 L71.04,93.448 L71.04,95.016 L67.056,95.016 L67.056,95.128 C67.056,95.320001 67.0719998,95.5066658 67.104,95.688 L71.248,95.688 L71.248,97.304 L68.016,97.304 C68.6986701,97.9333365 69.8239922,98.4399981 71.392,98.824 L70.64,100.488 C69.7119954,100.295999 68.8400041,99.9306694 68.024,99.392 C67.2079959,98.8533306 66.5493358,98.2266702 66.048,97.512 C65.4613304,98.2266702 64.7093379,98.8559973 63.792,99.4 C62.8746621,99.9440027 61.9040051,100.306666 60.88,100.488 L60.096,98.872 C61.8133419,98.5093315 63.071996,97.9866701 63.872,97.304 L60.256,97.304 L60.256,96.184 C59.7013306,97.784008 59.0293373,99.1866606 58.24,100.392 L56.544,99.32 C57.4933381,97.8266592 58.2773302,96.146676 58.896,94.28 L60.48,94.904 L60.48,93.448 L64.928,93.448 L64.928,92.888 L61.2,92.888 L61.2,89.096 L62.88,89.096 L62.88,88.472 L60.528,88.472 L59.536,89.672 C58.7573294,88.9573298 57.872005,88.2320037 56.88,87.496 L58.064,86.072 C58.8853374,86.6693363 59.6799962,87.2986634 60.448,87.96 L60.448,86.84 L62.88,86.84 L62.88,85.768 L64.8,85.768 L64.8,86.84 L67.312,86.84 L67.312,85.768 L69.232,85.768 L69.232,86.84 L71.152,86.84 Z" id="漢" fill="#FFFFFF"></path>
        </g>
    </g>
</svg>