<?xml version="1.0" encoding="UTF-8" standalone="no"?>
<svg
   width="204"
   height="100"
   viewBox="0 0 204 100"
   fill="none"
   version="1.1"
   id="svg25"
   xml:space="preserve"
   xmlns="http://www.w3.org/2000/svg"
   xmlns:svg="http://www.w3.org/2000/svg"><defs
     id="defs25" /><g
     id="lapwing"><rect
       id="numberBarKey"
       x="3.5"
       y="13.5"
       width="17"
       height="19"
       rx="3.5"
       fill="#e9d9f2"
       stroke="#7109aa" /><rect
       id="leftSKey"
       x="3.5"
       y="37.5"
       width="17"
       height="19"
       rx="3.5"
       fill="#e9d9f2"
       stroke="#7109aa" /><rect
       id="leftTKey"
       x="23.5"
       y="13.5"
       width="17"
       height="19"
       rx="3.5"
       fill="#e9d9f2"
       stroke="#7109aa" /><rect
       id="leftKKey"
       x="23.5"
       y="37.5"
       width="17"
       height="19"
       rx="3.5"
       fill="#e9d9f2"
       stroke="#7109aa" /><rect
       id="leftPKey"
       x="43.5"
       y="13.5"
       width="17"
       height="19"
       rx="3.5"
       fill="#e9d9f2"
       stroke="#7109aa" /><rect
       id="leftWKey"
       x="43.5"
       y="37.5"
       width="17"
       height="19"
       rx="3.5"
       fill="#e9d9f2"
       stroke="#7109aa" /><rect
       id="leftHKey"
       x="63.5"
       y="13.5"
       width="17"
       height="19"
       rx="3.5"
       fill="#e9d9f2"
       stroke="#7109aa" /><rect
       id="leftRKey"
       x="63.5"
       y="37.5"
       width="17"
       height="19"
       rx="3.5"
       fill="#e9d9f2"
       stroke="#7109aa" /><rect
       id="leftAKey"
       x="43.5"
       y="63.5"
       width="17"
       height="19"
       rx="3.5"
       fill="#e9d9f2"
       stroke="#7109aa" /><rect
       id="leftOKey"
       x="63.5"
       y="63.5"
       width="17"
       height="19"
       rx="3.5"
       fill="#e9d9f2"
       stroke="#7109aa" /><rect
       id="starKey"
       x="83.5"
       y="13.5"
       width="17"
       height="43"
       rx="3.5"
       fill="#e9d9f2"
       stroke="#7109aa" /><rect
       id="rightEKey"
       x="103.5"
       y="63.5"
       width="17"
       height="19"
       rx="3.5"
       fill="#e9d9f2"
       stroke="#7109aa" /><rect
       id="rightUKey"
       x="123.5"
       y="63.5"
       width="17"
       height="19"
       rx="3.5"
       fill="#e9d9f2"
       stroke="#7109aa" /><rect
       id="rightFKey"
       x="103.5"
       y="13.5"
       width="17"
       height="19"
       rx="3.5"
       fill="#e9d9f2"
       stroke="#7109aa" /><rect
       id="rightRKey"
       x="103.5"
       y="37.5"
       width="17"
       height="19"
       rx="3.5"
       fill="#e9d9f2"
       stroke="#7109aa" /><rect
       id="rightPKey"
       x="123.5"
       y="13.5"
       width="17"
       height="19"
       rx="3.5"
       fill="#e9d9f2"
       stroke="#7109aa" /><rect
       id="rightBKey"
       x="123.5"
       y="37.5"
       width="17"
       height="19"
       rx="3.5"
       fill="#e9d9f2"
       stroke="#7109aa" /><rect
       id="rightLKey"
       x="143.5"
       y="13.5"
       width="17"
       height="19"
       rx="3.5"
       fill="#e9d9f2"
       stroke="#7109aa" /><rect
       id="rightGKey"
       x="143.5"
       y="37.5"
       width="17"
       height="19"
       rx="3.5"
       fill="#e9d9f2"
       stroke="#7109aa" /><rect
       id="rightTKey"
       x="163.5"
       y="13.5"
       width="17"
       height="19"
       rx="3.5"
       fill="#e9d9f2"
       stroke="#7109aa" /><rect
       id="rightSKey"
       x="163.5"
       y="37.5"
       width="17"
       height="19"
       rx="3.5"
       fill="#e9d9f2"
       stroke="#7109aa" /><rect
       id="rightDKey"
       x="183.5"
       y="13.5"
       width="17"
       height="19"
       rx="3.5"
       fill="#e9d9f2"
       stroke="#7109aa" /><rect
       id="rightZKey"
       x="183.5"
       y="37.5"
       width="17"
       height="19"
       rx="3.5"
       fill="#e9d9f2"
       stroke="#7109aa" /><path
       d="M 8.512,28.084 8.976,25.068 H 7.16 L 7.392,23.62 h 1.8 L 9.56,21.108 H 7.808 l 0.216,-1.432 h 1.768 l 0.416,-2.792 h 1.496 l -0.416,2.792 h 2.08 l 0.448,-2.792 h 1.48 l -0.416,2.792 h 1.816 l -0.208,1.432 h -1.824 l -0.392,2.512 h 1.776 l -0.216,1.448 H 14.056 L 13.6,28.084 h -1.496 l 0.456,-3.016 h -2.088 l -0.464,3.016 z m 2.176,-4.464 h 2.088 l 0.376,-2.512 h -2.08 z"
       id="numberBar"
       style="font-weight:600;font-size:16px;font-family:'Overpass Mono';letter-spacing:0em;white-space:pre;fill:#ffffff"
       aria-label="#" /><path
       d="m 12.04,52.276 q -0.896,0 -1.664,-0.344 Q 9.608,51.58 9.04,50.972 8.48,50.356 8.208,49.548 l 1.56,-0.576 q 0.344,0.76 0.984,1.232 0.64,0.472 1.408,0.472 0.776,0 1.256,-0.408 0.48,-0.408 0.48,-1.184 0,-0.512 -0.32,-0.904 -0.32,-0.392 -0.84,-0.696 Q 12.216,47.172 11.616,46.9 11.08,46.676 10.544,46.388 10.016,46.1 9.568,45.716 9.128,45.324 8.856,44.796 8.584,44.268 8.584,43.564 q 0,-0.784 0.4,-1.432 0.408,-0.656 1.152,-1.048 0.752,-0.392 1.776,-0.392 1.224,0 2.088,0.64 0.872,0.632 1.144,1.592 l -1.544,0.52 q -0.224,-0.488 -0.672,-0.824 -0.448,-0.336 -1.104,-0.336 -0.656,0 -1.088,0.336 -0.424,0.336 -0.424,0.912 0,0.424 0.256,0.736 0.264,0.304 0.736,0.568 0.472,0.264 1.128,0.568 0.528,0.248 1.088,0.56 0.56,0.312 1.04,0.736 0.48,0.416 0.768,0.984 0.296,0.568 0.296,1.32 0,1.048 -0.488,1.776 -0.488,0.728 -1.304,1.112 -0.816,0.384 -1.792,0.384 z"
       id="leftS"
       style="font-weight:600;font-size:16px;font-family:'Overpass Mono';letter-spacing:0em;white-space:pre;fill:#ffffff"
       aria-label="S" /><path
       d="m 31.072,28.084 v -9.568 h -3.24 v -1.632 h 8.192 v 1.632 h -3.248 v 9.568 z"
       id="leftT"
       style="font-weight:600;font-size:16px;font-family:'Overpass Mono';letter-spacing:0em;white-space:pre;fill:#ffffff"
       aria-label="T" /><path
       d="m 29.776,48.044 v -2.36 l 3.752,-4.8 h 1.984 z m -1.44,4.04 v -11.2 h 1.712 v 11.2 z m 5.92,0 -3.208,-6.048 1.152,-1.44 4.04,7.488 z"
       id="leftK"
       style="font-weight:600;font-size:16px;font-family:'Overpass Mono';letter-spacing:0em;white-space:pre;fill:#ffffff"
       aria-label="K" /><path
       d="m 48.336,28.084 v -11.2 h 3.768 q 1.376,0 2.184,0.504 0.808,0.504 1.16,1.296 0.352,0.784 0.352,1.624 0,0.592 -0.208,1.2 -0.2,0.6 -0.648,1.104 -0.44,0.504 -1.144,0.816 -0.696,0.304 -1.696,0.304 h -2.056 v 4.352 z M 50.048,22.14 H 52.2 q 0.688,0 1.096,-0.272 0.416,-0.28 0.6,-0.696 0.184,-0.424 0.184,-0.864 0,-0.392 -0.168,-0.816 -0.16,-0.424 -0.568,-0.72 -0.408,-0.296 -1.144,-0.296 h -2.152 z"
       id="leftP"
       style="font-weight:600;font-size:16px;font-family:'Overpass Mono';letter-spacing:0em;white-space:pre;fill:#ffffff"
       aria-label="P" /><path
       d="m 49.056,52.084 -1.688,-11.2 h 1.56 l 0.936,6.944 q 0.016,0.128 0.048,0.36 0.04,0.224 0.056,0.392 0.024,-0.152 0.064,-0.376 0.048,-0.232 0.08,-0.392 l 1.32,-6.928 h 1 l 1.336,6.88 q 0.04,0.192 0.072,0.376 0.04,0.184 0.064,0.36 0.032,-0.216 0.056,-0.384 0.024,-0.168 0.048,-0.336 l 0.832,-6.896 h 1.656 l -1.704,11.2 h -1.36 l -1.376,-7.04 q -0.048,-0.208 -0.08,-0.4 -0.032,-0.192 -0.056,-0.384 -0.024,0.192 -0.056,0.376 -0.032,0.184 -0.072,0.392 l -1.376,7.056 z"
       id="leftW"
       style="font-weight:600;font-size:16px;font-family:'Overpass Mono';letter-spacing:0em;white-space:pre;fill:#ffffff"
       aria-label="W" /><path
       d="m 68.336,28.084 v -11.2 h 1.712 v 4.608 h 3.768 v -4.608 h 1.704 v 11.2 H 73.816 V 23.1 h -3.768 v 4.984 z"
       id="leftH"
       style="font-weight:600;font-size:16px;font-family:'Overpass Mono';letter-spacing:0em;white-space:pre;fill:#ffffff"
       aria-label="H" /><path
       d="m 68.336,52.084 v -11.2 h 3.712 q 1.368,0 2.152,0.472 0.792,0.472 1.12,1.232 0.336,0.76 0.336,1.608 0,0.6 -0.2,1.184 -0.192,0.576 -0.608,1.048 -0.408,0.472 -1.048,0.768 -0.64,0.296 -1.52,0.344 h -2.232 v 4.544 z m 5.4,0 -2.344,-4.768 1.816,-0.168 2.424,4.936 z m -3.688,-6.136 h 2.032 q 0.704,0 1.104,-0.248 0.408,-0.256 0.576,-0.648 0.168,-0.392 0.168,-0.832 0,-0.392 -0.16,-0.792 -0.16,-0.408 -0.56,-0.68 -0.4,-0.272 -1.128,-0.272 h -2.032 z"
       id="leftR"
       style="font-weight:600;font-size:16px;font-family:'Overpass Mono';letter-spacing:0em;white-space:pre;fill:#ffffff"
       aria-label="R" /><path
       d="m 47.472,78.084 3.672,-11.2 h 1.56 l 3.68,11.2 h -1.816 l -2.36,-7.736 q -0.032,-0.112 -0.088,-0.32 -0.056,-0.216 -0.112,-0.448 -0.056,-0.232 -0.08,-0.416 -0.04,0.184 -0.096,0.416 -0.048,0.232 -0.104,0.448 -0.048,0.208 -0.08,0.32 l -2.344,7.736 z m 2.2,-2.576 0.472,-1.544 h 3.568 l 0.472,1.544 z"
       id="leftA"
       style="font-weight:600;font-size:16px;font-family:'Overpass Mono';letter-spacing:0em;white-space:pre;fill:#ffffff"
       aria-label="A" /><path
       d="m 71.928,78.276 q -1.096,0 -1.872,-0.48 -0.776,-0.488 -1.264,-1.312 -0.488,-0.824 -0.72,-1.856 -0.224,-1.04 -0.224,-2.144 0,-1.104 0.224,-2.136 0.232,-1.04 0.72,-1.864 0.488,-0.824 1.264,-1.304 0.776,-0.488 1.872,-0.488 1.096,0 1.872,0.488 0.784,0.48 1.272,1.304 0.488,0.824 0.72,1.864 0.232,1.032 0.232,2.136 0,1.104 -0.232,2.144 -0.232,1.032 -0.72,1.856 -0.488,0.824 -1.272,1.312 -0.776,0.48 -1.872,0.48 z m 0,-1.608 q 0.616,0 1.056,-0.36 0.44,-0.36 0.712,-0.96 0.28,-0.6 0.408,-1.344 0.136,-0.752 0.136,-1.52 0,-0.832 -0.136,-1.576 -0.128,-0.752 -0.4,-1.336 -0.272,-0.592 -0.712,-0.928 -0.44,-0.344 -1.064,-0.344 -0.616,0 -1.056,0.36 -0.44,0.352 -0.72,0.952 -0.272,0.6 -0.408,1.352 -0.128,0.744 -0.128,1.52 0,0.824 0.128,1.576 0.136,0.744 0.408,1.336 0.28,0.592 0.72,0.936 0.44,0.336 1.056,0.336 z"
       id="leftO"
       style="font-weight:600;font-size:16px;font-family:'Overpass Mono';letter-spacing:0em;white-space:pre;fill:#ffffff"
       aria-label="O" /><path
       d="m 90.52,38.660001 -1.28,-0.872 1,-1.504 0.848,-0.76 -1.144,0.256 h -1.728 v -1.568 h 1.728 l 1.144,0.264 -0.848,-0.76 -0.992,-1.512 1.28,-0.864 1.128,1.664 0.272,1.056 0.28,-1.056 1.128,-1.664 1.28,0.864 -1,1.512 -0.848,0.76 1.152,-0.264 h 1.736 v 1.568 H 93.92 l -1.152,-0.256 0.848,0.76 1,1.504 -1.28,0.872 -1.128,-1.664 -0.28,-1.056 -0.28,1.056 z"
       id="star"
       style="font-weight:600;font-size:16px;font-family:'Overpass Mono';letter-spacing:0em;white-space:pre;fill:#ffffff"
       aria-label="*" /><path
       d="m 108.336,78.084 v -11.2 h 6.952 v 1.624 h -5.24 v 2.976 h 3.472 v 1.624 h -3.472 v 3.352 h 5.576 v 1.624 z"
       id="rightE"
       style="font-weight:600;font-size:16px;font-family:'Overpass Mono';letter-spacing:0em;white-space:pre;fill:#ffffff"
       aria-label="E" /><path
       d="m 131.928,78.276 q -1.032,0 -1.872,-0.424 -0.84,-0.432 -1.344,-1.408 -0.496,-0.976 -0.496,-2.624 v -6.936 h 1.696 v 6.936 q 0,1.12 0.264,1.736 0.272,0.616 0.728,0.864 0.456,0.248 1.024,0.248 0.56,0 1.016,-0.248 0.464,-0.248 0.728,-0.864 0.272,-0.616 0.272,-1.736 v -6.936 h 1.712 v 6.936 q 0,1.632 -0.496,2.608 -0.496,0.976 -1.344,1.416 -0.848,0.432 -1.888,0.432 z"
       id="rightU"
       style="font-weight:600;font-size:16px;font-family:'Overpass Mono';letter-spacing:0em;white-space:pre;fill:#ffffff"
       aria-label="U" /><path
       d="m 108.336,28.084 v -11.2 h 7.352 v 1.624 h -5.64 v 2.976 h 4.048 v 1.624 h -4.048 v 4.976 z"
       id="rightF"
       style="font-weight:600;font-size:16px;font-family:'Overpass Mono';letter-spacing:0em;white-space:pre;fill:#ffffff"
       aria-label="F" /><path
       d="m 108.336,52.084 v -11.2 h 3.712 q 1.368,0 2.152,0.472 0.792,0.472 1.12,1.232 0.336,0.76 0.336,1.608 0,0.6 -0.2,1.184 -0.192,0.576 -0.608,1.048 -0.408,0.472 -1.048,0.768 -0.64,0.296 -1.52,0.344 h -2.232 v 4.544 z m 5.4,0 -2.344,-4.768 1.816,-0.168 2.424,4.936 z m -3.688,-6.136 h 2.032 q 0.704,0 1.104,-0.248 0.408,-0.256 0.576,-0.648 0.168,-0.392 0.168,-0.832 0,-0.392 -0.16,-0.792 -0.16,-0.408 -0.56,-0.68 -0.4,-0.272 -1.128,-0.272 h -2.032 z"
       id="rightR"
       style="font-weight:600;font-size:16px;font-family:'Overpass Mono';letter-spacing:0em;white-space:pre;fill:#ffffff"
       aria-label="R" /><path
       d="m 128.336,28.084 v -11.2 h 3.768 q 1.376,0 2.184,0.504 0.808,0.504 1.16,1.296 0.352,0.784 0.352,1.624 0,0.592 -0.208,1.2 -0.2,0.6 -0.648,1.104 -0.44,0.504 -1.144,0.816 -0.696,0.304 -1.696,0.304 h -2.056 v 4.352 z m 1.712,-5.944 h 2.152 q 0.688,0 1.096,-0.272 0.416,-0.28 0.6,-0.696 0.184,-0.424 0.184,-0.864 0,-0.392 -0.168,-0.816 -0.16,-0.424 -0.568,-0.72 -0.408,-0.296 -1.144,-0.296 h -2.152 z"
       id="rightP"
       style="font-weight:600;font-size:16px;font-family:'Overpass Mono';letter-spacing:0em;white-space:pre;fill:#ffffff"
       aria-label="P" /><path
       d="m 128.336,52.084 v -11.2 h 3.568 q 1.344,0 2.12,0.432 0.776,0.432 1.096,1.12 0.328,0.68 0.328,1.424 0,0.768 -0.392,1.384 -0.384,0.608 -1.144,0.936 0.928,0.288 1.424,1.016 0.496,0.728 0.496,1.64 0,0.584 -0.192,1.16 -0.184,0.576 -0.616,1.048 -0.424,0.472 -1.128,0.76 -0.704,0.28 -1.752,0.28 z m 1.712,-1.576 h 2.24 q 0.728,0 1.128,-0.24 0.408,-0.248 0.568,-0.624 0.16,-0.376 0.16,-0.768 0,-0.464 -0.192,-0.88 -0.184,-0.416 -0.696,-0.68 -0.504,-0.264 -1.448,-0.264 h -1.76 z m 0,-5.008 h 1.592 q 1.072,0 1.592,-0.424 0.528,-0.424 0.528,-1.128 0,-0.36 -0.144,-0.704 -0.136,-0.344 -0.528,-0.568 -0.384,-0.224 -1.128,-0.224 h -1.912 z"
       id="rightB"
       style="font-weight:600;font-size:16px;font-family:'Overpass Mono';letter-spacing:0em;white-space:pre;fill:#ffffff"
       aria-label="B" /><path
       d="m 148.336,28.084 v -11.2 h 1.712 v 9.56 h 5.224 v 1.64 z"
       id="rightL"
       style="font-weight:600;font-size:16px;font-family:'Overpass Mono';letter-spacing:0em;white-space:pre;fill:#ffffff"
       aria-label="L" /><path
       d="m 152.136,52.276 q -1.112,0 -1.928,-0.48 -0.808,-0.488 -1.328,-1.312 -0.512,-0.832 -0.768,-1.864 -0.248,-1.04 -0.248,-2.136 0,-1.072 0.256,-2.104 0.264,-1.032 0.792,-1.864 0.528,-0.832 1.328,-1.328 0.808,-0.496 1.896,-0.496 0.928,0 1.552,0.312 0.632,0.304 1.048,0.8 0.424,0.488 0.728,1.032 l -1.512,0.864 q -0.296,-0.56 -0.72,-0.976 -0.424,-0.424 -1.096,-0.424 -0.688,0 -1.168,0.384 -0.472,0.376 -0.768,1 -0.296,0.624 -0.432,1.36 -0.128,0.736 -0.128,1.44 0,0.8 0.144,1.552 0.152,0.744 0.456,1.344 0.304,0.592 0.776,0.944 0.472,0.344 1.12,0.344 0.912,0 1.392,-0.632 0.48,-0.64 0.48,-1.624 V 48.06 h -1.976 v -1.592 h 3.736 v 1.472 q 0,1.408 -0.48,2.376 -0.48,0.968 -1.304,1.464 -0.824,0.496 -1.848,0.496 z"
       id="rightG"
       style="font-weight:600;font-size:16px;font-family:'Overpass Mono';letter-spacing:0em;white-space:pre;fill:#ffffff"
       aria-label="G" /><path
       d="m 171.072,28.084 v -9.568 h -3.24 v -1.632 h 8.192 v 1.632 h -3.248 v 9.568 z"
       id="rightT"
       style="font-weight:600;font-size:16px;font-family:'Overpass Mono';letter-spacing:0em;white-space:pre;fill:#ffffff"
       aria-label="T" /><path
       d="m 172.04,52.276 q -0.896,0 -1.664,-0.344 -0.768,-0.352 -1.336,-0.96 -0.56,-0.616 -0.832,-1.424 l 1.56,-0.576 q 0.344,0.76 0.984,1.232 0.64,0.472 1.408,0.472 0.776,0 1.256,-0.408 0.48,-0.408 0.48,-1.184 0,-0.512 -0.32,-0.904 -0.32,-0.392 -0.84,-0.696 -0.52,-0.312 -1.12,-0.584 -0.536,-0.224 -1.072,-0.512 -0.528,-0.288 -0.976,-0.672 -0.44,-0.392 -0.712,-0.92 -0.272,-0.528 -0.272,-1.232 0,-0.784 0.4,-1.432 0.408,-0.656 1.152,-1.048 0.752,-0.392 1.776,-0.392 1.224,0 2.088,0.64 0.872,0.632 1.144,1.592 l -1.544,0.52 q -0.224,-0.488 -0.672,-0.824 -0.448,-0.336 -1.104,-0.336 -0.656,0 -1.088,0.336 -0.424,0.336 -0.424,0.912 0,0.424 0.256,0.736 0.264,0.304 0.736,0.568 0.472,0.264 1.128,0.568 0.528,0.248 1.088,0.56 0.56,0.312 1.04,0.736 0.48,0.416 0.768,0.984 0.296,0.568 0.296,1.32 0,1.048 -0.488,1.776 -0.488,0.728 -1.304,1.112 -0.816,0.384 -1.792,0.384 z"
       id="rightS"
       style="font-weight:600;font-size:16px;font-family:'Overpass Mono';letter-spacing:0em;white-space:pre;fill:#ffffff"
       aria-label="S" /><path
       d="m 188.336,28.084 v -11.2 h 2.744 q 1.36,0 2.296,0.48 0.944,0.472 1.528,1.28 0.584,0.8 0.848,1.8 0.272,0.992 0.272,2.04 0,0.96 -0.256,1.944 -0.248,0.984 -0.824,1.816 -0.576,0.832 -1.536,1.336 -0.96,0.504 -2.392,0.504 z m 1.704,-1.6 h 1.12 q 0.872,0 1.464,-0.352 0.6,-0.36 0.952,-0.944 0.352,-0.592 0.504,-1.296 0.16,-0.704 0.16,-1.408 0,-0.752 -0.168,-1.464 -0.16,-0.712 -0.512,-1.288 -0.344,-0.576 -0.896,-0.912 -0.552,-0.344 -1.328,-0.344 h -1.296 z"
       id="rightD"
       style="font-weight:600;font-size:16px;font-family:'Overpass Mono';letter-spacing:0em;white-space:pre;fill:#ffffff"
       aria-label="D" /><path
       d="m 188.216,52.084 v -1.28 l 5.656,-9.008 0.376,0.696 h -5.672 v -1.608 h 7.088 v 1.28 l -5.696,8.992 -0.352,-0.696 h 6.016 v 1.624 z"
       id="rightZ"
       style="font-weight:600;font-size:16px;font-family:'Overpass Mono';letter-spacing:0em;white-space:pre;fill:#ffffff"
       aria-label="Z" /></g></svg>
