<svg width="204" height="100" viewBox="0 0 204 100" fill="none" xmlns="http://www.w3.org/2000/svg">
<g id="no-number-bar-inner-thumb-numbers">
<rect id="numberBarKey" x="83.5" y="63.5" width="17" height="19" rx="3.5" fill="#E9D9F2" stroke="#7109AA"/>
<rect id="leftSUpperKey" x="3.5" y="13.5" width="17" height="19" rx="3.5" fill="#E9D9F2" stroke="#7109AA"/>
<rect id="leftSLowerKey" x="3.5" y="37.5" width="17" height="19" rx="3.5" fill="#E9D9F2" stroke="#7109AA"/>
<rect id="leftTKey" x="23.5" y="13.5" width="17" height="19" rx="3.5" fill="#E9D9F2" stroke="#7109AA"/>
<rect id="leftKKey" x="23.5" y="37.5" width="17" height="19" rx="3.5" fill="#E9D9F2" stroke="#7109AA"/>
<rect id="leftPKey" x="43.5" y="13.5" width="17" height="19" rx="3.5" fill="#E9D9F2" stroke="#7109AA"/>
<rect id="leftWKey" x="43.5" y="37.5" width="17" height="19" rx="3.5" fill="#E9D9F2" stroke="#7109AA"/>
<rect id="leftHKey" x="63.5" y="13.5" width="17" height="19" rx="3.5" fill="#E9D9F2" stroke="#7109AA"/>
<rect id="leftRKey" x="63.5" y="37.5" width="17" height="19" rx="3.5" fill="#E9D9F2" stroke="#7109AA"/>
<rect id="leftAKey" x="43.5" y="63.5" width="17" height="19" rx="3.5" fill="#E9D9F2" stroke="#7109AA"/>
<rect id="leftOKey" x="63.5" y="63.5" width="17" height="19" rx="3.5" fill="#E9D9F2" stroke="#7109AA"/>
<rect id="starUpperKey" x="83.5" y="13.5" width="17" height="19" rx="3.5" fill="#E9D9F2" stroke="#7109AA"/>
<rect id="starLowerKey" x="83.5" y="37.5" width="17" height="19" rx="3.5" fill="#E9D9F2" stroke="#7109AA"/>
<rect id="rightEKey" x="103.5" y="63.5" width="17" height="19" rx="3.5" fill="#E9D9F2" stroke="#7109AA"/>
<rect id="rightUKey" x="123.5" y="63.5" width="17" height="19" rx="3.5" fill="#E9D9F2" stroke="#7109AA"/>
<rect id="rightFKey" x="103.5" y="13.5" width="17" height="19" rx="3.5" fill="#E9D9F2" stroke="#7109AA"/>
<rect id="rightRKey" x="103.5" y="37.5" width="17" height="19" rx="3.5" fill="#E9D9F2" stroke="#7109AA"/>
<rect id="rightPKey" x="123.5" y="13.5" width="17" height="19" rx="3.5" fill="#E9D9F2" stroke="#7109AA"/>
<rect id="rightBKey" x="123.5" y="37.5" width="17" height="19" rx="3.5" fill="#E9D9F2" stroke="#7109AA"/>
<rect id="rightLKey" x="143.5" y="13.5" width="17" height="19" rx="3.5" fill="#E9D9F2" stroke="#7109AA"/>
<rect id="rightGKey" x="143.5" y="37.5" width="17" height="19" rx="3.5" fill="#E9D9F2" stroke="#7109AA"/>
<rect id="rightTKey" x="163.5" y="13.5" width="17" height="19" rx="3.5" fill="#E9D9F2" stroke="#7109AA"/>
<rect id="rightSKey" x="163.5" y="37.5" width="17" height="19" rx="3.5" fill="#E9D9F2" stroke="#7109AA"/>
<rect id="rightDKey" x="183.5" y="13.5" width="17" height="19" rx="3.5" fill="#E9D9F2" stroke="#7109AA"/>
<rect id="rightZKey" x="183.5" y="37.5" width="17" height="19" rx="3.5" fill="#E9D9F2" stroke="#7109AA"/>
<path id="numberBar" d="M88.5518 78L89.0158 74.96H87.1758L87.3998 73.552H89.2238L89.6078 71.008H87.8318L88.0398 69.616H89.8158L90.2478 66.8H91.7038L91.2718 69.616H93.3838L93.8158 66.8H95.2718L94.8398 69.616H96.6798L96.4718 71.008H94.6318L94.2318 73.552H96.0238L95.7998 74.96H94.0238L93.5598 78H92.1038L92.5678 74.96H90.4718L90.0078 78H88.5518ZM90.6798 73.552H92.7758L93.1758 71.008H91.0638L90.6798 73.552Z" fill="white"/>
<path id="leftSUpper" d="M12.04 28.192C11.1547 28.192 10.3707 27.9467 9.68805 27.456C9.00538 26.9547 8.52538 26.3093 8.24805 25.52L9.76805 24.96C9.99205 25.472 10.312 25.8827 10.728 26.192C11.1547 26.5013 11.6294 26.656 12.152 26.656C12.696 26.656 13.1227 26.512 13.432 26.224C13.752 25.936 13.912 25.52 13.912 24.976C13.912 24.496 13.7094 24.0853 13.304 23.744C12.8987 23.392 12.344 23.0613 11.64 22.752C11.192 22.56 10.8294 22.384 10.552 22.224C10.2747 22.064 9.96538 21.8507 9.62405 21.584C9.28271 21.3173 9.02671 21.008 8.85605 20.656C8.69605 20.304 8.61605 19.904 8.61605 19.456C8.61605 18.656 8.91471 17.984 9.51205 17.44C10.12 16.8853 10.92 16.608 11.912 16.608C12.7014 16.608 13.3787 16.8107 13.944 17.216C14.52 17.6213 14.8987 18.144 15.08 18.784L13.592 19.28C13.4427 18.9493 13.2134 18.6773 12.904 18.464C12.6054 18.24 12.248 18.128 11.832 18.128C11.3734 18.128 11 18.2507 10.712 18.496C10.424 18.7307 10.28 19.0507 10.28 19.456C10.28 19.6693 10.328 19.8613 10.424 20.032C10.5307 20.2027 10.696 20.368 10.92 20.528C11.144 20.6773 11.3467 20.8 11.528 20.896C11.7094 20.9813 11.976 21.104 12.328 21.264C12.3494 21.2747 12.3654 21.2853 12.376 21.296C12.3867 21.296 12.4027 21.3013 12.424 21.312C12.4454 21.312 12.4614 21.3173 12.472 21.328C12.8987 21.5307 13.2614 21.7227 13.56 21.904C13.8587 22.0747 14.1787 22.304 14.52 22.592C14.8614 22.88 15.1227 23.2213 15.304 23.616C15.4854 24.0107 15.576 24.448 15.576 24.928C15.576 25.9307 15.24 26.7253 14.568 27.312C13.896 27.8987 13.0534 28.192 12.04 28.192Z" fill="white"/>
<path id="leftSLower" d="M12.04 52.192C11.1547 52.192 10.3707 51.9467 9.68805 51.456C9.00538 50.9547 8.52538 50.3093 8.24805 49.52L9.76805 48.96C9.99205 49.472 10.312 49.8827 10.728 50.192C11.1547 50.5013 11.6294 50.656 12.152 50.656C12.696 50.656 13.1227 50.512 13.432 50.224C13.752 49.936 13.912 49.52 13.912 48.976C13.912 48.496 13.7094 48.0853 13.304 47.744C12.8987 47.392 12.344 47.0613 11.64 46.752C11.192 46.56 10.8294 46.384 10.552 46.224C10.2747 46.064 9.96538 45.8507 9.62405 45.584C9.28271 45.3173 9.02671 45.008 8.85605 44.656C8.69605 44.304 8.61605 43.904 8.61605 43.456C8.61605 42.656 8.91471 41.984 9.51205 41.44C10.12 40.8853 10.92 40.608 11.912 40.608C12.7014 40.608 13.3787 40.8107 13.944 41.216C14.52 41.6213 14.8987 42.144 15.08 42.784L13.592 43.28C13.4427 42.9493 13.2134 42.6773 12.904 42.464C12.6054 42.24 12.248 42.128 11.832 42.128C11.3734 42.128 11 42.2507 10.712 42.496C10.424 42.7307 10.28 43.0507 10.28 43.456C10.28 43.6693 10.328 43.8613 10.424 44.032C10.5307 44.2027 10.696 44.368 10.92 44.528C11.144 44.6773 11.3467 44.8 11.528 44.896C11.7094 44.9813 11.976 45.104 12.328 45.264C12.3494 45.2747 12.3654 45.2853 12.376 45.296C12.3867 45.296 12.4027 45.3013 12.424 45.312C12.4454 45.312 12.4614 45.3173 12.472 45.328C12.8987 45.5307 13.2614 45.7227 13.56 45.904C13.8587 46.0747 14.1787 46.304 14.52 46.592C14.8614 46.88 15.1227 47.2213 15.304 47.616C15.4854 48.0107 15.576 48.448 15.576 48.928C15.576 49.9307 15.24 50.7253 14.568 51.312C13.896 51.8987 13.0534 52.192 12.04 52.192Z" fill="white"/>
<path id="leftT" d="M31.112 28V18.368H27.864V16.8H35.992V18.368H32.744V28H31.112Z" fill="white"/>
<path id="leftK" d="M34.296 52L31.192 46.144L30.024 47.6V52H28.376V40.8H30.024V45.312L33.56 40.8H35.464L32.296 44.752L36.184 52H34.296Z" fill="white"/>
<path id="leftP" d="M48.376 28V16.8H52.088C53.3573 16.8 54.2853 17.1307 54.872 17.792C55.4693 18.4427 55.768 19.248 55.768 20.208C55.768 21.104 55.4586 21.8987 54.84 22.592C54.232 23.2747 53.3146 23.616 52.088 23.616H50.024V28H48.376ZM50.024 22.096H52.184C52.8346 22.096 53.3146 21.9093 53.624 21.536C53.944 21.1627 54.104 20.72 54.104 20.208C54.104 19.7173 53.9546 19.28 53.656 18.896C53.3573 18.512 52.8666 18.32 52.184 18.32H50.024V22.096Z" fill="white"/>
<path id="leftW" d="M49.128 52L47.416 40.8H48.92L49.896 47.824L49.992 48.576C50.024 48.32 50.072 48.0693 50.136 47.824L51.432 40.8H52.44L53.752 47.776C53.816 48.0427 53.864 48.2773 53.896 48.48C53.9067 48.384 53.9227 48.2613 53.944 48.112C53.9653 47.952 53.976 47.8453 53.976 47.792L54.872 40.8H56.44L54.728 52H53.416L52.056 44.896C52.024 44.7467 51.9813 44.4907 51.928 44.128C51.9067 44.288 51.864 44.5387 51.8 44.88L50.44 52H49.128Z" fill="white"/>
<path id="leftH" d="M68.376 28V16.8H70.024V21.424H73.848V16.8H75.48V28H73.848V22.976H70.024V28H68.376Z" fill="white"/>
<path id="leftR" d="M75.624 44.08C75.624 44.8053 75.4266 45.4613 75.032 46.048C74.6373 46.624 74.0506 47.024 73.272 47.248L75.592 52H73.768L71.528 47.408H70.024V52H68.376V40.8H72.024C73.2933 40.8 74.2106 41.1093 74.776 41.728C75.3413 42.3467 75.624 43.1307 75.624 44.08ZM70.024 42.32V45.872H72.056C72.728 45.872 73.2133 45.7067 73.512 45.376C73.8213 45.0347 73.976 44.6133 73.976 44.112C73.976 43.632 73.8266 43.216 73.528 42.864C73.24 42.5013 72.7493 42.32 72.056 42.32H70.024Z" fill="white"/>
<path id="leftA" d="M54.616 78L53.816 75.392H50.056L49.272 78H47.512L51.176 66.8H52.664L56.36 78H54.616ZM50.52 73.904H53.352L52.216 70.192C52.0986 69.808 52.0026 69.4187 51.928 69.024C51.8533 69.4187 51.7573 69.808 51.64 70.192L50.52 73.904Z" fill="white"/>
<path id="leftO" d="M71.928 78.192C71.2347 78.192 70.6213 78.032 70.088 77.712C69.5547 77.3813 69.1333 76.9387 68.824 76.384C68.5147 75.8293 68.28 75.216 68.12 74.544C67.9707 73.872 67.896 73.1573 67.896 72.4C67.896 71.6427 67.9707 70.928 68.12 70.256C68.28 69.584 68.5147 68.9707 68.824 68.416C69.1333 67.8613 69.5547 67.424 70.088 67.104C70.6213 66.7733 71.2347 66.608 71.928 66.608C72.632 66.608 73.2507 66.7733 73.784 67.104C74.3173 67.424 74.7387 67.8613 75.048 68.416C75.3573 68.9707 75.5867 69.584 75.736 70.256C75.8853 70.928 75.96 71.6427 75.96 72.4C75.96 73.1573 75.8853 73.872 75.736 74.544C75.5867 75.216 75.3573 75.8293 75.048 76.384C74.7387 76.9387 74.3173 77.3813 73.784 77.712C73.2507 78.032 72.632 78.192 71.928 78.192ZM71.928 76.64C72.4507 76.64 72.8933 76.4267 73.256 76C73.6293 75.5733 73.8907 75.0507 74.04 74.432C74.1893 73.8133 74.264 73.136 74.264 72.4C74.264 71.1733 74.072 70.16 73.688 69.36C73.304 68.5493 72.7173 68.144 71.928 68.144C71.4053 68.144 70.9627 68.3627 70.6 68.8C70.2373 69.2267 69.9813 69.7493 69.832 70.368C69.6827 70.9867 69.608 71.664 69.608 72.4C69.608 73.616 69.8 74.6293 70.184 75.44C70.568 76.24 71.1493 76.64 71.928 76.64Z" fill="white"/>
<path id="starUpper" d="M90.5198 26.16L89.2718 25.328L90.2638 23.808L91.1278 23.008L89.9598 23.28H88.2158V21.76H89.9598L91.1278 22.016L90.2798 21.232L89.2878 19.712L90.5358 18.88L91.6398 20.544L91.9278 21.616L92.2318 20.544L93.3358 18.88L94.5838 19.712L93.5918 21.232L92.7278 22.016L93.8958 21.76H95.6398V23.28H93.8958L92.7278 23.008L93.5918 23.808L94.5838 25.328L93.3358 26.16L92.2318 24.496L91.9278 23.408L91.6238 24.496L90.5198 26.16Z" fill="white"/>
<path id="starLower" d="M90.5198 50.16L89.2718 49.328L90.2638 47.808L91.1278 47.008L89.9598 47.28H88.2158V45.76H89.9598L91.1278 46.016L90.2798 45.232L89.2878 43.712L90.5358 42.88L91.6398 44.544L91.9278 45.616L92.2318 44.544L93.3358 42.88L94.5838 43.712L93.5918 45.232L92.7278 46.016L93.8958 45.76H95.6398V47.28H93.8958L92.7278 47.008L93.5918 47.808L94.5838 49.328L93.3358 50.16L92.2318 48.496L91.9278 47.408L91.6238 48.496L90.5198 50.16Z" fill="white"/>
<path id="rightE" d="M108.376 78V66.8H115.24V68.352H110.024V71.44H113.496V72.992H110.024V76.432H115.592V78H108.376Z" fill="white"/>
<path id="rightU" d="M131.928 78.192C130.808 78.192 129.912 77.84 129.24 77.136C128.568 76.4213 128.232 75.2907 128.232 73.744V66.8H129.88V73.744C129.88 75.6747 130.563 76.64 131.928 76.64C133.304 76.64 133.992 75.6747 133.992 73.744V66.8H135.624V73.744C135.624 75.28 135.288 76.4053 134.616 77.12C133.955 77.8347 133.059 78.192 131.928 78.192Z" fill="white"/>
<path id="rightF" d="M108.376 28V16.8H115.672V18.352H110.024V21.44H114.056V22.992H110.024V28H108.376Z" fill="white"/>
<path id="rightR" d="M115.624 44.08C115.624 44.8053 115.427 45.4613 115.032 46.048C114.637 46.624 114.051 47.024 113.272 47.248L115.592 52H113.768L111.528 47.408H110.024V52H108.376V40.8H112.024C113.293 40.8 114.211 41.1093 114.776 41.728C115.341 42.3467 115.624 43.1307 115.624 44.08ZM110.024 42.32V45.872H112.056C112.728 45.872 113.213 45.7067 113.512 45.376C113.821 45.0347 113.976 44.6133 113.976 44.112C113.976 43.632 113.827 43.216 113.528 42.864C113.24 42.5013 112.749 42.32 112.056 42.32H110.024Z" fill="white"/>
<path id="rightP" d="M128.376 28V16.8H132.088C133.357 16.8 134.285 17.1307 134.872 17.792C135.469 18.4427 135.768 19.248 135.768 20.208C135.768 21.104 135.459 21.8987 134.84 22.592C134.232 23.2747 133.315 23.616 132.088 23.616H130.024V28H128.376ZM130.024 22.096H132.184C132.835 22.096 133.315 21.9093 133.624 21.536C133.944 21.1627 134.104 20.72 134.104 20.208C134.104 19.7173 133.955 19.28 133.656 18.896C133.357 18.512 132.867 18.32 132.184 18.32H130.024V22.096Z" fill="white"/>
<path id="rightB" d="M128.376 52V40.8H131.88C133.117 40.8 134.013 41.0827 134.568 41.648C135.123 42.2133 135.4 42.9173 135.4 43.76C135.4 44.8693 134.883 45.648 133.848 46.096C134.456 46.288 134.931 46.624 135.272 47.104C135.624 47.5733 135.8 48.128 135.8 48.768C135.8 49.664 135.501 50.4267 134.904 51.056C134.317 51.6853 133.389 52 132.12 52H128.376ZM130.024 45.44H131.608C132.323 45.44 132.861 45.3013 133.224 45.024C133.597 44.736 133.784 44.3413 133.784 43.84C133.784 42.816 133.171 42.304 131.944 42.304H130.024V45.44ZM130.024 50.48H132.264C132.957 50.48 133.448 50.32 133.736 50C134.035 49.68 134.184 49.2853 134.184 48.816C134.184 47.568 133.384 46.944 131.784 46.944H130.024V50.48Z" fill="white"/>
<path id="rightL" d="M148.376 28V16.8H150.024V26.416H155.272V28H148.376Z" fill="white"/>
<path id="rightG" d="M152.152 52.192C151.214 52.192 150.414 51.9093 149.752 51.344C149.102 50.768 148.632 50.0587 148.344 49.216C148.067 48.3627 147.928 47.424 147.928 46.4C147.928 45.3973 148.072 44.4693 148.36 43.616C148.659 42.752 149.139 42.0373 149.8 41.472C150.462 40.896 151.246 40.608 152.152 40.608C152.984 40.608 153.651 40.7947 154.152 41.168C154.654 41.5413 155.08 42.0533 155.432 42.704L153.976 43.536C153.475 42.608 152.867 42.144 152.152 42.144C151.566 42.144 151.075 42.3733 150.68 42.832C150.286 43.28 150.008 43.8133 149.848 44.432C149.699 45.04 149.624 45.696 149.624 46.4C149.624 47.584 149.838 48.5867 150.264 49.408C150.702 50.2293 151.331 50.64 152.152 50.64C152.76 50.64 153.23 50.432 153.56 50.016C153.891 49.5893 154.056 49.0293 154.056 48.336V47.952H152.072V46.432H155.752V47.872C155.752 49.2267 155.416 50.288 154.744 51.056C154.072 51.8133 153.208 52.192 152.152 52.192Z" fill="white"/>
<path id="rightT" d="M171.112 28V18.368H167.864V16.8H175.992V18.368H172.744V28H171.112Z" fill="white"/>
<path id="rightS" d="M172.04 52.192C171.155 52.192 170.371 51.9467 169.688 51.456C169.005 50.9547 168.525 50.3093 168.248 49.52L169.768 48.96C169.992 49.472 170.312 49.8827 170.728 50.192C171.155 50.5013 171.629 50.656 172.152 50.656C172.696 50.656 173.123 50.512 173.432 50.224C173.752 49.936 173.912 49.52 173.912 48.976C173.912 48.496 173.709 48.0853 173.304 47.744C172.899 47.392 172.344 47.0613 171.64 46.752C171.192 46.56 170.829 46.384 170.552 46.224C170.275 46.064 169.965 45.8507 169.624 45.584C169.283 45.3173 169.027 45.008 168.856 44.656C168.696 44.304 168.616 43.904 168.616 43.456C168.616 42.656 168.915 41.984 169.512 41.44C170.12 40.8853 170.92 40.608 171.912 40.608C172.701 40.608 173.379 40.8107 173.944 41.216C174.52 41.6213 174.899 42.144 175.08 42.784L173.592 43.28C173.443 42.9493 173.213 42.6773 172.904 42.464C172.605 42.24 172.248 42.128 171.832 42.128C171.373 42.128 171 42.2507 170.712 42.496C170.424 42.7307 170.28 43.0507 170.28 43.456C170.28 43.6693 170.328 43.8613 170.424 44.032C170.531 44.2027 170.696 44.368 170.92 44.528C171.144 44.6773 171.347 44.8 171.528 44.896C171.709 44.9813 171.976 45.104 172.328 45.264C172.349 45.2747 172.365 45.2853 172.376 45.296C172.387 45.296 172.403 45.3013 172.424 45.312C172.445 45.312 172.461 45.3173 172.472 45.328C172.899 45.5307 173.261 45.7227 173.56 45.904C173.859 46.0747 174.179 46.304 174.52 46.592C174.861 46.88 175.123 47.2213 175.304 47.616C175.485 48.0107 175.576 48.448 175.576 48.928C175.576 49.9307 175.24 50.7253 174.568 51.312C173.896 51.8987 173.053 52.192 172.04 52.192Z" fill="white"/>
<path id="rightD" d="M188.376 28V16.8H191.096C191.789 16.8 192.413 16.9067 192.968 17.12C193.523 17.3333 193.981 17.616 194.344 17.968C194.717 18.32 195.027 18.7413 195.272 19.232C195.517 19.712 195.693 20.2187 195.8 20.752C195.907 21.2747 195.96 21.824 195.96 22.4C195.96 22.944 195.912 23.4667 195.816 23.968C195.72 24.4693 195.549 24.9707 195.304 25.472C195.069 25.9733 194.771 26.4053 194.408 26.768C194.045 27.1307 193.571 27.4293 192.984 27.664C192.408 27.888 191.757 28 191.032 28H188.376ZM190.008 26.464H191.16C191.725 26.464 192.216 26.3467 192.632 26.112C193.048 25.8667 193.368 25.5413 193.592 25.136C193.827 24.7307 193.997 24.304 194.104 23.856C194.211 23.3973 194.264 22.912 194.264 22.4C194.264 21.2693 194.019 20.3093 193.528 19.52C193.037 18.72 192.307 18.32 191.336 18.32H190.008V26.464Z" fill="white"/>
<path id="rightZ" d="M195.64 40.8V42.032L190.344 50.448H195.608V52H188.232V50.784L193.496 42.352H188.6V40.8H195.64Z" fill="white"/>
</g>
</svg>
