<svg width="240" height="70" viewBox="0 0 240 70" fill="none" xmlns="http://www.w3.org/2000/svg">
<g id="no-number-bar-outer-thumb-numbers" clip-path="url(#clip0_14_425)">
<rect id="rightZ" x="222.5" y="24.5" width="17" height="19" rx="3.5" fill="#E9D9F2" stroke="#7109AA"/>
<rect id="rightD" x="222.5" y="0.5" width="17" height="19" rx="3.5" fill="#E9D9F2" stroke="#7109AA"/>
<rect id="rightS" x="202.5" y="24.5" width="17" height="19" rx="3.5" fill="#E9D9F2" stroke="#7109AA"/>
<rect id="rightT" x="202.5" y="0.5" width="17" height="19" rx="3.5" fill="#E9D9F2" stroke="#7109AA"/>
<rect id="rightG" x="182.5" y="24.5" width="17" height="19" rx="3.5" fill="#E9D9F2" stroke="#7109AA"/>
<rect id="rightL" x="182.5" y="0.5" width="17" height="19" rx="3.5" fill="#E9D9F2" stroke="#7109AA"/>
<rect id="rightB" x="162.5" y="24.5" width="17" height="19" rx="3.5" fill="#E9D9F2" stroke="#7109AA"/>
<rect id="rightP" x="162.5" y="0.5" width="17" height="19" rx="3.5" fill="#E9D9F2" stroke="#7109AA"/>
<rect id="rightR" x="142.5" y="24.5" width="17" height="19" rx="3.5" fill="#E9D9F2" stroke="#7109AA"/>
<rect id="rightF" x="142.5" y="0.5" width="17" height="19" rx="3.5" fill="#E9D9F2" stroke="#7109AA"/>
<rect id="rightUKey" x="141.5" y="50.5" width="17" height="19" rx="3.5" fill="#E9D9F2" stroke="#7109AA"/>
<rect id="rightEKey" x="121.5" y="50.5" width="17" height="19" rx="3.5" fill="#E9D9F2" stroke="#7109AA"/>
<rect id="rightStarLowerKey" x="121.5" y="24.5" width="17" height="19" rx="3.5" fill="#E9D9F2" stroke="#7109AA"/>
<rect id="rightStarUpperKey" x="121.5" y="0.5" width="17" height="19" rx="3.5" fill="#E9D9F2" stroke="#7109AA"/>
<rect id="leftStarLowerKey" x="80.5" y="24.5" width="17" height="19" rx="3.5" fill="#E9D9F2" stroke="#7109AA"/>
<rect id="leftStarUpperKey" x="80.5" y="0.5" width="17" height="19" rx="3.5" fill="#E9D9F2" stroke="#7109AA"/>
<rect id="leftOKey" x="80.5" y="50.5" width="17" height="19" rx="3.5" fill="#E9D9F2" stroke="#7109AA"/>
<rect id="leftAKey" x="60.5" y="50.5" width="17" height="19" rx="3.5" fill="#E9D9F2" stroke="#7109AA"/>
<rect id="leftRKey" x="60.5" y="24.5" width="17" height="19" rx="3.5" fill="#E9D9F2" stroke="#7109AA"/>
<rect id="leftHKey" x="60.5" y="0.5" width="17" height="19" rx="3.5" fill="#E9D9F2" stroke="#7109AA"/>
<rect id="leftWKey" x="40.5" y="24.5" width="17" height="19" rx="3.5" fill="#E9D9F2" stroke="#7109AA"/>
<rect id="leftPKey" x="40.5" y="0.5" width="17" height="19" rx="3.5" fill="#E9D9F2" stroke="#7109AA"/>
<rect id="leftKKey" x="20.5" y="24.5" width="17" height="19" rx="3.5" fill="#E9D9F2" stroke="#7109AA"/>
<rect id="leftTKey" x="20.5" y="0.5" width="17" height="19" rx="3.5" fill="#E9D9F2" stroke="#7109AA"/>
<rect id="leftSLowerKey" x="0.5" y="24.5" width="17" height="19" rx="3.5" fill="#E9D9F2" stroke="#7109AA"/>
<rect id="leftSUpperKey" x="0.5" y="0.5" width="17" height="19" rx="3.5" fill="#E9D9F2" stroke="#7109AA"/>
<rect id="rightNumberBarKey" x="161.5" y="50.5" width="17" height="19" rx="3.5" fill="#E9D9F2" stroke="#7109AA"/>
<rect id="leftNumberBarKey" x="40.5" y="50.5" width="17" height="19" rx="3.5" fill="#E9D9F2" stroke="#7109AA"/>
<path id="rightZ_2" d="M234.64 27.8V29.032L229.344 37.448H234.608V39H227.232V37.784L232.496 29.352H227.6V27.8H234.64Z" fill="white"/>
<path id="rightD_2" d="M227.376 15V3.8H230.096C230.789 3.8 231.413 3.90667 231.968 4.12C232.523 4.33334 232.981 4.616 233.344 4.968C233.717 5.32 234.027 5.74134 234.272 6.232C234.517 6.712 234.693 7.21867 234.8 7.752C234.907 8.27467 234.96 8.824 234.96 9.4C234.96 9.944 234.912 10.4667 234.816 10.968C234.72 11.4693 234.549 11.9707 234.304 12.472C234.069 12.9733 233.771 13.4053 233.408 13.768C233.045 14.1307 232.571 14.4293 231.984 14.664C231.408 14.888 230.757 15 230.032 15H227.376ZM229.008 13.464H230.16C230.725 13.464 231.216 13.3467 231.632 13.112C232.048 12.8667 232.368 12.5413 232.592 12.136C232.827 11.7307 232.997 11.304 233.104 10.856C233.211 10.3973 233.264 9.912 233.264 9.4C233.264 8.26934 233.019 7.30934 232.528 6.52C232.037 5.72 231.307 5.32 230.336 5.32H229.008V13.464Z" fill="white"/>
<path id="rightS_2" d="M211.04 39.192C210.155 39.192 209.371 38.9467 208.688 38.456C208.005 37.9547 207.525 37.3093 207.248 36.52L208.768 35.96C208.992 36.472 209.312 36.8827 209.728 37.192C210.155 37.5013 210.629 37.656 211.152 37.656C211.696 37.656 212.123 37.512 212.432 37.224C212.752 36.936 212.912 36.52 212.912 35.976C212.912 35.496 212.709 35.0853 212.304 34.744C211.899 34.392 211.344 34.0613 210.64 33.752C210.192 33.56 209.829 33.384 209.552 33.224C209.275 33.064 208.965 32.8507 208.624 32.584C208.283 32.3173 208.027 32.008 207.856 31.656C207.696 31.304 207.616 30.904 207.616 30.456C207.616 29.656 207.915 28.984 208.512 28.44C209.12 27.8853 209.92 27.608 210.912 27.608C211.701 27.608 212.379 27.8107 212.944 28.216C213.52 28.6213 213.899 29.144 214.08 29.784L212.592 30.28C212.443 29.9493 212.213 29.6773 211.904 29.464C211.605 29.24 211.248 29.128 210.832 29.128C210.373 29.128 210 29.2507 209.712 29.496C209.424 29.7307 209.28 30.0507 209.28 30.456C209.28 30.6693 209.328 30.8613 209.424 31.032C209.531 31.2027 209.696 31.368 209.92 31.528C210.144 31.6773 210.347 31.8 210.528 31.896C210.709 31.9813 210.976 32.104 211.328 32.264C211.349 32.2747 211.365 32.2853 211.376 32.296C211.387 32.296 211.403 32.3013 211.424 32.312C211.445 32.312 211.461 32.3173 211.472 32.328C211.899 32.5307 212.261 32.7227 212.56 32.904C212.859 33.0747 213.179 33.304 213.52 33.592C213.861 33.88 214.123 34.2213 214.304 34.616C214.485 35.0107 214.576 35.448 214.576 35.928C214.576 36.9307 214.24 37.7253 213.568 38.312C212.896 38.8987 212.053 39.192 211.04 39.192Z" fill="white"/>
<path id="rightT_2" d="M210.112 15V5.368H206.864V3.8H214.992V5.368H211.744V15H210.112Z" fill="white"/>
<path id="rightG_2" d="M191.152 39.192C190.214 39.192 189.414 38.9093 188.752 38.344C188.102 37.768 187.632 37.0587 187.344 36.216C187.067 35.3627 186.928 34.424 186.928 33.4C186.928 32.3973 187.072 31.4693 187.36 30.616C187.659 29.752 188.139 29.0373 188.8 28.472C189.462 27.896 190.246 27.608 191.152 27.608C191.984 27.608 192.651 27.7947 193.152 28.168C193.654 28.5413 194.08 29.0533 194.432 29.704L192.976 30.536C192.475 29.608 191.867 29.144 191.152 29.144C190.566 29.144 190.075 29.3733 189.68 29.832C189.286 30.28 189.008 30.8133 188.848 31.432C188.699 32.04 188.624 32.696 188.624 33.4C188.624 34.584 188.838 35.5867 189.264 36.408C189.702 37.2293 190.331 37.64 191.152 37.64C191.76 37.64 192.23 37.432 192.56 37.016C192.891 36.5893 193.056 36.0293 193.056 35.336V34.952H191.072V33.432H194.752V34.872C194.752 36.2267 194.416 37.288 193.744 38.056C193.072 38.8133 192.208 39.192 191.152 39.192Z" fill="white"/>
<path id="rightL_2" d="M187.376 15V3.8H189.024V13.416H194.272V15H187.376Z" fill="white"/>
<path id="rightB_2" d="M167.376 39V27.8H170.88C172.117 27.8 173.013 28.0827 173.568 28.648C174.123 29.2133 174.4 29.9173 174.4 30.76C174.4 31.8693 173.883 32.648 172.848 33.096C173.456 33.288 173.931 33.624 174.272 34.104C174.624 34.5733 174.8 35.128 174.8 35.768C174.8 36.664 174.501 37.4267 173.904 38.056C173.317 38.6853 172.389 39 171.12 39H167.376ZM169.024 32.44H170.608C171.323 32.44 171.861 32.3013 172.224 32.024C172.597 31.736 172.784 31.3413 172.784 30.84C172.784 29.816 172.171 29.304 170.944 29.304H169.024V32.44ZM169.024 37.48H171.264C171.957 37.48 172.448 37.32 172.736 37C173.035 36.68 173.184 36.2853 173.184 35.816C173.184 34.568 172.384 33.944 170.784 33.944H169.024V37.48Z" fill="white"/>
<path id="rightP_2" d="M167.376 15V3.8H171.088C172.357 3.8 173.285 4.13067 173.872 4.792C174.469 5.44267 174.768 6.248 174.768 7.208C174.768 8.104 174.459 8.89867 173.84 9.592C173.232 10.2747 172.315 10.616 171.088 10.616H169.024V15H167.376ZM169.024 9.096H171.184C171.835 9.096 172.315 8.90934 172.624 8.536C172.944 8.16267 173.104 7.72 173.104 7.208C173.104 6.71734 172.955 6.28 172.656 5.896C172.357 5.512 171.867 5.32 171.184 5.32H169.024V9.096Z" fill="white"/>
<path id="rightR_2" d="M154.624 31.08C154.624 31.8053 154.427 32.4613 154.032 33.048C153.637 33.624 153.051 34.024 152.272 34.248L154.592 39H152.768L150.528 34.408H149.024V39H147.376V27.8H151.024C152.293 27.8 153.211 28.1093 153.776 28.728C154.341 29.3467 154.624 30.1307 154.624 31.08ZM149.024 29.32V32.872H151.056C151.728 32.872 152.213 32.7067 152.512 32.376C152.821 32.0347 152.976 31.6133 152.976 31.112C152.976 30.632 152.827 30.216 152.528 29.864C152.24 29.5013 151.749 29.32 151.056 29.32H149.024Z" fill="white"/>
<path id="rightF_2" d="M147.376 15V3.8H154.672V5.352H149.024V8.44H153.056V9.992H149.024V15H147.376Z" fill="white"/>
<path id="rightU" d="M149.928 65.192C148.808 65.192 147.912 64.84 147.24 64.136C146.568 63.4213 146.232 62.2907 146.232 60.744V53.8H147.88V60.744C147.88 62.6747 148.563 63.64 149.928 63.64C151.304 63.64 151.992 62.6747 151.992 60.744V53.8H153.624V60.744C153.624 62.28 153.288 63.4053 152.616 64.12C151.955 64.8347 151.059 65.192 149.928 65.192Z" fill="white"/>
<path id="rightE" d="M126.376 65V53.8H133.24V55.352H128.024V58.44H131.496V59.992H128.024V63.432H133.592V65H126.376Z" fill="white"/>
<path id="rightStarLower" d="M128.52 37.16L127.272 36.328L128.264 34.808L129.128 34.008L127.96 34.28H126.216V32.76H127.96L129.128 33.016L128.28 32.232L127.288 30.712L128.536 29.88L129.64 31.544L129.928 32.616L130.232 31.544L131.336 29.88L132.584 30.712L131.592 32.232L130.728 33.016L131.896 32.76H133.64V34.28H131.896L130.728 34.008L131.592 34.808L132.584 36.328L131.336 37.16L130.232 35.496L129.928 34.408L129.624 35.496L128.52 37.16Z" fill="white"/>
<path id="rightStarUpper" d="M128.52 13.16L127.272 12.328L128.264 10.808L129.128 10.008L127.96 10.28H126.216V8.76001H127.96L129.128 9.01601L128.28 8.23201L127.288 6.71201L128.536 5.88L129.64 7.54401L129.928 8.616L130.232 7.54401L131.336 5.88L132.584 6.71201L131.592 8.23201L130.728 9.01601L131.896 8.76001H133.64V10.28H131.896L130.728 10.008L131.592 10.808L132.584 12.328L131.336 13.16L130.232 11.496L129.928 10.408L129.624 11.496L128.52 13.16Z" fill="white"/>
<path id="leftStarLower" d="M87.5198 37.16L86.2718 36.328L87.2638 34.808L88.1278 34.008L86.9598 34.28H85.2158V32.76H86.9598L88.1278 33.016L87.2798 32.232L86.2878 30.712L87.5358 29.88L88.6398 31.544L88.9278 32.616L89.2318 31.544L90.3358 29.88L91.5838 30.712L90.5918 32.232L89.7278 33.016L90.8958 32.76H92.6398V34.28H90.8958L89.7278 34.008L90.5918 34.808L91.5838 36.328L90.3358 37.16L89.2318 35.496L88.9278 34.408L88.6238 35.496L87.5198 37.16Z" fill="white"/>
<path id="leftStarUpper" d="M87.5198 13.16L86.2718 12.328L87.2638 10.808L88.1278 10.008L86.9598 10.28H85.2158V8.76001H86.9598L88.1278 9.01601L87.2798 8.23201L86.2878 6.71201L87.5358 5.88L88.6398 7.54401L88.9278 8.616L89.2318 7.54401L90.3358 5.88L91.5838 6.71201L90.5918 8.23201L89.7278 9.01601L90.8958 8.76001H92.6398V10.28H90.8958L89.7278 10.008L90.5918 10.808L91.5838 12.328L90.3358 13.16L89.2318 11.496L88.9278 10.408L88.6238 11.496L87.5198 13.16Z" fill="white"/>
<path id="leftO" d="M88.928 65.192C88.2347 65.192 87.6213 65.032 87.088 64.712C86.5547 64.3813 86.1333 63.9387 85.824 63.384C85.5147 62.8293 85.28 62.216 85.12 61.544C84.9707 60.872 84.896 60.1573 84.896 59.4C84.896 58.6427 84.9707 57.928 85.12 57.256C85.28 56.584 85.5147 55.9707 85.824 55.416C86.1333 54.8613 86.5547 54.424 87.088 54.104C87.6213 53.7733 88.2347 53.608 88.928 53.608C89.632 53.608 90.2507 53.7733 90.784 54.104C91.3173 54.424 91.7387 54.8613 92.048 55.416C92.3573 55.9707 92.5867 56.584 92.736 57.256C92.8853 57.928 92.96 58.6427 92.96 59.4C92.96 60.1573 92.8853 60.872 92.736 61.544C92.5867 62.216 92.3573 62.8293 92.048 63.384C91.7387 63.9387 91.3173 64.3813 90.784 64.712C90.2507 65.032 89.632 65.192 88.928 65.192ZM88.928 63.64C89.4507 63.64 89.8933 63.4267 90.256 63C90.6293 62.5733 90.8907 62.0507 91.04 61.432C91.1893 60.8133 91.264 60.136 91.264 59.4C91.264 58.1733 91.072 57.16 90.688 56.36C90.304 55.5493 89.7173 55.144 88.928 55.144C88.4053 55.144 87.9627 55.3627 87.6 55.8C87.2373 56.2267 86.9813 56.7493 86.832 57.368C86.6827 57.9867 86.608 58.664 86.608 59.4C86.608 60.616 86.8 61.6293 87.184 62.44C87.568 63.24 88.1493 63.64 88.928 63.64Z" fill="white"/>
<path id="leftA" d="M71.616 65L70.816 62.392H67.056L66.272 65H64.512L68.176 53.8H69.664L73.36 65H71.616ZM67.52 60.904H70.352L69.216 57.192C69.0986 56.808 69.0026 56.4187 68.928 56.024C68.8533 56.4187 68.7573 56.808 68.64 57.192L67.52 60.904Z" fill="white"/>
<path id="leftR" d="M72.624 31.08C72.624 31.8053 72.4266 32.4613 72.032 33.048C71.6373 33.624 71.0506 34.024 70.272 34.248L72.592 39H70.768L68.528 34.408H67.024V39H65.376V27.8H69.024C70.2933 27.8 71.2106 28.1093 71.776 28.728C72.3413 29.3467 72.624 30.1307 72.624 31.08ZM67.024 29.32V32.872H69.056C69.728 32.872 70.2133 32.7067 70.512 32.376C70.8213 32.0347 70.976 31.6133 70.976 31.112C70.976 30.632 70.8266 30.216 70.528 29.864C70.24 29.5013 69.7493 29.32 69.056 29.32H67.024Z" fill="white"/>
<path id="leftH" d="M65.376 15V3.8H67.024V8.424H70.848V3.8H72.48V15H70.848V9.976H67.024V15H65.376Z" fill="white"/>
<path id="leftW" d="M46.128 39L44.416 27.8H45.92L46.896 34.824L46.992 35.576C47.024 35.32 47.072 35.0693 47.136 34.824L48.432 27.8H49.44L50.752 34.776C50.816 35.0427 50.864 35.2773 50.896 35.48C50.9067 35.384 50.9227 35.2613 50.944 35.112C50.9653 34.952 50.976 34.8453 50.976 34.792L51.872 27.8H53.44L51.728 39H50.416L49.056 31.896C49.024 31.7467 48.9813 31.4907 48.928 31.128C48.9067 31.288 48.864 31.5387 48.8 31.88L47.44 39H46.128Z" fill="white"/>
<path id="leftP" d="M45.376 15V3.8H49.088C50.3573 3.8 51.2853 4.13067 51.872 4.792C52.4693 5.44267 52.768 6.248 52.768 7.208C52.768 8.104 52.4586 8.89867 51.84 9.592C51.232 10.2747 50.3146 10.616 49.088 10.616H47.024V15H45.376ZM47.024 9.096H49.184C49.8346 9.096 50.3146 8.90934 50.624 8.536C50.944 8.16267 51.104 7.72 51.104 7.208C51.104 6.71734 50.9546 6.28 50.656 5.896C50.3573 5.512 49.8666 5.32 49.184 5.32H47.024V9.096Z" fill="white"/>
<path id="leftK" d="M31.296 39L28.192 33.144L27.024 34.6V39H25.376V27.8H27.024V32.312L30.56 27.8H32.464L29.296 31.752L33.184 39H31.296Z" fill="white"/>
<path id="leftT" d="M28.112 15V5.368H24.864V3.8H32.992V5.368H29.744V15H28.112Z" fill="white"/>
<path id="leftSLower" d="M9.04005 39.192C8.15471 39.192 7.37071 38.9467 6.68805 38.456C6.00538 37.9547 5.52538 37.3093 5.24805 36.52L6.76805 35.96C6.99205 36.472 7.31205 36.8827 7.72805 37.192C8.15471 37.5013 8.62938 37.656 9.15205 37.656C9.69605 37.656 10.1227 37.512 10.432 37.224C10.752 36.936 10.912 36.52 10.912 35.976C10.912 35.496 10.7094 35.0853 10.304 34.744C9.89871 34.392 9.34405 34.0613 8.64005 33.752C8.19205 33.56 7.82938 33.384 7.55205 33.224C7.27471 33.064 6.96538 32.8507 6.62405 32.584C6.28271 32.3173 6.02671 32.008 5.85605 31.656C5.69605 31.304 5.61605 30.904 5.61605 30.456C5.61605 29.656 5.91471 28.984 6.51205 28.44C7.12005 27.8853 7.92005 27.608 8.91205 27.608C9.70138 27.608 10.3787 27.8107 10.944 28.216C11.52 28.6213 11.8987 29.144 12.08 29.784L10.592 30.28C10.4427 29.9493 10.2134 29.6773 9.90405 29.464C9.60538 29.24 9.24805 29.128 8.83205 29.128C8.37338 29.128 8.00005 29.2507 7.71205 29.496C7.42405 29.7307 7.28005 30.0507 7.28005 30.456C7.28005 30.6693 7.32805 30.8613 7.42405 31.032C7.53071 31.2027 7.69605 31.368 7.92005 31.528C8.14405 31.6773 8.34671 31.8 8.52805 31.896C8.70938 31.9813 8.97605 32.104 9.32805 32.264C9.34938 32.2747 9.36538 32.2853 9.37605 32.296C9.38671 32.296 9.40271 32.3013 9.42405 32.312C9.44538 32.312 9.46138 32.3173 9.47205 32.328C9.89871 32.5307 10.2614 32.7227 10.56 32.904C10.8587 33.0747 11.1787 33.304 11.52 33.592C11.8614 33.88 12.1227 34.2213 12.304 34.616C12.4854 35.0107 12.576 35.448 12.576 35.928C12.576 36.9307 12.24 37.7253 11.568 38.312C10.896 38.8987 10.0534 39.192 9.04005 39.192Z" fill="white"/>
<path id="leftSUpper" d="M9.04005 15.192C8.15471 15.192 7.37071 14.9467 6.68805 14.456C6.00538 13.9547 5.52538 13.3093 5.24805 12.52L6.76805 11.96C6.99205 12.472 7.31205 12.8827 7.72805 13.192C8.15471 13.5013 8.62938 13.656 9.15205 13.656C9.69605 13.656 10.1227 13.512 10.432 13.224C10.752 12.936 10.912 12.52 10.912 11.976C10.912 11.496 10.7094 11.0853 10.304 10.744C9.89871 10.392 9.34405 10.0613 8.64005 9.752C8.19205 9.56 7.82938 9.384 7.55205 9.224C7.27471 9.064 6.96538 8.85067 6.62405 8.584C6.28271 8.31733 6.02671 8.008 5.85605 7.656C5.69605 7.304 5.61605 6.904 5.61605 6.456C5.61605 5.656 5.91471 4.984 6.51205 4.44C7.12005 3.88533 7.92005 3.608 8.91205 3.608C9.70138 3.608 10.3787 3.81067 10.944 4.216C11.52 4.62133 11.8987 5.144 12.08 5.784L10.592 6.28C10.4427 5.94933 10.2134 5.67733 9.90405 5.464C9.60538 5.24 9.24805 5.128 8.83205 5.128C8.37338 5.128 8.00005 5.25067 7.71205 5.496C7.42405 5.73067 7.28005 6.05067 7.28005 6.456C7.28005 6.66934 7.32805 6.86134 7.42405 7.032C7.53071 7.20267 7.69605 7.368 7.92005 7.528C8.14405 7.67734 8.34671 7.8 8.52805 7.896C8.70938 7.98134 8.97605 8.104 9.32805 8.264C9.34938 8.27467 9.36538 8.28533 9.37605 8.296C9.38671 8.296 9.40271 8.30134 9.42405 8.312C9.44538 8.312 9.46138 8.31733 9.47205 8.328C9.89871 8.53067 10.2614 8.72267 10.56 8.904C10.8587 9.07467 11.1787 9.304 11.52 9.592C11.8614 9.88 12.1227 10.2213 12.304 10.616C12.4854 11.0107 12.576 11.448 12.576 11.928C12.576 12.9307 12.24 13.7253 11.568 14.312C10.896 14.8987 10.0534 15.192 9.04005 15.192Z" fill="white"/>
<path id="rightNumberBar" d="M166.552 65L167.016 61.96H165.176L165.4 60.552H167.224L167.608 58.008H165.832L166.04 56.616H167.816L168.248 53.8H169.704L169.272 56.616H171.384L171.816 53.8H173.272L172.84 56.616H174.68L174.472 58.008H172.632L172.232 60.552H174.024L173.8 61.96H172.024L171.56 65H170.104L170.568 61.96H168.472L168.008 65H166.552ZM168.68 60.552H170.776L171.176 58.008H169.064L168.68 60.552Z" fill="white"/>
<path id="leftNumberBar" d="M45.552 65L46.016 61.96H44.176L44.4 60.552H46.224L46.608 58.008H44.832L45.04 56.616H46.816L47.248 53.8H48.704L48.272 56.616H50.384L50.816 53.8H52.272L51.84 56.616H53.68L53.472 58.008H51.632L51.232 60.552H53.024L52.8 61.96H51.024L50.56 65H49.104L49.568 61.96H47.472L47.008 65H45.552ZM47.68 60.552H49.776L50.176 58.008H48.064L47.68 60.552Z" fill="white"/>
</g>
<defs>
<clipPath id="clip0_14_425">
<rect width="240" height="70" fill="white"/>
</clipPath>
</defs>
</svg>
