<svg width="232" height="108" viewBox="0 0 232 108" fill="none" xmlns="http://www.w3.org/2000/svg">
<g id="no-number-bar-outer-thumb-numbers">
<rect id="leftNumberBarKey" x="40.5" y="69.5" width="17" height="19" rx="3.5" fill="#E9D9F2" stroke="#7109AA"/>
<rect id="rightNumberBarKey" x="153.5" y="69.5" width="17" height="19" rx="3.5" fill="#E9D9F2" stroke="#7109AA"/>
<rect id="leftSUpperKey" x="0.5" y="19.5" width="17" height="19" rx="3.5" fill="#E9D9F2" stroke="#7109AA"/>
<rect id="leftSLowerKey" x="0.5" y="43.5" width="17" height="19" rx="3.5" fill="#E9D9F2" stroke="#7109AA"/>
<rect id="leftTKey" x="20.5" y="19.5" width="17" height="19" rx="3.5" fill="#E9D9F2" stroke="#7109AA"/>
<rect id="leftKKey" x="20.5" y="43.5" width="17" height="19" rx="3.5" fill="#E9D9F2" stroke="#7109AA"/>
<rect id="leftPKey" x="40.5" y="19.5" width="17" height="19" rx="3.5" fill="#E9D9F2" stroke="#7109AA"/>
<rect id="leftWKey" x="40.5" y="43.5" width="17" height="19" rx="3.5" fill="#E9D9F2" stroke="#7109AA"/>
<rect id="leftHKey" x="60.5" y="19.5" width="17" height="19" rx="3.5" fill="#E9D9F2" stroke="#7109AA"/>
<rect id="leftRKey" x="60.5" y="43.5" width="17" height="19" rx="3.5" fill="#E9D9F2" stroke="#7109AA"/>
<rect id="leftAKey" x="60.5" y="69.5" width="17" height="19" rx="3.5" fill="#E9D9F2" stroke="#7109AA"/>
<rect id="leftOKey" x="80.5" y="69.5" width="17" height="19" rx="3.5" fill="#E9D9F2" stroke="#7109AA"/>
<rect id="leftStarUpperKey" x="80.5" y="19.5" width="17" height="19" rx="3.5" fill="#E9D9F2" stroke="#7109AA"/>
<rect id="leftStarLowerKey" x="80.5" y="43.5" width="17" height="19" rx="3.5" fill="#E9D9F2" stroke="#7109AA"/>
<rect id="rightStarUpperKey" x="113.5" y="19.5" width="17" height="19" rx="3.5" fill="#E9D9F2" stroke="#7109AA"/>
<rect id="rightStarLowerKey" x="113.5" y="43.5" width="17" height="19" rx="3.5" fill="#E9D9F2" stroke="#7109AA"/>
<rect id="rightEKey" x="113.5" y="69.5" width="17" height="19" rx="3.5" fill="#E9D9F2" stroke="#7109AA"/>
<rect id="rightUKey" x="133.5" y="69.5" width="17" height="19" rx="3.5" fill="#E9D9F2" stroke="#7109AA"/>
<rect id="rightFKey" x="134.5" y="19.5" width="17" height="19" rx="3.5" fill="#E9D9F2" stroke="#7109AA"/>
<rect id="rightRKey" x="134.5" y="43.5" width="17" height="19" rx="3.5" fill="#E9D9F2" stroke="#7109AA"/>
<rect id="rightPKey" x="154.5" y="19.5" width="17" height="19" rx="3.5" fill="#E9D9F2" stroke="#7109AA"/>
<rect id="rightBKey" x="154.5" y="43.5" width="17" height="19" rx="3.5" fill="#E9D9F2" stroke="#7109AA"/>
<rect id="rightLKey" x="174.5" y="19.5" width="17" height="19" rx="3.5" fill="#E9D9F2" stroke="#7109AA"/>
<rect id="rightGKey" x="174.5" y="43.5" width="17" height="19" rx="3.5" fill="#E9D9F2" stroke="#7109AA"/>
<rect id="rightTKey" x="194.5" y="19.5" width="17" height="19" rx="3.5" fill="#E9D9F2" stroke="#7109AA"/>
<rect id="rightSKey" x="194.5" y="43.5" width="17" height="19" rx="3.5" fill="#E9D9F2" stroke="#7109AA"/>
<rect id="rightDKey" x="214.5" y="19.5" width="17" height="19" rx="3.5" fill="#E9D9F2" stroke="#7109AA"/>
<rect id="rightZKey" x="214.5" y="43.5" width="17" height="19" rx="3.5" fill="#E9D9F2" stroke="#7109AA"/>
<path id="leftNumberBar" d="M45.552 84L46.016 80.96H44.176L44.4 79.552H46.224L46.608 77.008H44.832L45.04 75.616H46.816L47.248 72.8H48.704L48.272 75.616H50.384L50.816 72.8H52.272L51.84 75.616H53.68L53.472 77.008H51.632L51.232 79.552H53.024L52.8 80.96H51.024L50.56 84H49.104L49.568 80.96H47.472L47.008 84H45.552ZM47.68 79.552H49.776L50.176 77.008H48.064L47.68 79.552Z" fill="white"/>
<path id="rightNumberBar" d="M158.552 84L159.016 80.96H157.176L157.4 79.552H159.224L159.608 77.008H157.832L158.04 75.616H159.816L160.248 72.8H161.704L161.272 75.616H163.384L163.816 72.8H165.272L164.84 75.616H166.68L166.472 77.008H164.632L164.232 79.552H166.024L165.8 80.96H164.024L163.56 84H162.104L162.568 80.96H160.472L160.008 84H158.552ZM160.68 79.552H162.776L163.176 77.008H161.064L160.68 79.552Z" fill="white"/>
<path id="leftSUpper" d="M9.04005 34.192C8.15471 34.192 7.37071 33.9467 6.68805 33.456C6.00538 32.9547 5.52538 32.3093 5.24805 31.52L6.76805 30.96C6.99205 31.472 7.31205 31.8827 7.72805 32.192C8.15471 32.5013 8.62938 32.656 9.15205 32.656C9.69605 32.656 10.1227 32.512 10.432 32.224C10.752 31.936 10.912 31.52 10.912 30.976C10.912 30.496 10.7094 30.0853 10.304 29.744C9.89871 29.392 9.34405 29.0613 8.64005 28.752C8.19205 28.56 7.82938 28.384 7.55205 28.224C7.27471 28.064 6.96538 27.8507 6.62405 27.584C6.28271 27.3173 6.02671 27.008 5.85605 26.656C5.69605 26.304 5.61605 25.904 5.61605 25.456C5.61605 24.656 5.91471 23.984 6.51205 23.44C7.12005 22.8853 7.92005 22.608 8.91205 22.608C9.70138 22.608 10.3787 22.8107 10.944 23.216C11.52 23.6213 11.8987 24.144 12.08 24.784L10.592 25.28C10.4427 24.9493 10.2134 24.6773 9.90405 24.464C9.60538 24.24 9.24805 24.128 8.83205 24.128C8.37338 24.128 8.00005 24.2507 7.71205 24.496C7.42405 24.7307 7.28005 25.0507 7.28005 25.456C7.28005 25.6693 7.32805 25.8613 7.42405 26.032C7.53071 26.2027 7.69605 26.368 7.92005 26.528C8.14405 26.6773 8.34671 26.8 8.52805 26.896C8.70938 26.9813 8.97605 27.104 9.32805 27.264C9.34938 27.2747 9.36538 27.2853 9.37605 27.296C9.38671 27.296 9.40271 27.3013 9.42405 27.312C9.44538 27.312 9.46138 27.3173 9.47205 27.328C9.89871 27.5307 10.2614 27.7227 10.56 27.904C10.8587 28.0747 11.1787 28.304 11.52 28.592C11.8614 28.88 12.1227 29.2213 12.304 29.616C12.4854 30.0107 12.576 30.448 12.576 30.928C12.576 31.9307 12.24 32.7253 11.568 33.312C10.896 33.8987 10.0534 34.192 9.04005 34.192Z" fill="white"/>
<path id="leftSLower" d="M9.04005 58.192C8.15471 58.192 7.37071 57.9467 6.68805 57.456C6.00538 56.9547 5.52538 56.3093 5.24805 55.52L6.76805 54.96C6.99205 55.472 7.31205 55.8827 7.72805 56.192C8.15471 56.5013 8.62938 56.656 9.15205 56.656C9.69605 56.656 10.1227 56.512 10.432 56.224C10.752 55.936 10.912 55.52 10.912 54.976C10.912 54.496 10.7094 54.0853 10.304 53.744C9.89871 53.392 9.34405 53.0613 8.64005 52.752C8.19205 52.56 7.82938 52.384 7.55205 52.224C7.27471 52.064 6.96538 51.8507 6.62405 51.584C6.28271 51.3173 6.02671 51.008 5.85605 50.656C5.69605 50.304 5.61605 49.904 5.61605 49.456C5.61605 48.656 5.91471 47.984 6.51205 47.44C7.12005 46.8853 7.92005 46.608 8.91205 46.608C9.70138 46.608 10.3787 46.8107 10.944 47.216C11.52 47.6213 11.8987 48.144 12.08 48.784L10.592 49.28C10.4427 48.9493 10.2134 48.6773 9.90405 48.464C9.60538 48.24 9.24805 48.128 8.83205 48.128C8.37338 48.128 8.00005 48.2507 7.71205 48.496C7.42405 48.7307 7.28005 49.0507 7.28005 49.456C7.28005 49.6693 7.32805 49.8613 7.42405 50.032C7.53071 50.2027 7.69605 50.368 7.92005 50.528C8.14405 50.6773 8.34671 50.8 8.52805 50.896C8.70938 50.9813 8.97605 51.104 9.32805 51.264C9.34938 51.2747 9.36538 51.2853 9.37605 51.296C9.38671 51.296 9.40271 51.3013 9.42405 51.312C9.44538 51.312 9.46138 51.3173 9.47205 51.328C9.89871 51.5307 10.2614 51.7227 10.56 51.904C10.8587 52.0747 11.1787 52.304 11.52 52.592C11.8614 52.88 12.1227 53.2213 12.304 53.616C12.4854 54.0107 12.576 54.448 12.576 54.928C12.576 55.9307 12.24 56.7253 11.568 57.312C10.896 57.8987 10.0534 58.192 9.04005 58.192Z" fill="white"/>
<path id="leftT" d="M28.112 34V24.368H24.864V22.8H32.992V24.368H29.744V34H28.112Z" fill="white"/>
<path id="leftK" d="M31.296 58L28.192 52.144L27.024 53.6V58H25.376V46.8H27.024V51.312L30.56 46.8H32.464L29.296 50.752L33.184 58H31.296Z" fill="white"/>
<path id="leftP" d="M45.376 34V22.8H49.088C50.3573 22.8 51.2853 23.1307 51.872 23.792C52.4693 24.4427 52.768 25.248 52.768 26.208C52.768 27.104 52.4586 27.8987 51.84 28.592C51.232 29.2747 50.3146 29.616 49.088 29.616H47.024V34H45.376ZM47.024 28.096H49.184C49.8346 28.096 50.3146 27.9093 50.624 27.536C50.944 27.1627 51.104 26.72 51.104 26.208C51.104 25.7173 50.9546 25.28 50.656 24.896C50.3573 24.512 49.8666 24.32 49.184 24.32H47.024V28.096Z" fill="white"/>
<path id="leftW" d="M46.128 58L44.416 46.8H45.92L46.896 53.824L46.992 54.576C47.024 54.32 47.072 54.0693 47.136 53.824L48.432 46.8H49.44L50.752 53.776C50.816 54.0427 50.864 54.2773 50.896 54.48C50.9067 54.384 50.9227 54.2613 50.944 54.112C50.9653 53.952 50.976 53.8453 50.976 53.792L51.872 46.8H53.44L51.728 58H50.416L49.056 50.896C49.024 50.7467 48.9813 50.4907 48.928 50.128C48.9067 50.288 48.864 50.5387 48.8 50.88L47.44 58H46.128Z" fill="white"/>
<path id="leftH" d="M65.376 34V22.8H67.024V27.424H70.848V22.8H72.48V34H70.848V28.976H67.024V34H65.376Z" fill="white"/>
<path id="leftR" d="M72.624 50.08C72.624 50.8053 72.4266 51.4613 72.032 52.048C71.6373 52.624 71.0506 53.024 70.272 53.248L72.592 58H70.768L68.528 53.408H67.024V58H65.376V46.8H69.024C70.2933 46.8 71.2106 47.1093 71.776 47.728C72.3413 48.3467 72.624 49.1307 72.624 50.08ZM67.024 48.32V51.872H69.056C69.728 51.872 70.2133 51.7067 70.512 51.376C70.8213 51.0347 70.976 50.6133 70.976 50.112C70.976 49.632 70.8266 49.216 70.528 48.864C70.24 48.5013 69.7493 48.32 69.056 48.32H67.024Z" fill="white"/>
<path id="leftA" d="M71.6162 84L70.8162 81.392H67.0562L66.2722 84H64.5122L68.1762 72.8H69.6642L73.3602 84H71.6162ZM67.5202 79.904H70.3522L69.2162 76.192C69.0989 75.808 69.0029 75.4187 68.9282 75.024C68.8535 75.4187 68.7575 75.808 68.6402 76.192L67.5202 79.904Z" fill="white"/>
<path id="leftO" d="M88.928 84.192C88.2347 84.192 87.6213 84.032 87.088 83.712C86.5547 83.3813 86.1333 82.9387 85.824 82.384C85.5147 81.8293 85.28 81.216 85.12 80.544C84.9707 79.872 84.896 79.1573 84.896 78.4C84.896 77.6427 84.9707 76.928 85.12 76.256C85.28 75.584 85.5147 74.9707 85.824 74.416C86.1333 73.8613 86.5547 73.424 87.088 73.104C87.6213 72.7733 88.2347 72.608 88.928 72.608C89.632 72.608 90.2507 72.7733 90.784 73.104C91.3173 73.424 91.7387 73.8613 92.048 74.416C92.3573 74.9707 92.5867 75.584 92.736 76.256C92.8853 76.928 92.96 77.6427 92.96 78.4C92.96 79.1573 92.8853 79.872 92.736 80.544C92.5867 81.216 92.3573 81.8293 92.048 82.384C91.7387 82.9387 91.3173 83.3813 90.784 83.712C90.2507 84.032 89.632 84.192 88.928 84.192ZM88.928 82.64C89.4507 82.64 89.8933 82.4267 90.256 82C90.6293 81.5733 90.8907 81.0507 91.04 80.432C91.1893 79.8133 91.264 79.136 91.264 78.4C91.264 77.1733 91.072 76.16 90.688 75.36C90.304 74.5493 89.7173 74.144 88.928 74.144C88.4053 74.144 87.9627 74.3627 87.6 74.8C87.2373 75.2267 86.9813 75.7493 86.832 76.368C86.6827 76.9867 86.608 77.664 86.608 78.4C86.608 79.616 86.8 80.6293 87.184 81.44C87.568 82.24 88.1493 82.64 88.928 82.64Z" fill="white"/>
<path id="leftStarUpper" d="M87.5198 32.16L86.2718 31.328L87.2638 29.808L88.1278 29.008L86.9598 29.28H85.2158V27.76H86.9598L88.1278 28.016L87.2798 27.232L86.2878 25.712L87.5358 24.88L88.6398 26.544L88.9278 27.616L89.2318 26.544L90.3358 24.88L91.5838 25.712L90.5918 27.232L89.7278 28.016L90.8958 27.76H92.6398V29.28H90.8958L89.7278 29.008L90.5918 29.808L91.5838 31.328L90.3358 32.16L89.2318 30.496L88.9278 29.408L88.6238 30.496L87.5198 32.16Z" fill="white"/>
<path id="leftStarLower" d="M87.5198 56.16L86.2718 55.328L87.2638 53.808L88.1278 53.008L86.9598 53.28H85.2158V51.76H86.9598L88.1278 52.016L87.2798 51.232L86.2878 49.712L87.5358 48.88L88.6398 50.544L88.9278 51.616L89.2318 50.544L90.3358 48.88L91.5838 49.712L90.5918 51.232L89.7278 52.016L90.8958 51.76H92.6398V53.28H90.8958L89.7278 53.008L90.5918 53.808L91.5838 55.328L90.3358 56.16L89.2318 54.496L88.9278 53.408L88.6238 54.496L87.5198 56.16Z" fill="white"/>
<path id="rightStarUpper" d="M120.52 32.16L119.272 31.328L120.264 29.808L121.128 29.008L119.96 29.28H118.216V27.76H119.96L121.128 28.016L120.28 27.232L119.288 25.712L120.536 24.88L121.64 26.544L121.928 27.616L122.232 26.544L123.336 24.88L124.584 25.712L123.592 27.232L122.728 28.016L123.896 27.76H125.64V29.28H123.896L122.728 29.008L123.592 29.808L124.584 31.328L123.336 32.16L122.232 30.496L121.928 29.408L121.624 30.496L120.52 32.16Z" fill="white"/>
<path id="rightStarLower" d="M120.52 56.16L119.272 55.328L120.264 53.808L121.128 53.008L119.96 53.28H118.216V51.76H119.96L121.128 52.016L120.28 51.232L119.288 49.712L120.536 48.88L121.64 50.544L121.928 51.616L122.232 50.544L123.336 48.88L124.584 49.712L123.592 51.232L122.728 52.016L123.896 51.76H125.64V53.28H123.896L122.728 53.008L123.592 53.808L124.584 55.328L123.336 56.16L122.232 54.496L121.928 53.408L121.624 54.496L120.52 56.16Z" fill="white"/>
<path id="rightE" d="M118.376 84V72.8H125.24V74.352H120.024V77.44H123.496V78.992H120.024V82.432H125.592V84H118.376Z" fill="white"/>
<path id="rightU" d="M141.928 84.192C140.808 84.192 139.912 83.84 139.24 83.136C138.568 82.4213 138.232 81.2907 138.232 79.744V72.8H139.88V79.744C139.88 81.6747 140.563 82.64 141.928 82.64C143.304 82.64 143.992 81.6747 143.992 79.744V72.8H145.624V79.744C145.624 81.28 145.288 82.4053 144.616 83.12C143.955 83.8347 143.059 84.192 141.928 84.192Z" fill="white"/>
<path id="rightF" d="M139.376 34V22.8H146.672V24.352H141.024V27.44H145.056V28.992H141.024V34H139.376Z" fill="white"/>
<path id="rightR" d="M146.624 50.08C146.624 50.8053 146.427 51.4613 146.032 52.048C145.637 52.624 145.051 53.024 144.272 53.248L146.592 58H144.768L142.528 53.408H141.024V58H139.376V46.8H143.024C144.293 46.8 145.211 47.1093 145.776 47.728C146.341 48.3467 146.624 49.1307 146.624 50.08ZM141.024 48.32V51.872H143.056C143.728 51.872 144.213 51.7067 144.512 51.376C144.821 51.0347 144.976 50.6133 144.976 50.112C144.976 49.632 144.827 49.216 144.528 48.864C144.24 48.5013 143.749 48.32 143.056 48.32H141.024Z" fill="white"/>
<path id="rightP" d="M159.376 34V22.8H163.088C164.357 22.8 165.285 23.1307 165.872 23.792C166.469 24.4427 166.768 25.248 166.768 26.208C166.768 27.104 166.459 27.8987 165.84 28.592C165.232 29.2747 164.315 29.616 163.088 29.616H161.024V34H159.376ZM161.024 28.096H163.184C163.835 28.096 164.315 27.9093 164.624 27.536C164.944 27.1627 165.104 26.72 165.104 26.208C165.104 25.7173 164.955 25.28 164.656 24.896C164.357 24.512 163.867 24.32 163.184 24.32H161.024V28.096Z" fill="white"/>
<path id="rightB" d="M159.376 58V46.8H162.88C164.117 46.8 165.013 47.0827 165.568 47.648C166.123 48.2133 166.4 48.9173 166.4 49.76C166.4 50.8693 165.883 51.648 164.848 52.096C165.456 52.288 165.931 52.624 166.272 53.104C166.624 53.5733 166.8 54.128 166.8 54.768C166.8 55.664 166.501 56.4267 165.904 57.056C165.317 57.6853 164.389 58 163.12 58H159.376ZM161.024 51.44H162.608C163.323 51.44 163.861 51.3013 164.224 51.024C164.597 50.736 164.784 50.3413 164.784 49.84C164.784 48.816 164.171 48.304 162.944 48.304H161.024V51.44ZM161.024 56.48H163.264C163.957 56.48 164.448 56.32 164.736 56C165.035 55.68 165.184 55.2853 165.184 54.816C165.184 53.568 164.384 52.944 162.784 52.944H161.024V56.48Z" fill="white"/>
<path id="rightL" d="M179.376 34V22.8H181.024V32.416H186.272V34H179.376Z" fill="white"/>
<path id="rightG" d="M183.152 58.192C182.214 58.192 181.414 57.9093 180.752 57.344C180.102 56.768 179.632 56.0587 179.344 55.216C179.067 54.3627 178.928 53.424 178.928 52.4C178.928 51.3973 179.072 50.4693 179.36 49.616C179.659 48.752 180.139 48.0373 180.8 47.472C181.462 46.896 182.246 46.608 183.152 46.608C183.984 46.608 184.651 46.7947 185.152 47.168C185.654 47.5413 186.08 48.0533 186.432 48.704L184.976 49.536C184.475 48.608 183.867 48.144 183.152 48.144C182.566 48.144 182.075 48.3733 181.68 48.832C181.286 49.28 181.008 49.8133 180.848 50.432C180.699 51.04 180.624 51.696 180.624 52.4C180.624 53.584 180.838 54.5867 181.264 55.408C181.702 56.2293 182.331 56.64 183.152 56.64C183.76 56.64 184.23 56.432 184.56 56.016C184.891 55.5893 185.056 55.0293 185.056 54.336V53.952H183.072V52.432H186.752V53.872C186.752 55.2267 186.416 56.288 185.744 57.056C185.072 57.8133 184.208 58.192 183.152 58.192Z" fill="white"/>
<path id="rightT" d="M202.112 34V24.368H198.864V22.8H206.992V24.368H203.744V34H202.112Z" fill="white"/>
<path id="rightS" d="M203.04 58.192C202.155 58.192 201.371 57.9467 200.688 57.456C200.005 56.9547 199.525 56.3093 199.248 55.52L200.768 54.96C200.992 55.472 201.312 55.8827 201.728 56.192C202.155 56.5013 202.629 56.656 203.152 56.656C203.696 56.656 204.123 56.512 204.432 56.224C204.752 55.936 204.912 55.52 204.912 54.976C204.912 54.496 204.709 54.0853 204.304 53.744C203.899 53.392 203.344 53.0613 202.64 52.752C202.192 52.56 201.829 52.384 201.552 52.224C201.275 52.064 200.965 51.8507 200.624 51.584C200.283 51.3173 200.027 51.008 199.856 50.656C199.696 50.304 199.616 49.904 199.616 49.456C199.616 48.656 199.915 47.984 200.512 47.44C201.12 46.8853 201.92 46.608 202.912 46.608C203.701 46.608 204.379 46.8107 204.944 47.216C205.52 47.6213 205.899 48.144 206.08 48.784L204.592 49.28C204.443 48.9493 204.213 48.6773 203.904 48.464C203.605 48.24 203.248 48.128 202.832 48.128C202.373 48.128 202 48.2507 201.712 48.496C201.424 48.7307 201.28 49.0507 201.28 49.456C201.28 49.6693 201.328 49.8613 201.424 50.032C201.531 50.2027 201.696 50.368 201.92 50.528C202.144 50.6773 202.347 50.8 202.528 50.896C202.709 50.9813 202.976 51.104 203.328 51.264C203.349 51.2747 203.365 51.2853 203.376 51.296C203.387 51.296 203.403 51.3013 203.424 51.312C203.445 51.312 203.461 51.3173 203.472 51.328C203.899 51.5307 204.261 51.7227 204.56 51.904C204.859 52.0747 205.179 52.304 205.52 52.592C205.861 52.88 206.123 53.2213 206.304 53.616C206.485 54.0107 206.576 54.448 206.576 54.928C206.576 55.9307 206.24 56.7253 205.568 57.312C204.896 57.8987 204.053 58.192 203.04 58.192Z" fill="white"/>
<path id="rightD" d="M219.376 34V22.8H222.096C222.789 22.8 223.413 22.9067 223.968 23.12C224.523 23.3333 224.981 23.616 225.344 23.968C225.717 24.32 226.027 24.7413 226.272 25.232C226.517 25.712 226.693 26.2187 226.8 26.752C226.907 27.2747 226.96 27.824 226.96 28.4C226.96 28.944 226.912 29.4667 226.816 29.968C226.72 30.4693 226.549 30.9707 226.304 31.472C226.069 31.9733 225.771 32.4053 225.408 32.768C225.045 33.1307 224.571 33.4293 223.984 33.664C223.408 33.888 222.757 34 222.032 34H219.376ZM221.008 32.464H222.16C222.725 32.464 223.216 32.3467 223.632 32.112C224.048 31.8667 224.368 31.5413 224.592 31.136C224.827 30.7307 224.997 30.304 225.104 29.856C225.211 29.3973 225.264 28.912 225.264 28.4C225.264 27.2693 225.019 26.3093 224.528 25.52C224.037 24.72 223.307 24.32 222.336 24.32H221.008V32.464Z" fill="white"/>
<path id="rightZ" d="M226.64 46.8V48.032L221.344 56.448H226.608V58H219.232V56.784L224.496 48.352H219.6V46.8H226.64Z" fill="white"/>
</g>
</svg>
