<svg width="204" height="100" viewBox="0 0 204 100" fill="none" xmlns="http://www.w3.org/2000/svg">
<g id="yawei-chinese">
<rect id="RightHashKey" x="113" y="1" width="90" height="15" rx="3.5" fill="#E9D9F2" stroke="#7109AA"/>
<rect id="RightOKey" x="189" y="46" width="14" height="21" rx="3.5" fill="#E9D9F2" stroke="#7109AA"/>
<rect id="RightAKey" x="189" y="20" width="14" height="21" rx="3.5" fill="#E9D9F2" stroke="#7109AA"/>
<rect id="RightEKey" x="170" y="46" width="14" height="21" rx="3.5" fill="#E9D9F2" stroke="#7109AA"/>
<rect id="RightNKey" x="170" y="20" width="14" height="21" rx="3.5" fill="#E9D9F2" stroke="#7109AA"/>
<rect id="RightUKey" x="151" y="46" width="14" height="21" rx="3.5" fill="#E9D9F2" stroke="#7109AA"/>
<rect id="RightIKey" x="151" y="20" width="14" height="21" rx="3.5" fill="#E9D9F2" stroke="#7109AA"/>
<rect id="RightWKey" x="132" y="46" width="14" height="21" rx="3.5" fill="#E9D9F2" stroke="#7109AA"/>
<rect id="RightGKey" x="132" y="20" width="14" height="21" rx="3.5" fill="#E9D9F2" stroke="#7109AA"/>
<rect id="RightZKey" x="113" y="46" width="14" height="21" rx="3.5" fill="#E9D9F2" stroke="#7109AA"/>
<rect id="RightDKey" x="113" y="20" width="14" height="21" rx="3.5" fill="#E9D9F2" stroke="#7109AA"/>
<rect id="RightBKey" x="127" y="78" width="14" height="21" rx="3.5" fill="#E9D9F2" stroke="#7109AA"/>
<rect id="RightXKey" x="108" y="78" width="14" height="21" rx="3.5" fill="#E9D9F2" stroke="#7109AA"/>
<rect id="LeftHashKey" x="1" y="1" width="90" height="15" rx="3.5" fill="#E9D9F2" stroke="#7109AA"/>
<rect id="LeftXKey" x="82" y="78" width="14" height="21" rx="3.5" fill="#E9D9F2" stroke="#7109AA"/>
<rect id="LeftBKey" x="63" y="78" width="14" height="21" rx="3.5" fill="#E9D9F2" stroke="#7109AA"/>
<rect id="LeftDKey" x="77" y="20" width="14" height="21" rx="3.5" fill="#E9D9F2" stroke="#7109AA"/>
<rect id="LeftZKey" x="77" y="46" width="14" height="21" rx="3.5" fill="#E9D9F2" stroke="#7109AA"/>
<rect id="LeftGKey" x="58" y="20" width="14" height="21" rx="3.5" fill="#E9D9F2" stroke="#7109AA"/>
<rect id="LeftWKey" x="58" y="46" width="14" height="21" rx="3.5" fill="#E9D9F2" stroke="#7109AA"/>
<rect id="LeftIKey" x="39" y="20" width="14" height="21" rx="3.5" fill="#E9D9F2" stroke="#7109AA"/>
<rect id="LeftUKey" x="39" y="46" width="14" height="21" rx="3.5" fill="#E9D9F2" stroke="#7109AA"/>
<rect id="LeftNKey" x="20" y="20" width="14" height="21" rx="3.5" fill="#E9D9F2" stroke="#7109AA"/>
<rect id="LeftEKey" x="20" y="46" width="14" height="21" rx="3.5" fill="#E9D9F2" stroke="#7109AA"/>
<rect id="LeftAKey" x="1" y="20" width="14" height="21" rx="3.5" fill="#E9D9F2" stroke="#7109AA"/>
<rect id="LeftOKey" x="1" y="46" width="14" height="21" rx="3.5" fill="#E9D9F2" stroke="#7109AA"/>
<path id="LeftHash" d="M42.5518 14.0199L43.0158 10.9799H41.1758L41.3998 9.57195H43.2238L43.6078 7.02795H41.8318L42.0398 5.63595H43.8158L44.2478 2.81995H45.7038L45.2718 5.63595H47.3838L47.8158 2.81995H49.2718L48.8398 5.63595H50.6798L50.4718 7.02795H48.6318L48.2318 9.57195H50.0238L49.7998 10.9799H48.0238L47.5598 14.0199H46.1038L46.5678 10.9799H44.4718L44.0078 14.0199H42.5518ZM44.6798 9.57195H46.7758L47.1758 7.02795H45.0638L44.6798 9.57195Z" fill="white"/>
<path id="LeftO" d="M7.99831 62.192C7.30498 62.192 6.69164 62.032 6.15831 61.712C5.62498 61.3814 5.20364 60.9387 4.89431 60.384C4.58498 59.8294 4.35031 59.216 4.19031 58.544C4.04098 57.872 3.96631 57.1574 3.96631 56.4C3.96631 55.6427 4.04098 54.928 4.19031 54.256C4.35031 53.584 4.58498 52.9707 4.89431 52.416C5.20364 51.8614 5.62498 51.424 6.15831 51.104C6.69164 50.7734 7.30498 50.608 7.99831 50.608C8.70231 50.608 9.32098 50.7734 9.85431 51.104C10.3876 51.424 10.809 51.8614 11.1183 52.416C11.4276 52.9707 11.657 53.584 11.8063 54.256C11.9556 54.928 12.0303 55.6427 12.0303 56.4C12.0303 57.1574 11.9556 57.872 11.8063 58.544C11.657 59.216 11.4276 59.8294 11.1183 60.384C10.809 60.9387 10.3876 61.3814 9.85431 61.712C9.32098 62.032 8.70231 62.192 7.99831 62.192ZM7.99831 60.64C8.52098 60.64 8.96364 60.4267 9.32631 60C9.69964 59.5734 9.96098 59.0507 10.1103 58.432C10.2596 57.8134 10.3343 57.136 10.3343 56.4C10.3343 55.1734 10.1423 54.16 9.75831 53.36C9.37431 52.5494 8.78764 52.144 7.99831 52.144C7.47564 52.144 7.03298 52.3627 6.67031 52.8C6.30764 53.2267 6.05164 53.7494 5.90231 54.368C5.75298 54.9867 5.67831 55.664 5.67831 56.4C5.67831 57.616 5.87031 58.6294 6.25431 59.44C6.63831 60.24 7.21964 60.64 7.99831 60.64Z" fill="white"/>
<path id="LeftA" d="M10.6865 36L9.88652 33.392H6.12652L5.34252 36H3.58252L7.24652 24.8H8.73452L12.4305 36H10.6865ZM6.59052 31.904H9.42252L8.28652 28.192C8.16919 27.808 8.07319 27.4187 7.99852 27.024C7.92385 27.4187 7.82785 27.808 7.71052 28.192L6.59052 31.904Z" fill="white"/>
<path id="LeftE" d="M23.4463 62V50.8H30.3103V52.352H25.0943V55.44H28.5663V56.992H25.0943V60.432H30.6623V62H23.4463Z" fill="white"/>
<path id="LeftN" d="M23.4463 36V24.8H25.0303L28.6943 32.176C28.8436 32.4533 28.9556 32.6827 29.0303 32.864C29.009 32.4587 28.9983 32.2293 28.9983 32.176V24.8H30.5503V36H29.0303L25.3183 28.656C25.297 28.6133 25.2596 28.544 25.2063 28.448C25.1636 28.352 25.121 28.2613 25.0783 28.176C25.0356 28.0907 24.9983 28.016 24.9663 27.952C24.9876 28.1227 24.9983 28.352 24.9983 28.64V36H23.4463Z" fill="white"/>
<path id="LeftU" d="M45.9982 62.192C44.8782 62.192 43.9822 61.84 43.3102 61.136C42.6382 60.4213 42.3022 59.2907 42.3022 57.744V50.8H43.9502V57.744C43.9502 59.6747 44.6329 60.64 45.9982 60.64C47.3742 60.64 48.0622 59.6747 48.0622 57.744V50.8H49.6942V57.744C49.6942 59.28 49.3582 60.4053 48.6862 61.12C48.0249 61.8347 47.1289 62.192 45.9982 62.192Z" fill="white"/>
<path id="LeftI" d="M49.2784 26.272H46.8144V34.528H49.2784V36H42.7344V34.528H45.1824V26.272H42.7344V24.8H49.2784V26.272Z" fill="white"/>
<path id="LeftW" d="M62.1983 62L60.4863 50.8H61.9903L62.9663 57.824L63.0623 58.576C63.0943 58.32 63.1423 58.0693 63.2063 57.824L64.5023 50.8H65.5103L66.8223 57.776C66.8863 58.0427 66.9343 58.2773 66.9663 58.48C66.977 58.384 66.993 58.2613 67.0143 58.112C67.0357 57.952 67.0463 57.8453 67.0463 57.792L67.9423 50.8H69.5103L67.7983 62H66.4863L65.1263 54.896C65.0943 54.7467 65.0517 54.4907 64.9983 54.128C64.977 54.288 64.9343 54.5387 64.8703 54.88L63.5103 62H62.1983Z" fill="white"/>
<path id="LeftG" d="M65.2225 36.192C64.2839 36.192 63.4839 35.9093 62.8225 35.344C62.1719 34.768 61.7025 34.0586 61.4145 33.216C61.1372 32.3626 60.9985 31.424 60.9985 30.4C60.9985 29.3973 61.1425 28.4693 61.4305 27.616C61.7292 26.752 62.2092 26.0373 62.8705 25.472C63.5319 24.896 64.3159 24.608 65.2225 24.608C66.0545 24.608 66.7212 24.7946 67.2225 25.168C67.7239 25.5413 68.1505 26.0533 68.5025 26.704L67.0465 27.536C66.5452 26.608 65.9372 26.144 65.2225 26.144C64.6359 26.144 64.1452 26.3733 63.7505 26.832C63.3559 27.28 63.0785 27.8133 62.9185 28.432C62.7692 29.04 62.6945 29.696 62.6945 30.4C62.6945 31.584 62.9079 32.5866 63.3345 33.408C63.7719 34.2293 64.4012 34.64 65.2225 34.64C65.8305 34.64 66.2999 34.432 66.6305 34.016C66.9612 33.5893 67.1265 33.0293 67.1265 32.336V31.952H65.1425V30.432H68.8225V31.872C68.8225 33.2266 68.4865 34.288 67.8145 35.056C67.1425 35.8133 66.2785 36.192 65.2225 36.192Z" fill="white"/>
<path id="LeftZ" d="M87.7102 50.8V52.032L82.4142 60.448H87.6782V62H80.3022V60.784L85.5662 52.352H80.6702V50.8H87.7102Z" fill="white"/>
<path id="LeftD" d="M80.4463 36V24.8H83.1663C83.8596 24.8 84.4836 24.9067 85.0383 25.12C85.593 25.3333 86.0516 25.616 86.4143 25.968C86.7876 26.32 87.097 26.7413 87.3423 27.232C87.5876 27.712 87.7636 28.2187 87.8703 28.752C87.977 29.2747 88.0303 29.824 88.0303 30.4C88.0303 30.944 87.9823 31.4667 87.8863 31.968C87.7903 32.4693 87.6196 32.9707 87.3743 33.472C87.1396 33.9733 86.841 34.4053 86.4783 34.768C86.1156 35.1307 85.641 35.4293 85.0543 35.664C84.4783 35.888 83.8276 36 83.1023 36H80.4463ZM82.0783 34.464H83.2303C83.7956 34.464 84.2863 34.3467 84.7023 34.112C85.1183 33.8667 85.4383 33.5413 85.6623 33.136C85.897 32.7307 86.0676 32.304 86.1743 31.856C86.281 31.3973 86.3343 30.912 86.3343 30.4C86.3343 29.2693 86.089 28.3093 85.5983 27.52C85.1076 26.72 84.377 26.32 83.4063 26.32H82.0783V34.464Z" fill="white"/>
<path id="LeftB" d="M66.4463 94V82.8H69.9503C71.1876 82.8 72.0836 83.0827 72.6383 83.648C73.193 84.2133 73.4703 84.9173 73.4703 85.76C73.4703 86.8693 72.953 87.648 71.9183 88.096C72.5263 88.288 73.001 88.624 73.3423 89.104C73.6943 89.5733 73.8703 90.128 73.8703 90.768C73.8703 91.664 73.5716 92.4267 72.9743 93.056C72.3876 93.6853 71.4596 94 70.1903 94H66.4463ZM68.0943 87.44H69.6783C70.393 87.44 70.9316 87.3013 71.2943 87.024C71.6676 86.736 71.8543 86.3413 71.8543 85.84C71.8543 84.816 71.241 84.304 70.0143 84.304H68.0943V87.44ZM68.0943 92.48H70.3343C71.0276 92.48 71.5183 92.32 71.8063 92C72.105 91.68 72.2543 91.2853 72.2543 90.816C72.2543 89.568 71.4543 88.944 69.8543 88.944H68.0943V92.48Z" fill="white"/>
<path id="LeftX" d="M93.1743 94H91.3023L88.9663 89.712L86.6783 94H84.8223L88.1343 88.208L85.0623 82.8H86.9343L88.9983 86.624L91.0463 82.8H92.9023L89.8463 88.128L93.1743 94Z" fill="white"/>
<path id="RightHash" d="M154.552 14.0199L155.016 10.9799H153.176L153.4 9.57195H155.224L155.608 7.02795H153.832L154.04 5.63595H155.816L156.248 2.81995H157.704L157.272 5.63595H159.384L159.816 2.81995H161.272L160.84 5.63595H162.68L162.472 7.02795H160.632L160.232 9.57195H162.024L161.8 10.9799H160.024L159.56 14.0199H158.104L158.568 10.9799H156.472L156.008 14.0199H154.552ZM156.68 9.57195H158.776L159.176 7.02795H157.064L156.68 9.57195Z" fill="white"/>
<path id="RightX" d="M119.174 94H117.302L114.966 89.712L112.678 94H110.822L114.134 88.208L111.062 82.8H112.934L114.998 86.624L117.046 82.8H118.902L115.846 88.128L119.174 94Z" fill="white"/>
<path id="RightB" d="M130.446 94V82.8H133.95C135.188 82.8 136.084 83.0827 136.638 83.648C137.193 84.2133 137.47 84.9173 137.47 85.76C137.47 86.8693 136.953 87.648 135.918 88.096C136.526 88.288 137.001 88.624 137.342 89.104C137.694 89.5733 137.87 90.128 137.87 90.768C137.87 91.664 137.572 92.4267 136.974 93.056C136.388 93.6853 135.46 94 134.19 94H130.446ZM132.094 87.44H133.678C134.393 87.44 134.932 87.3013 135.294 87.024C135.668 86.736 135.854 86.3413 135.854 85.84C135.854 84.816 135.241 84.304 134.014 84.304H132.094V87.44ZM132.094 92.48H134.334C135.028 92.48 135.518 92.32 135.806 92C136.105 91.68 136.254 91.2853 136.254 90.816C136.254 89.568 135.454 88.944 133.854 88.944H132.094V92.48Z" fill="white"/>
<path id="RightD" d="M116.446 36V24.8H119.166C119.86 24.8 120.484 24.9067 121.038 25.12C121.593 25.3333 122.052 25.616 122.414 25.968C122.788 26.32 123.097 26.7413 123.342 27.232C123.588 27.712 123.764 28.2187 123.87 28.752C123.977 29.2747 124.03 29.824 124.03 30.4C124.03 30.944 123.982 31.4667 123.886 31.968C123.79 32.4693 123.62 32.9707 123.374 33.472C123.14 33.9733 122.841 34.4053 122.478 34.768C122.116 35.1307 121.641 35.4293 121.054 35.664C120.478 35.888 119.828 36 119.102 36H116.446ZM118.078 34.464H119.23C119.796 34.464 120.286 34.3467 120.702 34.112C121.118 33.8667 121.438 33.5413 121.662 33.136C121.897 32.7307 122.068 32.304 122.174 31.856C122.281 31.3973 122.334 30.912 122.334 30.4C122.334 29.2693 122.089 28.3093 121.598 27.52C121.108 26.72 120.377 26.32 119.406 26.32H118.078V34.464Z" fill="white"/>
<path id="RightZ" d="M123.71 50.8V52.032L118.414 60.448H123.678V62H116.302V60.784L121.566 52.352H116.67V50.8H123.71Z" fill="white"/>
<path id="RightG" d="M139.223 36.192C138.284 36.192 137.484 35.9093 136.823 35.344C136.172 34.768 135.703 34.0586 135.415 33.216C135.137 32.3626 134.999 31.424 134.999 30.4C134.999 29.3973 135.143 28.4693 135.431 27.616C135.729 26.752 136.209 26.0373 136.871 25.472C137.532 24.896 138.316 24.608 139.223 24.608C140.055 24.608 140.721 24.7946 141.223 25.168C141.724 25.5413 142.151 26.0533 142.503 26.704L141.047 27.536C140.545 26.608 139.937 26.144 139.223 26.144C138.636 26.144 138.145 26.3733 137.751 26.832C137.356 27.28 137.079 27.8133 136.919 28.432C136.769 29.04 136.695 29.696 136.695 30.4C136.695 31.584 136.908 32.5866 137.335 33.408C137.772 34.2293 138.401 34.64 139.223 34.64C139.831 34.64 140.3 34.432 140.631 34.016C140.961 33.5893 141.127 33.0293 141.127 32.336V31.952H139.143V30.432H142.823V31.872C142.823 33.2266 142.487 34.288 141.815 35.056C141.143 35.8133 140.279 36.192 139.223 36.192Z" fill="white"/>
<path id="RightW" d="M136.198 62L134.486 50.8H135.99L136.966 57.824L137.062 58.576C137.094 58.32 137.142 58.0693 137.206 57.824L138.502 50.8H139.51L140.822 57.776C140.886 58.0427 140.934 58.2773 140.966 58.48C140.977 58.384 140.993 58.2613 141.014 58.112C141.036 57.952 141.046 57.8453 141.046 57.792L141.942 50.8H143.51L141.798 62H140.486L139.126 54.896C139.094 54.7467 139.052 54.4907 138.998 54.128C138.977 54.288 138.934 54.5387 138.87 54.88L137.51 62H136.198Z" fill="white"/>
<path id="RightI" d="M161.278 26.272H158.814V34.528H161.278V36H154.734V34.528H157.182V26.272H154.734V24.8H161.278V26.272Z" fill="white"/>
<path id="RightU" d="M157.998 62.192C156.878 62.192 155.982 61.84 155.31 61.136C154.638 60.4213 154.302 59.2907 154.302 57.744V50.8H155.95V57.744C155.95 59.6747 156.633 60.64 157.998 60.64C159.374 60.64 160.062 59.6747 160.062 57.744V50.8H161.694V57.744C161.694 59.28 161.358 60.4053 160.686 61.12C160.025 61.8347 159.129 62.192 157.998 62.192Z" fill="white"/>
<path id="RightN" d="M173.446 36V24.8H175.03L178.694 32.176C178.844 32.4533 178.956 32.6827 179.03 32.864C179.009 32.4587 178.998 32.2293 178.998 32.176V24.8H180.55V36H179.03L175.318 28.656C175.297 28.6133 175.26 28.544 175.206 28.448C175.164 28.352 175.121 28.2613 175.078 28.176C175.036 28.0907 174.998 28.016 174.966 27.952C174.988 28.1227 174.998 28.352 174.998 28.64V36H173.446Z" fill="white"/>
<path id="RightE" d="M173.446 62V50.8H180.31V52.352H175.094V55.44H178.566V56.992H175.094V60.432H180.662V62H173.446Z" fill="white"/>
<path id="RightA" d="M198.687 36L197.887 33.392H194.127L193.343 36H191.583L195.247 24.8H196.735L200.431 36H198.687ZM194.591 31.904H197.423L196.287 28.192C196.169 27.808 196.073 27.4187 195.999 27.024C195.924 27.4187 195.828 27.808 195.711 28.192L194.591 31.904Z" fill="white"/>
<path id="RightO" d="M195.998 62.192C195.305 62.192 194.692 62.032 194.158 61.712C193.625 61.3814 193.204 60.9387 192.894 60.384C192.585 59.8294 192.35 59.216 192.19 58.544C192.041 57.872 191.966 57.1574 191.966 56.4C191.966 55.6427 192.041 54.928 192.19 54.256C192.35 53.584 192.585 52.9707 192.894 52.416C193.204 51.8614 193.625 51.424 194.158 51.104C194.692 50.7734 195.305 50.608 195.998 50.608C196.702 50.608 197.321 50.7734 197.854 51.104C198.388 51.424 198.809 51.8614 199.118 52.416C199.428 52.9707 199.657 53.584 199.806 54.256C199.956 54.928 200.03 55.6427 200.03 56.4C200.03 57.1574 199.956 57.872 199.806 58.544C199.657 59.216 199.428 59.8294 199.118 60.384C198.809 60.9387 198.388 61.3814 197.854 61.712C197.321 62.032 196.702 62.192 195.998 62.192ZM195.998 60.64C196.521 60.64 196.964 60.4267 197.326 60C197.7 59.5734 197.961 59.0507 198.11 58.432C198.26 57.8134 198.334 57.136 198.334 56.4C198.334 55.1734 198.142 54.16 197.758 53.36C197.374 52.5494 196.788 52.144 195.998 52.144C195.476 52.144 195.033 52.3627 194.67 52.8C194.308 53.2267 194.052 53.7494 193.902 54.368C193.753 54.9867 193.678 55.664 193.678 56.4C193.678 57.616 193.87 58.6294 194.254 59.44C194.638 60.24 195.22 60.64 195.998 60.64Z" fill="white"/>
</g>
</svg>
