<svg width="204" height="100" viewBox="0 0 204 100" fill="none" xmlns="http://www.w3.org/2000/svg">
<rect width="204" height="100" fill="white"/>
<rect x="113" y="1" width="90" height="15" rx="3.5" fill="#7109AA" stroke="#7109AA"/>
<rect x="189" y="46" width="14" height="21" rx="3.5" fill="#7109AA" stroke="#7109AA"/>
<rect x="189" y="20" width="14" height="21" rx="3.5" fill="#7109AA" stroke="#7109AA"/>
<rect x="170" y="46" width="14" height="21" rx="3.5" fill="#7109AA" stroke="#7109AA"/>
<rect x="170" y="20" width="14" height="21" rx="3.5" fill="#7109AA" stroke="#7109AA"/>
<rect x="151" y="46" width="14" height="21" rx="3.5" fill="#7109AA" stroke="#7109AA"/>
<rect x="151" y="20" width="14" height="21" rx="3.5" fill="#7109AA" stroke="#7109AA"/>
<rect x="132" y="46" width="14" height="21" rx="3.5" fill="#7109AA" stroke="#7109AA"/>
<rect x="132" y="20" width="14" height="21" rx="3.5" fill="#7109AA" stroke="#7109AA"/>
<rect x="113" y="46" width="14" height="21" rx="3.5" fill="#7109AA" stroke="#7109AA"/>
<rect x="113" y="20" width="14" height="21" rx="3.5" fill="#7109AA" stroke="#7109AA"/>
<rect x="127" y="78" width="14" height="21" rx="3.5" fill="#7109AA" stroke="#7109AA"/>
<rect x="108" y="78" width="14" height="21" rx="3.5" fill="#7109AA" stroke="#7109AA"/>
<rect x="1" y="1" width="90" height="15" rx="3.5" fill="#7109AA" stroke="#7109AA"/>
<rect x="82" y="78" width="14" height="21" rx="3.5" fill="#7109AA" stroke="#7109AA"/>
<rect x="63" y="78" width="14" height="21" rx="3.5" fill="#7109AA" stroke="#7109AA"/>
<rect x="77" y="20" width="14" height="21" rx="3.5" fill="#7109AA" stroke="#7109AA"/>
<rect x="77" y="46" width="14" height="21" rx="3.5" fill="#7109AA" stroke="#7109AA"/>
<rect x="58" y="20" width="14" height="21" rx="3.5" fill="#7109AA" stroke="#7109AA"/>
<rect x="58" y="46" width="14" height="21" rx="3.5" fill="#7109AA" stroke="#7109AA"/>
<rect x="39" y="20" width="14" height="21" rx="3.5" fill="#7109AA" stroke="#7109AA"/>
<rect x="39" y="46" width="14" height="21" rx="3.5" fill="#7109AA" stroke="#7109AA"/>
<rect x="20" y="20" width="14" height="21" rx="3.5" fill="#7109AA" stroke="#7109AA"/>
<rect x="20" y="46" width="14" height="21" rx="3.5" fill="#7109AA" stroke="#7109AA"/>
<rect x="1" y="20" width="14" height="21" rx="3.5" fill="#7109AA" stroke="#7109AA"/>
<rect x="1" y="46" width="14" height="21" rx="3.5" fill="#7109AA" stroke="#7109AA"/>
<text fill="white" xml:space="preserve" style="white-space: pre" font-family="Overpass Mono" font-size="16" font-weight="600" letter-spacing="0em"><tspan x="41" y="14.104">#</tspan></text>
<text fill="white" xml:space="preserve" style="white-space: pre" font-family="Overpass Mono" font-size="16" font-weight="600" letter-spacing="0em"><tspan x="3.07031" y="62.084">O</tspan></text>
<text fill="white" xml:space="preserve" style="white-space: pre" font-family="Overpass Mono" font-size="16" font-weight="600" letter-spacing="0em"><tspan x="3.07031" y="36.084">A</tspan></text>
<text fill="white" xml:space="preserve" style="white-space: pre" font-family="Overpass Mono" font-size="16" font-weight="600" letter-spacing="0em"><tspan x="22.0703" y="62.084">E</tspan></text>
<text fill="white" xml:space="preserve" style="white-space: pre" font-family="Overpass Mono" font-size="16" font-weight="600" letter-spacing="0em"><tspan x="22.0703" y="36.084">N</tspan></text>
<text fill="white" xml:space="preserve" style="white-space: pre" font-family="Overpass Mono" font-size="16" font-weight="600" letter-spacing="0em"><tspan x="41.0703" y="62.084">U</tspan></text>
<text fill="white" xml:space="preserve" style="white-space: pre" font-family="Overpass Mono" font-size="16" font-weight="600" letter-spacing="0em"><tspan x="41.0703" y="36.084">I</tspan></text>
<text fill="white" xml:space="preserve" style="white-space: pre" font-family="Overpass Mono" font-size="16" font-weight="600" letter-spacing="0em"><tspan x="60.0703" y="62.084">W</tspan></text>
<text fill="white" xml:space="preserve" style="white-space: pre" font-family="Overpass Mono" font-size="16" font-weight="600" letter-spacing="0em"><tspan x="60.0703" y="36.084">G</tspan></text>
<text fill="white" xml:space="preserve" style="white-space: pre" font-family="Overpass Mono" font-size="16" font-weight="600" letter-spacing="0em"><tspan x="79.0703" y="62.084">Z</tspan></text>
<text fill="white" xml:space="preserve" style="white-space: pre" font-family="Overpass Mono" font-size="16" font-weight="600" letter-spacing="0em"><tspan x="79.0703" y="36.084">D</tspan></text>
<text fill="white" xml:space="preserve" style="white-space: pre" font-family="Overpass Mono" font-size="16" font-weight="600" letter-spacing="0em"><tspan x="65.0703" y="94.084">B</tspan></text>
<text fill="white" xml:space="preserve" style="white-space: pre" font-family="Overpass Mono" font-size="16" font-weight="600" letter-spacing="0em"><tspan x="84.0703" y="94.084">X</tspan></text>
<text fill="white" xml:space="preserve" style="white-space: pre" font-family="Overpass Mono" font-size="16" font-weight="600" letter-spacing="0em"><tspan x="153" y="14.104">#</tspan></text>
<text fill="white" xml:space="preserve" style="white-space: pre" font-family="Overpass Mono" font-size="16" font-weight="600" letter-spacing="0em"><tspan x="110.07" y="94.084">X</tspan></text>
<text fill="white" xml:space="preserve" style="white-space: pre" font-family="Overpass Mono" font-size="16" font-weight="600" letter-spacing="0em"><tspan x="129.07" y="94.084">B</tspan></text>
<text fill="white" xml:space="preserve" style="white-space: pre" font-family="Overpass Mono" font-size="16" font-weight="600" letter-spacing="0em"><tspan x="115.07" y="36.084">D</tspan></text>
<text fill="white" xml:space="preserve" style="white-space: pre" font-family="Overpass Mono" font-size="16" font-weight="600" letter-spacing="0em"><tspan x="115.07" y="62.084">Z</tspan></text>
<text fill="white" xml:space="preserve" style="white-space: pre" font-family="Overpass Mono" font-size="16" font-weight="600" letter-spacing="0em"><tspan x="134.07" y="36.084">G</tspan></text>
<text fill="white" xml:space="preserve" style="white-space: pre" font-family="Overpass Mono" font-size="16" font-weight="600" letter-spacing="0em"><tspan x="134.07" y="62.084">W</tspan></text>
<text fill="white" xml:space="preserve" style="white-space: pre" font-family="Overpass Mono" font-size="16" font-weight="600" letter-spacing="0em"><tspan x="153.07" y="36.084">I</tspan></text>
<text fill="white" xml:space="preserve" style="white-space: pre" font-family="Overpass Mono" font-size="16" font-weight="600" letter-spacing="0em"><tspan x="153.07" y="62.084">U</tspan></text>
<text fill="white" xml:space="preserve" style="white-space: pre" font-family="Overpass Mono" font-size="16" font-weight="600" letter-spacing="0em"><tspan x="172.07" y="36.084">N</tspan></text>
<text fill="white" xml:space="preserve" style="white-space: pre" font-family="Overpass Mono" font-size="16" font-weight="600" letter-spacing="0em"><tspan x="172.07" y="62.084">E</tspan></text>
<text fill="white" xml:space="preserve" style="white-space: pre" font-family="Overpass Mono" font-size="16" font-weight="600" letter-spacing="0em"><tspan x="191.07" y="36.084">A</tspan></text>
<text fill="white" xml:space="preserve" style="white-space: pre" font-family="Overpass Mono" font-size="16" font-weight="600" letter-spacing="0em"><tspan x="191.07" y="62.084">O</tspan></text>
</svg>
