<svg viewBox="0 0 202 108" xmlns="http://www.w3.org/2000/svg">
  <g id="japanese" fill="none" fill-rule="evenodd">
    <g transform="translate(1 2)" fill-rule="nonzero">
      <rect id="theカ" stroke="#7109AA" fill="#E9D9F2" x="126" y="81" width="20" height="24" rx="4"/>
      <rect id="theRightKagikakko" stroke="#7109AA" fill="#E9D9F2" x="104" y="81" width="20" height="24" rx="4"/>
      <rect id="theRightっ" stroke="#7109AA" fill="#E9D9F2" x="180" y="51" width="20" height="24" rx="4"/>
      <rect id="theRightお" stroke="#7109AA" fill="#E9D9F2" x="180" y="22" width="20" height="26" rx="4"/>
      <rect id="theRight1" stroke="#7109AA" fill="#E9D9F2" x="180" width="20" height="19" rx="4"/>
      <rect id="theRightう" stroke="#7109AA" fill="#E9D9F2" x="158" y="51" width="20" height="24" rx="4"/>
      <rect id="theRightい" stroke="#7109AA" fill="#E9D9F2" x="158" y="22" width="20" height="26" rx="4"/>
      <rect id="theRight2" stroke="#7109AA" fill="#E9D9F2" x="158" width="20" height="19" rx="4"/>
      <rect id="theRightさ" stroke="#7109AA" fill="#E9D9F2" x="136" y="51" width="20" height="24" rx="4"/>
      <rect id="theRightか" stroke="#7109AA" fill="#E9D9F2" x="136" y="22" width="20" height="26" rx="4"/>
      <rect id="theRight3" stroke="#7109AA" fill="#E9D9F2" x="136" width="20" height="19" rx="4"/>
      <rect id="theRightな" stroke="#7109AA" fill="#E9D9F2" x="114" y="51" width="20" height="24" rx="4"/>
      <rect id="theRightた" stroke="#7109AA" fill="#E9D9F2" x="114" y="22" width="20" height="26" rx="4"/>
      <rect id="theRight4" stroke="#7109AA" fill="#E9D9F2" x="114" width="20" height="19" rx="4"/>
      <rect id="theStar" stroke="#7109AA" fill="#E9D9F2" x="90" width="20" height="75" rx="4"/>
      <rect id="theLeftっ" stroke="#7109AA" fill="#E9D9F2" y="51" width="20" height="24" rx="4"/>
      <rect id="theLeftお" stroke="#7109AA" fill="#E9D9F2" y="22" width="20" height="26" rx="4"/>
      <rect id="theLeft1" stroke="#7109AA" fill="#E9D9F2" width="20" height="19" rx="4"/>
      <rect id="theLeftう" stroke="#7109AA" fill="#E9D9F2" x="22" y="51" width="20" height="24" rx="4"/>
      <rect id="theLeftい" stroke="#7109AA" fill="#E9D9F2" x="22" y="22" width="20" height="26" rx="4"/>
      <rect id="theLeft2" stroke="#7109AA" fill="#E9D9F2" x="22" width="20" height="19" rx="4"/>
      <rect id="theLeftさ" stroke="#7109AA" fill="#E9D9F2" x="44" y="51" width="20" height="24" rx="4"/>
      <rect id="theLeftか" stroke="#7109AA" fill="#E9D9F2" x="44" y="22" width="20" height="26" rx="4"/>
      <rect id="theLeft3" stroke="#7109AA" fill="#E9D9F2" x="44" width="20" height="19" rx="4"/>
      <rect id="theLeftな" stroke="#7109AA" fill="#E9D9F2" x="66" y="51" width="20" height="24" rx="4"/>
      <rect id="theLeftた" stroke="#7109AA" fill="#E9D9F2" x="66" y="22" width="20" height="26" rx="4"/>
      <rect id="theLeft4" stroke="#7109AA" fill="#E9D9F2" x="66" width="20" height="19" rx="4"/>
      <rect id="theLeftKagikakko" stroke="#7109AA" fill="#E9D9F2" x="76" y="81" width="20" height="24" rx="4"/>
      <rect id="the漢" stroke="#7109AA" fill="#E9D9F2" x="54" y="81" width="20" height="24" rx="4"/>
      <path d="M133.76 86.2h2.08c0 .8533376-.016 1.6533296-.048 2.4h6.08v1.648c0 1.6426749-.032 3.0026613-.096 4.08-.064 1.0773387-.157333 1.9626632-.28 2.656-.122667.6933368-.306665 1.2133316-.552 1.56-.245335.3466684-.514665.5813327-.808.704-.293335.1226673-.674664.184-1.144.184-.704004 0-1.802659-.0746659-3.296-.224l.176-1.936c1.098672.1066672 1.925331.16 2.48.16.341335 0 .594666-.1253321.76-.376.165334-.2506679.293333-.8159956.384-1.696.090667-.8800044.136-2.2373242.136-4.072v-.768h-3.968c-.213334 2.2826781-.67733 4.1093265-1.392 5.48-.71467 1.3706735-1.797326 2.6159944-3.248 3.736l-1.344-1.472c1.216006-.9280046 2.119997-1.9519944 2.712-3.072.592003-1.1200056.989332-2.6773234 1.192-4.672h-3.776V88.6h3.904c.032-.7360037.048-1.5359957.048-2.4z" id="theカSymbol" fill="#FFF"/>
      <path id="theRight」Symbol" fill="#FFF" d="M114.648 87.488h2.032v12.224h-6.672V98h4.64z"/>
      <path d="M184.592 62.048c2.592013-.6186698 4.55466-.928 5.888-.928 3.28535 0 4.928 1.370653 4.928 4.112 0 3.4560173-2.805305 5.184-8.416 5.184l-.144-1.824c2.304012 0 3.962662-.266664 4.976-.8s1.52-1.3386613 1.52-2.416c0-.8213374-.242664-1.4239981-.728-1.808-.485336-.3840019-1.261328-.576-2.328-.576-1.024005 0-2.794654.2933304-5.312.88l-.384-1.824z" id="theRightっSymbol" fill="#FFF"/>
      <path d="M183.872 30.072h3.728v-1.984h2.032v1.984h3.52v1.696h-3.52v2.016c.405335-.0213334.725332-.032.96-.032 1.578675 0 2.853328.3679963 3.824 1.104.970672.7360037 1.456 1.6266614 1.456 2.672 0 1.258673-.386663 2.250663-1.16 2.976-.773337.725337-1.917326 1.1733325-3.432 1.344l-.432-1.808c1.024005-.1280006 1.770664-.3866647 2.24-.776.469336-.3893353.704-.9306632.704-1.624 0-.533336-.290664-.9946647-.872-1.384-.581336-.3893353-1.357328-.584-2.328-.584-.234668 0-.554665.0106666-.96.032v3.328c0 .9813382-.191998 1.6613314-.576 2.04-.384002.3786686-1.066662.568-2.048.568-1.066672 0-1.97333-.3279967-2.72-.984-.74667-.6560033-1.12-1.4639952-1.12-2.424 0-.9386714.386663-1.7839962 1.16-2.536.773337-.7520038 1.863993-1.2933317 3.272-1.624v-2.304h-3.728v-1.696zm9.792.368l1.424-1.008c.949338 1.258673 1.775996 2.4746608 2.48 3.648l-1.504.896c-.74667-1.2373395-1.546662-2.4159944-2.4-3.536zm-6.064 5.584c-.789337.2240011-1.386665.5306647-1.792.92-.405335.3893353-.608.8186643-.608 1.288 0 .4160021.167998.786665.504 1.112.336002.325335.701331.488 1.096.488.309335 0 .519999-.0639994.632-.192.112001-.1280006.168-.3679982.168-.72v-2.896z" id="theRightおSymbol" fill="#FFF"/>
      <path id="theRight1Symbol" fill="#FFF" d="M189.672 15V5.928h-.016l-2.8 2.56-.752-1.856 3.568-3.312h2.304V15z"/>
      <path d="M161.856 62.64c1.248006-.3200016 2.54666-.5786657 3.896-.776 1.34934-.1973343 2.487995-.296 3.416-.296 1.664008 0 2.898663.3173302 3.704.952.805337.6346698 1.208 1.4746614 1.208 2.52 0 1.6106747-.757326 2.9173283-2.272 3.92-1.514674 1.0026717-3.743985 1.6159989-6.688 1.84l-.4-1.888c2.464012-.2453346 4.285327-.6986634 5.464-1.36 1.178673-.6613366 1.768-1.4613286 1.768-2.4 0-1.1093389-.95999-1.664-2.88-1.664-1.546674 0-3.802652.3413299-6.768 1.024l-.448-1.872zm2.24-3.248l.24-1.872c2.549346.3520018 5.034655.528 7.456.528v1.92c-2.346678 0-4.911986-.1919981-7.696-.576z" id="theRightうSymbol" fill="#FFF"/>
      <path d="M170.56 30.248l1.968-.576c1.461341 2.9440147 2.192 6.3999802 2.192 10.368h-2.128c0-1.7173419-.178665-3.4293248-.536-5.136-.357335-1.7066752-.855997-3.2586597-1.496-4.656zm-6.032-.224c-.490669 1.6853418-.736 3.4773238-.736 5.376 0 1.1840059.189331 2.1813293.568 2.992.378669.8106707.754665 1.216 1.128 1.216.266668 0 .623998-.303997 1.072-.912.448002-.608003.890664-1.4773277 1.328-2.608l1.872.72c-.533336 1.5466744-1.215996 2.757329-2.048 3.632-.832004.874671-1.626663 1.312-2.384 1.312-.906671 0-1.746663-.6186605-2.52-1.856-.773337-1.2373395-1.16-2.7359912-1.16-4.496 0-2.0053434.266664-3.8773246.8-5.616l2.08.24z" id="theRightいSymbol" fill="#FFF"/>
      <path d="M164.296 13.192c1.461341-1.141339 2.583996-2.0986628 3.368-2.872.784004-.7733372 1.309332-1.41599744 1.576-1.928.266668-.51200256.4-1.04533056.4-1.6 0-1.18400592-.63466-1.776-1.904-1.776-.896004 0-1.914661.36799632-3.056 1.104l-.592-1.792c.533336-.36266848 1.154663-.64799896 1.864-.856.709337-.20800104 1.410663-.312 2.104-.312 1.248006 0 2.210663.30133032 2.888.904.677337.60266968 1.016 1.437328 1.016 2.504 0 1.00267168-.31733 1.96799536-.952 2.896-.63467.9280046-1.874657 2.1599923-3.72 3.696v.032h4.688V15h-7.68v-1.808z" id="theRight2Symbol" fill="#FFF"/>
      <path d="M147.744 63.6l.016-.016c-.373335-.7573371-.671999-1.6213285-.896-2.592-2.464012.0640003-4.901321.096-7.312.096V59.28c2.314678 0 4.645322-.0319997 6.992-.096-.085334-.6506699-.144-1.2906635-.176-1.92l2.032-.128c.032.7680038.085333 1.4293306.16 1.984 1.706675-.0640003 3.002662-.1173331 3.888-.16l.064 1.808c-.800004.0426669-2.010659.0959997-3.632.16.330668 1.33334.949329 2.7093262 1.856 4.128l-1.936.976c-1.152006-.7680038-2.389327-1.152-3.712-1.152-.810671 0-1.439998.162665-1.888.488s-.672.7653306-.672 1.32c0 .7360037.330663 1.303998.992 1.704.661337.400002 1.647993.6 2.96.6 1.173339 0 2.469326-.1439986 3.888-.432l.336 1.808c-1.354673.2880014-2.762659.432-4.224.432-2.04801 0-3.573328-.3839962-4.576-1.152-1.002672-.7680038-1.504-1.7866603-1.504-3.056 0-1.066672.405329-1.9199968 1.216-2.56.810671-.6400032 1.935993-.96 3.376-.96.938671 0 1.855996.1759982 2.752.528z" id="theRightさSymbol" fill="#FFF"/>
      <path d="M142.672 41l.56-1.84c1.130672.4053354 1.930664.608 2.4.608.181334 0 .346666-.133332.496-.4.149334-.266668.279999-.7386633.392-1.416.112001-.6773367.168-1.511995.168-2.504 0-1.2800064-.055999-2.0266656-.168-2.24-.112001-.2133344-.514663-.32-1.208-.32h-1.664c-.704004 3.008015-1.663994 6.0053184-2.88 8.992l-1.808-.64c1.066672-2.6986802 1.951996-5.4826523 2.656-8.352h-2.448V31.08h2.864c.245335-1.1626725.447999-2.2346618.608-3.216l1.92.176c-.138667 1.0026717-.314666 2.0159949-.528 3.04h2.28c.272001 0 .573332.0319997.904.096.330668.0640003.557333.1173331.68.16.122667.0426669.266666.1653323.432.368.165334.2026677.264.3839992.296.544.032.1600008.074666.4453313.128.856.053334.4106687.08.786665.08 1.128v1.536c0 2.0480102-.250664 3.5573285-.752 4.528-.501336.9706715-1.178662 1.456-2.032 1.456-.416002 0-.94933-.0719993-1.6-.216-.65067-.1440007-1.242664-.3226656-1.776-.536zm6.4-10.544l1.936-.576c1.066672 2.6773467 1.94133 5.3653198 2.624 8.064l-1.968.48c-.704004-2.7626805-1.567995-5.4186539-2.592-7.968z" id="theRightかSymbol" fill="#FFF"/>
      <path d="M142.264 3.32h7.488v1.808l-3.28 2.976v.032h.272c.981338 0 1.754664.2799972 2.32.84.565336.5600028.848 1.3413283.848 2.344 0 1.2266728-.37333 2.17333-1.12 2.84-.74667.66667-1.813326 1-3.2 1-1.248006 0-2.383995-.2826638-3.408-.848l.576-1.76c.992005.533336 1.903996.8 2.736.8.704004 0 1.247998-.170665 1.632-.512.384002-.341335.576-.8373301.576-1.488 0-.5973363-.215998-1.0266654-.648-1.288-.432002-.26133464-1.191995-.392-2.28-.392h-.96v-1.6l3.2-2.912v-.032h-4.752V3.32z" id="theRight3Symbol" fill="#FFF"/>
      <path d="M130.88 61.312c-.885338-.1493341-1.802662-.2399998-2.752-.272v5.136c.928005.5760029 1.951994 1.3759949 3.072 2.4l-1.264 1.408c-.640003-.5546694-1.274664-1.0826642-1.904-1.584-.160001.8640043-.538664 1.4986646-1.136 1.904-.597336.4053354-1.434661.608-2.512.608-1.184006 0-2.10933-.2719973-2.776-.816-.66667-.5440027-1-1.2853286-1-2.224 0-.9173379.327997-1.6453306.984-2.184.656003-.5386694 1.586661-.808 2.792-.808.544003 0 1.114664.1013323 1.712.304v-6.016c1.888009 0 3.562659.1066656 5.024.32l-.24 1.824zm-13.808-.32v-1.824h2.736c.234668-.9066712.421333-1.6586637.56-2.256l1.92.256c-.128001.6186698-.287999 1.2853298-.48 2h2.672v1.824h-3.152c-.800004 2.8160141-1.722661 5.4879874-2.768 8.016l-1.856-.624c.981338-2.4213454 1.84533-4.8853208 2.592-7.392h-2.224zm9.024 6.096c-.629336-.3200016-1.199997-.48-1.712-.48-.58667 0-1.026665.1119989-1.32.336-.293335.2240011-.44.5333314-.44.928 0 .4160021.154665.7413322.464.976.309335.2346678.741331.352 1.296.352.65067 0 1.098665-.133332 1.344-.4.245335-.266668.368-.7733296.368-1.52v-.192z" id="theRightなSymbol" fill="#FFF"/>
      <path d="M130.208 34.792c-2.272011 0-4.426656.1226654-6.464.368l-.128-1.792c2.090677-.2453346 4.287988-.368 6.592-.368v1.792zm.128 4.72l.24 1.808c-1.141339.2133344-2.266661.32-3.376.32-1.472007 0-2.647996-.2693306-3.528-.808-.880004-.5386694-1.32-1.2293291-1.32-2.072 0-.8213374.533328-1.6479958 1.6-2.48l1.456.928c-.416002.3520018-.693333.6213324-.832.808-.138667.1866676-.208.3653325-.208.536 0 .3733352.253331.6799988.76.92.506669.2400012 1.197329.36 2.072.36.949338 0 1.994661-.1066656 3.136-.32zM117.6 31.72v-1.808h2.544c.149334-.8533376.261333-1.4986645.336-1.936l2.032.176c-.128001.7893373-.229333 1.3759981-.304 1.76h5.584v1.808h-5.936c-.71467 3.5626845-1.621328 6.9653171-2.72 10.208l-2.016-.464c1.088005-3.1893493 1.97333-6.4373168 2.656-9.744H117.6z" id="theRightたSymbol" fill="#FFF"/>
      <path d="M124.488 10.84V6.248h-.032l-3.168 4.56v.032h3.2zm2.16 0h1.792v1.76h-1.792V15h-2.16v-2.4h-5.28v-1.76l5.28-7.52h2.16v7.52z" id="theRight4Symbol" fill="#FFF"/>
      <path id="theStarSymbol" fill="#FFF" d="M103.872 34.232l-2.288.672 1.456 1.904-1.408 1.008-1.344-1.968-1.344 1.968-1.408-1.008 1.472-1.904-2.304-.672.528-1.648 2.256.816-.064-2.4h1.728l-.064 2.4 2.256-.816z"/>
      <path d="M4.592 62.048c2.59201296-.6186698 4.55466-.928 5.888-.928 3.2853498 0 4.928 1.370653 4.928 4.112 0 3.4560173-2.8053053 5.184-8.416 5.184l-.144-1.824c2.30401152 0 3.9626616-.266664 4.976-.8 1.0133384-.533336 1.52-1.3386613 1.52-2.416 0-.8213374-.2426642-1.4239981-.728-1.808-.4853358-.3840019-1.261328-.576-2.328-.576-1.02400512 0-2.79465408.2933304-5.312.88l-.384-1.824z" id="theLeftっSymbol" fill="#FFF"/>
      <path d="M3.872 30.072H7.6v-1.984h2.032v1.984h3.52v1.696h-3.52v2.016c.4053354-.0213334.7253322-.032.96-.032 1.5786746 0 2.8533285.3679963 3.824 1.104.9706715.7360037 1.456 1.6266614 1.456 2.672 0 1.258673-.3866628 2.250663-1.16 2.976-.7733372.725337-1.9173258 1.1733325-3.432 1.344l-.432-1.808c1.0240051-.1280006 1.7706643-.3866647 2.24-.776.4693357-.3893353.704-.9306632.704-1.624 0-.533336-.2906638-.9946647-.872-1.384-.5813362-.3893353-1.3573285-.584-2.328-.584-.2346678 0-.5546646.0106666-.96.032v3.328c0 .9813382-.19199808 1.6613314-.576 2.04-.38400192.3786686-1.06666176.568-2.048.568-1.066672 0-1.9733296-.3279967-2.72-.984-.7466704-.6560033-1.12-1.4639952-1.12-2.424 0-.9386714.3866628-1.7839962 1.16-2.536s1.86399296-1.2933317 3.272-1.624v-2.304H3.872v-1.696zm9.792.368l1.424-1.008c.9493381 1.258673 1.7759965 2.4746608 2.48 3.648l-1.504.896c-.7466704-1.2373395-1.5466624-2.4159944-2.4-3.536zM7.6 36.024c-.78933728.2240011-1.38666464.5306647-1.792.92-.40533536.3893353-.608.8186643-.608 1.288 0 .4160021.16799832.786665.504 1.112.33600168.325335.70133136.488 1.096.488.30933488 0 .51999944-.0639994.632-.192.11200056-.1280006.168-.3679982.168-.72v-2.896z" id="theLeftおSymbol" fill="#FFF"/>
      <path id="theLeft1Symbol" fill="#FFF" d="M9.672 15V5.928h-.016l-2.8 2.56-.752-1.856L9.672 3.32h2.304V15z"/>
      <path d="M25.856 62.64c1.2480062-.3200016 2.5466599-.5786657 3.896-.776 1.3493401-.1973343 2.4879954-.296 3.416-.296 1.6640083 0 2.8986626.3173302 3.704.952s1.208 1.4746614 1.208 2.52c0 1.6106747-.7573258 2.9173283-2.272 3.92-1.5146742 1.0026717-3.7439853 1.6159989-6.688 1.84l-.4-1.888c2.4640123-.2453346 4.2853274-.6986634 5.464-1.36 1.1786726-.6613366 1.768-1.4613286 1.768-2.4 0-1.1093389-.9599904-1.664-2.88-1.664-1.5466744 0-3.8026518.3413299-6.768 1.024l-.448-1.872zm2.24-3.248l.24-1.872c2.5493461.3520018 5.0346546.528 7.456.528v1.92c-2.3466784 0-4.9119861-.1919981-7.696-.576z" id="theLeftうSymbol" fill="#FFF"/>
      <path d="M34.56 30.248l1.968-.576c1.4613406 2.9440147 2.192 6.3999802 2.192 10.368h-2.128c0-1.7173419-.1786649-3.4293248-.536-5.136-.3573351-1.7066752-.8559968-3.2586597-1.496-4.656zm-6.032-.224c-.4906691 1.6853418-.736 3.4773238-.736 5.376 0 1.1840059.1893314 2.1813293.568 2.992.3786686.8106707.7546648 1.216 1.128 1.216.266668 0 .6239978-.303997 1.072-.912.4480022-.608003.8906645-1.4773277 1.328-2.608l1.872.72c-.533336 1.5466744-1.2159958 2.757329-2.048 3.632-.8320042.874671-1.6266629 1.312-2.384 1.312-.9066712 0-1.7466628-.6186605-2.52-1.856-.7733372-1.2373395-1.16-2.7359912-1.16-4.496 0-2.0053434.266664-3.8773246.8-5.616l2.08.24z" id="theLeftいSymbol" fill="#FFF"/>
      <path d="M28.296 13.192c1.4613406-1.141339 2.5839961-2.0986628 3.368-2.872.7840039-.7733372 1.309332-1.41599744 1.576-1.928.266668-.51200256.4-1.04533056.4-1.6 0-1.18400592-.6346603-1.776-1.904-1.776-.8960045 0-1.914661.36799632-3.056 1.104l-.592-1.792c.533336-.36266848 1.1546631-.64799896 1.864-.856.7093369-.20800104 1.4106632-.312 2.104-.312 1.2480062 0 2.2106633.30133032 2.888.904.6773367.60266968 1.016 1.437328 1.016 2.504 0 1.00267168-.3173302 1.96799536-.952 2.896-.6346698.9280046-1.8746574 2.1599923-3.72 3.696v.032h4.688V15h-7.68v-1.808z" id="theLeft2Symbol" fill="#FFF"/>
      <path d="M55.744 63.6l.016-.016c-.3733352-.7573371-.6719989-1.6213285-.896-2.592-2.4640123.0640003-4.9013213.096-7.312.096V59.28c2.3146782 0 4.6453216-.0319997 6.992-.096-.0853338-.6506699-.1439998-1.2906635-.176-1.92l2.032-.128c.0320002.7680038.085333 1.4293306.16 1.984 1.7066752-.0640003 3.0026622-.1173331 3.888-.16l.064 1.808c-.800004.0426669-2.0106586.0959997-3.632.16.3306683 1.33334.9493288 2.7093262 1.856 4.128l-1.936.976c-1.1520058-.7680038-2.3893267-1.152-3.712-1.152-.8106707 0-1.4399978.162665-1.888.488-.4480022.325335-.672.7653306-.672 1.32 0 .7360037.3306634 1.303998.992 1.704.6613366.400002 1.6479934.6 2.96.6 1.1733392 0 2.4693262-.1439986 3.888-.432l.336 1.808c-1.3546734.2880014-2.7626594.432-4.224.432-2.0480102 0-3.5733283-.3839962-4.576-1.152-1.0026717-.7680038-1.504-1.7866603-1.504-3.056 0-1.066672.4053293-1.9199968 1.216-2.56s1.9359928-.96 3.376-.96c.9386714 0 1.8559955.1759982 2.752.528z" id="theLeftさSymbol" fill="#FFF"/>
      <path d="M50.672 41l.56-1.84c1.1306723.4053354 1.9306643.608 2.4.608.1813342 0 .3466659-.133332.496-.4.1493341-.266668.2799994-.7386633.392-1.416.1120006-.6773367.168-1.511995.168-2.504 0-1.2800064-.0559994-2.0266656-.168-2.24-.1120006-.2133344-.5146632-.32-1.208-.32h-1.664c-.7040035 3.008015-1.6639939 6.0053184-2.88 8.992l-1.808-.64c1.066672-2.6986802 1.9519965-5.4826523 2.656-8.352h-2.448V31.08h2.864c.2453346-1.1626725.4479992-2.2346618.608-3.216l1.92.176c-.1386674 1.0026717-.3146656 2.0159949-.528 3.04h2.28c.2720014 0 .5733317.0319997.904.096.3306683.0640003.5573327.1173331.68.16.1226673.0426669.2666658.1653323.432.368s.2639998.3839992.296.544c.0320002.1600008.0746664.4453313.128.856.0533336.4106687.08.786665.08 1.128v1.536c0 2.0480102-.2506642 3.5573285-.752 4.528-.5013358.9706715-1.1786624 1.456-2.032 1.456-.4160021 0-.9493301-.0719993-1.6-.216-.6506699-.1440007-1.242664-.3226656-1.776-.536zm6.4-10.544l1.936-.576c1.066672 2.6773467 1.9413299 5.3653198 2.624 8.064l-1.968.48c-.7040035-2.7626805-1.5679949-5.4186539-2.592-7.968z" id="theLeftかSymbol" fill="#FFF"/>
      <path d="M50.264 3.32h7.488v1.808l-3.28 2.976v.032h.272c.9813382 0 1.7546638.2799972 2.32.84.5653362.5600028.848 1.3413283.848 2.344 0 1.2266728-.3733296 2.17333-1.12 2.84-.7466704.66667-1.8133264 1-3.2 1-1.2480062 0-2.3839949-.2826638-3.408-.848l.576-1.76c.992005.533336 1.9039958.8 2.736.8.7040035 0 1.2479981-.170665 1.632-.512.3840019-.341335.576-.8373301.576-1.488 0-.5973363-.2159978-1.0266654-.648-1.288-.4320022-.26133464-1.1919946-.392-2.28-.392h-.96v-1.6l3.2-2.912v-.032h-4.752V3.32z" id="theLeft3Symbol" fill="#FFF"/>
      <path d="M82.88 61.312c-.8853378-.1493341-1.8026619-.2399998-2.752-.272v5.136c.9280046.5760029 1.9519944 1.3759949 3.072 2.4l-1.264 1.408c-.6400032-.5546694-1.2746635-1.0826642-1.904-1.584-.1600008.8640043-.5386637 1.4986646-1.136 1.904-.5973363.4053354-1.4346613.608-2.512.608-1.1840059 0-2.10933-.2719973-2.776-.816-.66667-.5440027-1-1.2853286-1-2.224 0-.9173379.3279967-1.6453306.984-2.184.6560033-.5386694 1.5866606-.808 2.792-.808.5440027 0 1.1146637.1013323 1.712.304v-6.016c1.8880094 0 3.5626594.1066656 5.024.32l-.24 1.824zm-13.808-.32v-1.824h2.736c.2346678-.9066712.4213326-1.6586637.56-2.256l1.92.256c-.1280006.6186698-.287999 1.2853298-.48 2h2.672v1.824h-3.152c-.800004 2.8160141-1.7226614 5.4879874-2.768 8.016l-1.856-.624c.9813382-2.4213454 1.8453296-4.8853208 2.592-7.392h-2.224zm9.024 6.096c-.6293365-.3200016-1.1999974-.48-1.712-.48-.5866696 0-1.0266652.1119989-1.32.336s-.44.5333314-.44.928c0 .4160021.1546651.7413322.464.976.3093349.2346678.7413306.352 1.296.352.6506699 0 1.0986654-.133332 1.344-.4.2453346-.266668.368-.7733296.368-1.52v-.192z" id="theLeftなSymbol" fill="#FFF"/>
      <path d="M82.208 34.792c-2.2720114 0-4.4266565.1226654-6.464.368l-.128-1.792c2.0906771-.2453346 4.2879885-.368 6.592-.368v1.792zm.128 4.72l.24 1.808c-1.141339.2133344-2.2666611.32-3.376.32-1.4720074 0-2.6479956-.2693306-3.528-.808-.8800044-.5386694-1.32-1.2293291-1.32-2.072 0-.8213374.533328-1.6479958 1.6-2.48l1.456.928c-.4160021.3520018-.6933326.6213324-.832.808-.1386674.1866676-.208.3653325-.208.536 0 .3733352.2533308.6799988.76.92.5066692.2400012 1.197329.36 2.072.36.9493381 0 1.994661-.1066656 3.136-.32zM69.6 31.72v-1.808h2.544c.1493341-.8533376.261333-1.4986645.336-1.936l2.032.176c-.1280006.7893373-.229333 1.3759981-.304 1.76h5.584v1.808h-5.936c-.7146702 3.5626845-1.6213278 6.9653171-2.72 10.208l-2.016-.464c1.0880054-3.1893493 1.9733299-6.4373168 2.656-9.744H69.6z" id="theLeftたSymbol" fill="#FFF"/>
      <path d="M76.488 10.84V6.248h-.032l-3.168 4.56v.032h3.2zm2.16 0h1.792v1.76h-1.792V15h-2.16v-2.4h-5.28v-1.76l5.28-7.52h2.16v7.52z" id="theLeft4Symbol" fill="#FFF"/>
      <path id="theLeft「Symbol" fill="#FFF" d="M85.352 98.992H83.32V86.768h6.672v1.712h-4.64z"/>
      <path d="M64.8 89.096h2.512v-.624H64.8v.624zm.128 5.92h-4.304c-.0853338.2986682-.1546664.5226659-.208.672h4.448c.0426669-.2346678.064-.4213326.064-.56v-.112zm.032-4.624h-1.84v1.216h1.84v-1.216zm2.08 0v1.216h1.824v-1.216H67.04zm-7.84 3.072c-.9173379-.8533376-1.9039947-1.6693294-2.96-2.448l1.184-1.424c.9173379.6506699 1.9039947 1.4559952 2.96 2.416L59.2 93.464zm11.952-6.624v1.632h-1.92v.624h1.616v3.792h-3.792v.56h3.984v1.568h-3.984v.112c0 .192001.0159998.3786658.048.56h4.144v1.616h-3.232c.6826701.6293365 1.8079922 1.1359981 3.376 1.52l-.752 1.664c-.9280046-.192001-1.7999959-.5573306-2.616-1.096-.8160041-.5386694-1.4746642-1.1653298-1.976-1.88-.5866696.7146702-1.3386621 1.3439973-2.256 1.888-.9173379.5440027-1.8879949.906666-2.912 1.088l-.784-1.616c1.7173419-.3626685 2.975996-.8853299 3.776-1.568h-3.616v-1.12c-.5546694 1.600008-1.2266627 3.0026606-2.016 4.208l-1.696-1.072c.9493381-1.4933408 1.7333302-3.173324 2.352-5.04l1.584.624v-1.456h4.448v-.56H61.2v-3.792h1.68v-.624h-2.352l-.992 1.2c-.7786706-.7146702-1.663995-1.4399963-2.656-2.176l1.184-1.424c.8213374.5973363 1.6159962 1.2266634 2.384 1.888v-1.12h2.432v-1.072h1.92v1.072h2.512v-1.072h1.92v1.072h1.92z" id="the漢Symbol" fill="#FFF"/>
    </g>
  </g>
</svg>
